<svg id="Camada_1" data-name="Camada 1" xmlns="http://www.w3.org/2000/svg" viewBox="0 0 284 347"><defs><style>.cls-1{fill:#6889a9;}.cls-2{fill:none;stroke:#6889a9;stroke-miterlimit:10;stroke-width:3px;}</style></defs><title>icones-carteira</title><path class="cls-1" d="M81.23,347.12V313.66h7.39V340.4h13.06v6.72Z"/><path class="cls-1" d="M106.39,347.12V313.66h7.39v33.46Z"/><path class="cls-1" d="M120.54,347.12V313.66h7.39v14.93l12.91-14.93h8.78l-12.82,14.83L150,347.12h-8.69l-9.55-13.39L127.94,338v9.12Z"/><path class="cls-1" d="M153.52,347.12V313.66h22.85v6.72H160.91v6.29h14.45v6.58H160.91v7.15h15.79v6.72Z"/><path class="cls-1" d="M185,336.56c1.78,2.93,4.56,4.42,8.4,4.42,3.41,0,5-1.54,5-3.31a3.21,3.21,0,0,0-1.82-2.78,11.31,11.31,0,0,0-2.88-1.25c-.82-.34-2.74-1-3.7-1.34-5.23-1.92-8.11-4.66-8.11-9.7a8.23,8.23,0,0,1,3.22-6.86,12.28,12.28,0,0,1,7.92-2.59c4.85,0,8.54,1.82,11.14,5.47l-4.95,3.74a7.15,7.15,0,0,0-6-2.59c-2.45,0-4,1.15-4,2.74a2.43,2.43,0,0,0,1.3,2.4c.53.29,1.06.53,1.49.72l2.4.82c1.1.38,2.06.72,2.88,1.06,6.1,2.3,8.54,5.14,8.54,9.94,0,6.19-4.22,10.22-12.43,10.22-6.77,0-11.47-3-13.73-7.39Z"/><path class="cls-1" d="M142,100.36c.88-1.28,1.68-2.52,2.56-3.7a38.39,38.39,0,0,1,17-13.26,33.83,33.83,0,0,1,15.14-2.18A33.27,33.27,0,0,1,196,89a32.83,32.83,0,0,1,11.31,20,52.14,52.14,0,0,1,.29,12.45,57.71,57.71,0,0,1-2.19,12.63A50,50,0,0,1,196,151.58,123.47,123.47,0,0,1,181.74,166c-7.84,6.93-15.78,13.74-23.6,20.69-5.29,4.7-10.45,9.54-15.67,14.32l-.48.43-2.26-2.11c-8.34-7.87-17-15.43-25.62-22.94-6.74-5.84-13.56-11.6-19.87-17.93a71,71,0,0,1-11.17-13.93A48.35,48.35,0,0,1,77,127.32a71.5,71.5,0,0,1-.84-13.67c.48-13.55,8.51-25.37,21-30.06,13.34-5,25.53-2.63,36.37,6.59a40.55,40.55,0,0,1,8.08,9.62Z"/><rect class="cls-2" x="1.69" y="0.93" width="280.62" height="280.62" rx="20" ry="20"/></svg>