<svg id="Camada_1" data-name="Camada 1" xmlns="http://www.w3.org/2000/svg" viewBox="0 0 284 347"><defs><style>.cls-1{fill:#28416e;}.cls-2{fill:none;stroke:#28416e;stroke-miterlimit:10;stroke-width:3px;}</style></defs><title>icones-carteira</title><path class="cls-1" d="M39.42,346.82V313.36H62.28v6.72H46.82v6.29H61.27v6.58H46.82v7.15H62.61v6.72Z"/><path class="cls-1" d="M65.3,346.82l11-17.19L65.87,313.36h8.26L80.9,324l6.72-10.66h8.21L85.41,329.68,96.5,346.82H88.34L80.85,335.2l-7.49,11.62Z"/><path class="cls-1" d="M106.24,346.82V320.08H97.17v-6.72h25.39v6.72h-8.93v26.74Z"/><path class="cls-1" d="M126.45,346.82V313.36h14a11,11,0,0,1,8,3.22,10.66,10.66,0,0,1-2.59,17.33l8.16,12.91H145.7l-7-11.14h-4.94v11.14Zm7.34-17.67h5.86a4.45,4.45,0,0,0,4.8-4.66,4.21,4.21,0,0,0-4.18-4.42h-6.48Z"/><path class="cls-1" d="M154.1,346.82l13.83-33.46h6.58l13.83,33.46h-7.87l-2.26-5.62h-14L162,346.82Zm12.24-11.52h9.75l-4.85-12.15Z"/><path class="cls-1" d="M194.51,346.82V320.08h-9.07v-6.72h25.39v6.72h-8.93v26.74Z"/><path class="cls-1" d="M217.31,317.87a17.65,17.65,0,0,1,12.67-5,17.46,17.46,0,0,1,12.63,5,16.33,16.33,0,0,1,5.23,12.29,16.57,16.57,0,0,1-5.18,12.34,18.58,18.58,0,0,1-25.35,0,17.21,17.21,0,0,1,0-24.63Zm5.23,19.87a10.14,10.14,0,0,0,7.44,3,9.89,9.89,0,0,0,7.39-3.07,10.78,10.78,0,0,0,0-15,10.43,10.43,0,0,0-14.88,0,10.9,10.9,0,0,0,0,15.07Z"/><path class="cls-1" d="M206.82,201H77.18a3,3,0,0,1,0-5.93H206.82a3,3,0,0,1,0,5.93Z"/><path class="cls-1" d="M101.55,200.74H84.22a3,3,0,0,1-3-3V161.16a3,3,0,0,1,3-3h17.33a3,3,0,0,1,3,3v36.62A3,3,0,0,1,101.55,200.74Zm-14.36-5.93h11.4V164.13H87.19Z"/><path class="cls-1" d="M134.29,200.74H117a3,3,0,0,1-3-3V128.46a3,3,0,0,1,3-3h17.33a3,3,0,0,1,3,3v69.32A3,3,0,0,1,134.29,200.74Zm-14.36-5.93h11.4V131.42h-11.4Z"/><path class="cls-1" d="M167,200.74H149.71a3,3,0,0,1-3-3V157.65a3,3,0,0,1,3-3H167a3,3,0,0,1,3,3v40.12A3,3,0,0,1,167,200.74Zm-14.36-5.93h11.4V160.62h-11.4Z"/><path class="cls-1" d="M199.78,200.74H182.45a3,3,0,0,1-3-3V142.47a3,3,0,0,1,3-3h17.33a3,3,0,0,1,3,3v55.31A3,3,0,0,1,199.78,200.74Zm-14.36-5.93h11.4V145.44h-11.4Z"/><path class="cls-1" d="M92.88,143.17a13,13,0,1,1,13-13A13,13,0,0,1,92.88,143.17Zm0-20a7,7,0,1,0,7,7A7,7,0,0,0,92.88,123.18Zm65.49,16.48a13,13,0,1,1,13-13A13,13,0,0,1,158.37,139.66Zm0-20a7,7,0,1,0,7,7A7,7,0,0,0,158.37,119.66Zm32.74,4.87a13,13,0,1,1,13-13A13,13,0,0,1,191.12,124.53Zm0-20a7,7,0,1,0,7,7A7,7,0,0,0,191.12,104.54Zm-65.49,5.38a13,13,0,1,1,13-13A13,13,0,0,1,125.63,109.92Zm0-20a7,7,0,1,0,7,7A7,7,0,0,0,125.63,89.92Z"/><path class="cls-1" d="M101.83,124.09A3,3,0,0,1,99.74,119l15.45-15.25a3,3,0,0,1,4.17,4.22l-15.45,15.25A3,3,0,0,1,101.83,124.09Z"/><path class="cls-1" d="M150.25,122.37a3,3,0,0,1-2-.78l-15.6-14.28a3,3,0,0,1,4-4.38l15.6,14.28a3,3,0,0,1-2,5.16Z"/><path class="cls-1" d="M168.22,125.4a3,3,0,0,1-1.3-5.64l11.75-5.71a3,3,0,1,1,2.59,5.34l-11.75,5.71A3,3,0,0,1,168.22,125.4Z"/><rect class="cls-2" x="1.69" y="2.18" width="280.62" height="280.62" rx="20" ry="20"/></svg>