<svg id="Camada_1" data-name="Camada 1" xmlns="http://www.w3.org/2000/svg" viewBox="0 0 284 347"><defs><style>.cls-1{fill:#4c6d94;}.cls-2{fill:none;stroke:#4c6d94;stroke-miterlimit:10;stroke-width:3px;}</style></defs><title>icones-carteira</title><path class="cls-1" d="M84,346,70.24,312.58h7.87l9.12,22.66,9.07-22.66h7.87L90.5,346Z"/><path class="cls-1" d="M98.8,346l13.83-33.46h6.58L133,346h-7.87l-2.26-5.62h-14L106.67,346ZM111,334.52h9.75l-4.85-12.14Z"/><path class="cls-1" d="M137,346V312.58h7.39v26.74h13.06V346Z"/><path class="cls-1" d="M162,346V312.58h22.85v6.72H169.36v6.29h14.45v6.58H169.36v7.15h15.79V346Z"/><path class="cls-1" d="M193.46,335.48c1.78,2.93,4.56,4.42,8.4,4.42,3.41,0,5-1.54,5-3.31A3.21,3.21,0,0,0,205,333.8a11.31,11.31,0,0,0-2.88-1.25c-.82-.34-2.74-1-3.7-1.34-5.23-1.92-8.11-4.66-8.11-9.7a8.23,8.23,0,0,1,3.22-6.86,12.28,12.28,0,0,1,7.92-2.59c4.85,0,8.54,1.82,11.14,5.47l-4.95,3.74a7.15,7.15,0,0,0-6-2.59c-2.45,0-4,1.15-4,2.74a2.43,2.43,0,0,0,1.3,2.4c.53.29,1.06.53,1.49.72l2.4.82c1.1.38,2.06.72,2.88,1.06,6.1,2.3,8.54,5.14,8.54,9.94,0,6.19-4.22,10.22-12.43,10.22-6.77,0-11.47-3-13.73-7.39Z"/><path class="cls-1" d="M142.13,212a3,3,0,0,1-2.37-1.18L85.4,138.92a3,3,0,0,1,2.37-4.76H196.39a3,3,0,0,1,2.37,4.75L144.5,210.81a3,3,0,0,1-2.37,1.18ZM93.72,140.1l48.41,64,48.31-64Z"/><path class="cls-1" d="M142.18,209.32a3,3,0,0,1-1.78-.59,2.58,2.58,0,0,1-1.32-1.72l-1.16-5.11-17-64a3,3,0,0,1,2.87-3.73h2.52a3,3,0,0,1,1.26,5.65l14.53,54.63,15.44-58.08a3,3,0,1,1,5.73,1.52L145.07,207a3,3,0,0,1-2.84,2.31Z"/><path class="cls-1" d="M196.41,139.19a3,3,0,0,1-2.7-1.72l-9.57-20.75H101.61L90.37,137.63a3,3,0,1,1-5.23-2.81l12.08-22.47a3,3,0,0,1,2.61-1.56H186a3,3,0,0,1,2.69,1.72L199.1,135a3,3,0,0,1-2.69,4.21Z"/><path class="cls-1" d="M123.91,139.76a3.83,3.83,0,0,1-3-1.74l-.62-.73a2.94,2.94,0,0,1-.5-.77L110.21,115a3,3,0,0,1,5.42-2.41l8.28,18.66,8.28-18.66a3,3,0,1,1,5.42,2.41L128,136.52a3,3,0,0,1-.5.77l-.62.73A3.83,3.83,0,0,1,123.91,139.76Z"/><path class="cls-1" d="M160.26,139.76h0a3.83,3.83,0,0,1-3-1.74l-.62-.73a3,3,0,0,1-.5-.77L146.55,115a3,3,0,1,1,5.42-2.41l8.28,18.66,8.28-18.66A3,3,0,0,1,174,115l-9.57,21.56a2.94,2.94,0,0,1-.5.77l-.62.73A3.83,3.83,0,0,1,160.26,139.76Z"/><path class="cls-1" d="M141.7,94.31a3,3,0,0,1-3-3V74.41a3,3,0,1,1,5.93,0V91.34A3,3,0,0,1,141.7,94.31Z"/><path class="cls-1" d="M111.42,99.24a3,3,0,0,1-2.69-1.71l-7.16-15.35A3,3,0,0,1,107,79.67L114.11,95a3,3,0,0,1-2.69,4.22Z"/><path class="cls-1" d="M87,114.14a3,3,0,0,1-1.91-.69l-13-10.88A3,3,0,0,1,75.91,98l13,10.88A3,3,0,0,1,87,114.14Z"/><path class="cls-1" d="M172.13,98.53a3,3,0,0,1-2.69-4.22L176.6,79A3,3,0,0,1,182,81.47l-7.16,15.35A3,3,0,0,1,172.13,98.53Z"/><path class="cls-1" d="M197,112.86a3,3,0,0,1-1.91-5.24l13-10.88a3,3,0,0,1,3.81,4.55l-13,10.88A3,3,0,0,1,197,112.86Z"/><rect class="cls-2" x="1.69" y="1.41" width="280.62" height="280.62" rx="20" ry="20"/></svg>