<svg id="Camada_1" data-name="Camada 1" xmlns="http://www.w3.org/2000/svg" viewBox="0 0 284 347"><defs><style>.cls-1{fill:#355583;}.cls-2{fill:none;stroke:#355583;stroke-miterlimit:10;stroke-width:3px;}</style></defs><title>icones-carteira</title><path class="cls-1" d="M64.92,318.3l-5,4.27a10.86,10.86,0,0,0-8.5-3.79,10.36,10.36,0,0,0-7.54,3,10.06,10.06,0,0,0-3.07,7.54,10.2,10.2,0,0,0,3,7.54,10.54,10.54,0,0,0,7.58,3A10.93,10.93,0,0,0,59.92,336l5,4.27a17.72,17.72,0,0,1-13.58,6.29,18,18,0,0,1-12.77-4.9,17.16,17.16,0,0,1,0-24.67,18.33,18.33,0,0,1,26.31,1.3Z"/><path class="cls-1" d="M66.59,346.05l13.83-33.46H87l13.83,33.46H92.95l-2.26-5.62h-14l-2.26,5.62Zm12.24-11.52h9.75l-4.85-12.15Z"/><path class="cls-1" d="M104.8,346.05V312.59h14a11,11,0,0,1,8,3.22,10.66,10.66,0,0,1-2.59,17.33l8.16,12.91h-8.35l-7-11.14h-4.94v11.14Zm7.34-17.67H118a4.45,4.45,0,0,0,4.8-4.66,4.21,4.21,0,0,0-4.18-4.42h-6.48Z"/><path class="cls-1" d="M141.52,346.05V319.31h-9.07v-6.72h25.39v6.72h-8.93v26.74Z"/><path class="cls-1" d="M164.32,317.1a17.65,17.65,0,0,1,12.67-5,17.46,17.46,0,0,1,12.63,5,16.33,16.33,0,0,1,5.23,12.29,16.57,16.57,0,0,1-5.18,12.34,18.58,18.58,0,0,1-25.35,0,17.22,17.22,0,0,1,0-24.63ZM169.55,337a10.14,10.14,0,0,0,7.44,3,9.89,9.89,0,0,0,7.39-3.07,10.78,10.78,0,0,0,0-15,10.43,10.43,0,0,0-14.88,0,10.9,10.9,0,0,0,0,15.07Zm-2-27.46c.53-3.7,2.74-6.24,6.19-6.24a9.72,9.72,0,0,1,3.89,1,9.05,9.05,0,0,0,3.26,1q1.66,0,2.16-2l3.94.62c-.58,4.37-2.69,6.53-6.29,6.53a9.74,9.74,0,0,1-4-1,9.05,9.05,0,0,0-3.26-1,1.83,1.83,0,0,0-2,1.68Z"/><path class="cls-1" d="M199.79,346.05V312.59h22.85v6.72H207.19v6.29h14.45v6.58H207.19v7.15H223v6.72Z"/><path class="cls-1" d="M231.28,335.49c1.78,2.93,4.56,4.42,8.4,4.42,3.41,0,5-1.54,5-3.31a3.21,3.21,0,0,0-1.82-2.78,11.34,11.34,0,0,0-2.88-1.25c-.82-.34-2.74-1-3.7-1.34-5.23-1.92-8.11-4.66-8.11-9.7a8.23,8.23,0,0,1,3.22-6.86,12.28,12.28,0,0,1,7.92-2.59c4.85,0,8.54,1.82,11.14,5.47l-4.94,3.74a7.15,7.15,0,0,0-6-2.59c-2.45,0-4,1.15-4,2.74a2.43,2.43,0,0,0,1.3,2.4c.53.29,1.06.53,1.49.72l2.4.82c1.1.38,2.06.72,2.88,1.06,6.1,2.3,8.54,5.14,8.54,9.94,0,6.19-4.22,10.22-12.43,10.22-6.77,0-11.47-3-13.73-7.39Z"/><path class="cls-1" d="M172.12,211.71H111.88a11.82,11.82,0,0,1-11.8-11.8V105.3a3,3,0,1,1,5.93,0v94.61a5.88,5.88,0,0,0,5.87,5.87h60.24a5.88,5.88,0,0,0,5.87-5.87V105.3a3,3,0,1,1,5.93,0v94.61A11.82,11.82,0,0,1,172.12,211.71Z"/><path class="cls-1" d="M116.6,199.23a3,3,0,0,1-3-3v-10a3,3,0,1,1,5.93,0v10A3,3,0,0,1,116.6,199.23Z"/><path class="cls-1" d="M116.6,177.09a3,3,0,0,1-3-3V161.69a3,3,0,1,1,5.93,0v12.43A3,3,0,0,1,116.6,177.09Z"/><path class="cls-1" d="M162.42,211.71H148a3,3,0,0,1-3-3V103.4a3,3,0,1,1,5.93,0V205.77h8.45V102.87a3,3,0,1,1,5.93,0V208.74A3,3,0,0,1,162.42,211.71Z"/><path class="cls-1" d="M188.38,122.25h-5a3,3,0,0,1,0-5.93h5a1.41,1.41,0,0,0,1.39-1.39v-9.27a1.42,1.42,0,0,0-1.39-1.38H95.62a1.42,1.42,0,0,0-1.39,1.38v9.27a1.42,1.42,0,0,0,1.39,1.39h5a3,3,0,0,1,0,5.93h-5a7.33,7.33,0,0,1-7.32-7.32v-9.27a7.33,7.33,0,0,1,7.32-7.32h92.76a7.33,7.33,0,0,1,7.32,7.32v9.27A7.33,7.33,0,0,1,188.38,122.25Z"/><path class="cls-1" d="M204.64,145h-21.3a3,3,0,0,1,0-5.93h21.3a2.76,2.76,0,0,0,2.66-2.66v-55a2.73,2.73,0,0,0-2.66-2.66H79.36A2.66,2.66,0,0,0,76.7,81.4v55a2.73,2.73,0,0,0,2.66,2.66h21.29a3,3,0,0,1,0,5.93H79.36a8.71,8.71,0,0,1-8.59-8.59v-55a8.6,8.6,0,0,1,8.59-8.59H204.64a8.71,8.71,0,0,1,8.59,8.59v55A8.71,8.71,0,0,1,204.64,145Z"/><rect class="cls-2" x="1.69" y="1.95" width="280.62" height="280.62" rx="20" ry="20"/></svg>