<svg id="Camada_1" data-name="Camada 1" xmlns="http://www.w3.org/2000/svg" viewBox="0 0 284 347"><defs><style>.cls-1{fill:#1b2a49;}.cls-2{fill:none;stroke:#1b2a49;stroke-miterlimit:10;stroke-width:3px;}</style></defs><title>icones-carteira</title><path class="cls-1" d="M210.82,157H73.18a3,3,0,0,1-3-3V82.22a3,3,0,0,1,3-3H210.82a3,3,0,0,1,3,3V154A3,3,0,0,1,210.82,157ZM76.15,151h131.7V85.18H76.15Z"/><path class="cls-1" d="M142,144.43c-11.3,0-20.49-11.81-20.49-26.33S130.7,91.78,142,91.78s20.49,11.81,20.49,26.32S153.3,144.43,142,144.43Zm0-46.72c-8,0-14.55,9.15-14.55,20.39S134,138.5,142,138.5s14.55-9.15,14.55-20.39S150,97.71,142,97.71Z"/><path class="cls-1" d="M98.25,153.8a3,3,0,0,1-3-3,18.66,18.66,0,0,0-18.64-18.64,3,3,0,0,1,0-5.93,24.6,24.6,0,0,1,24.57,24.57A3,3,0,0,1,98.25,153.8Z"/><path class="cls-1" d="M185.75,153.8a3,3,0,0,1-3-3,24.6,24.6,0,0,1,24.57-24.57,3,3,0,0,1,0,5.93,18.66,18.66,0,0,0-18.64,18.64A3,3,0,0,1,185.75,153.8Z"/><path class="cls-1" d="M76.65,109.95a3,3,0,0,1,0-5.93A18.66,18.66,0,0,0,95.28,85.38a3,3,0,1,1,5.93,0A24.6,24.6,0,0,1,76.65,109.95Z"/><path class="cls-1" d="M207.35,109.95a24.6,24.6,0,0,1-24.57-24.57,3,3,0,1,1,5.93,0A18.66,18.66,0,0,0,207.35,104a3,3,0,0,1,0,5.93Z"/><path class="cls-1" d="M106.92,125.6a7.5,7.5,0,1,1,7.5-7.5A7.51,7.51,0,0,1,106.92,125.6Zm0-9.06a1.56,1.56,0,1,0,1.56,1.56A1.56,1.56,0,0,0,106.92,116.54Z"/><path class="cls-1" d="M177,125.6a7.5,7.5,0,1,1,7.5-7.5A7.51,7.51,0,0,1,177,125.6Zm0-9.06a1.56,1.56,0,1,0,1.56,1.56A1.56,1.56,0,0,0,177,116.54Z"/><path class="cls-1" d="M210.32,173.68H73.68a3,3,0,0,1,0-5.93H210.32a3,3,0,0,1,0,5.93Z"/><path class="cls-1" d="M210.32,189.83H73.68a3,3,0,0,1,0-5.93H210.32a3,3,0,0,1,0,5.93Z"/><rect class="cls-2" x="1.69" y="2.3" width="280.62" height="280.62" rx="20" ry="20"/></svg>