<svg xmlns="http://www.w3.org/2000/svg" viewBox="0 0 59 56"><defs><style>.cls-1{fill:#333;}</style></defs><title>icones</title><g id="pop-ups"><path class="cls-1" d="M12.64,17.41V13L18.56,3h-4L4.66,13v4.38a4,4,0,1,0,8,0Z"/><path class="cls-1" d="M29.5,21.39a4,4,0,0,0,4-4V13l-2-10h-4l-2,10v4.38A4,4,0,0,0,29.5,21.39Z"/><path class="cls-1" d="M15.09,17.41a4,4,0,1,0,8,0V13L25,3H21l-6,10Z"/><path class="cls-1" d="M35.94,17.41a4,4,0,1,0,8,0V13L38,3H34l2,10Z"/><path class="cls-1" d="M44.42,3h-4l5.93,10v4.38a4,4,0,1,0,8,0V13Z"/><path class="cls-1" d="M50.14,24.06H8.87a1,1,0,0,0-1,1V52a1,1,0,0,0,1,1H50.14a1,1,0,0,0,1-1V25.06A1,1,0,0,0,50.14,24.06Zm-3,4V45.62H11.86V28Z"/></g></svg>