<svg xmlns="http://www.w3.org/2000/svg" viewBox="0 0 59 56"><defs><style>.cls-1{fill:#333;}</style></defs><title>icones</title><g id="pop-ups"><path class="cls-1" d="M4.36,13.13l38.71-4.7L37.44,34.95H6.73Zm36-2.2L6.73,15,8.66,32.8h27Z"/><path class="cls-1" d="M42.71,10a5.92,5.92,0,0,1,6.73-5l4.88.73.32-2.13-4.88-.73a8.06,8.06,0,0,0-9.17,6.78Z"/><path class="cls-1" d="M4.47,46.64A6.56,6.56,0,1,1,11,53.2,6.57,6.57,0,0,1,4.47,46.64Zm2.15,0A4.42,4.42,0,1,0,11,42.23,4.42,4.42,0,0,0,6.62,46.64Z"/><path class="cls-1" d="M16.42,47.72a5.45,5.45,0,0,0,.11-1.07,5.36,5.36,0,0,0-.11-1.08H32.74a5.36,5.36,0,0,0-.11,1.08,5.45,5.45,0,0,0,.11,1.07Z"/><path class="cls-1" d="M41.92,42.69a5.23,5.23,0,0,0,.62-2.44,5.32,5.32,0,0,0-5.31-5.31H7.69V32.8H37.23a7.44,7.44,0,0,1,6,11.87A5.46,5.46,0,0,0,41.92,42.69Z"/><path class="cls-1" d="M31.56,46.64a6.56,6.56,0,1,1,6.56,6.56A6.57,6.57,0,0,1,31.56,46.64Zm2.15,0a4.42,4.42,0,1,0,4.41-4.41A4.42,4.42,0,0,0,33.71,46.64Z"/><rect class="cls-1" x="7.69" y="28.53" width="30.26" height="2.15"/></g></svg>