<svg xmlns="http://www.w3.org/2000/svg" viewBox="0 0 345 345"><defs><style>.cls-1{fill:#f9a51a;}.cls-2{fill:#fff;}</style></defs><title>icones</title><g id="pop-ups"><polygon class="cls-1" points="345 0 0 345 0 0 345 0"/><path class="cls-2" d="M41.08,137.28l-6.67-6.67,1.84-1.84,14.54,14.54c1.1,1.1,1.82,1.32,2.52.62a8.5,8.5,0,0,0,.6-.7l1.4,1.4a4.38,4.38,0,0,1-1,1.37,3.26,3.26,0,0,1-1.67,1A3.48,3.48,0,0,1,50,146c.52,2.42-.25,4.68-2.34,6.77a8.51,8.51,0,0,1-6.4,2.61,9.94,9.94,0,0,1-9.49-9.49,8.54,8.54,0,0,1,2.59-6.42C36.64,137.23,39.08,136.73,41.08,137.28Zm6.82,9.06a7,7,0,0,0-2.19-4.88,6.82,6.82,0,0,0-4.86-2.17,6.15,6.15,0,0,0-4.76,1.92,6,6,0,0,0-1.82,4.66,7.05,7.05,0,0,0,2.24,4.78,7.2,7.2,0,0,0,4.81,2.27A6,6,0,0,0,46,151.08,6.24,6.24,0,0,0,47.9,146.35Z"/><path class="cls-2" d="M50.14,137.13a9.51,9.51,0,0,1-3.09-6.62,8.5,8.5,0,0,1,2.66-6.35,7.41,7.41,0,0,1,6-2.34,9,9,0,0,1,6.05,2.81c.27.27.55.55.77.82L52.33,135.64c2.86,2.66,6.4,2.66,9,0a6.69,6.69,0,0,0,2.12-5.6l2.42,0a9.24,9.24,0,0,1-2.86,7.3,8.82,8.82,0,0,1-6.35,2.81,9,9,0,0,1-6.43-2.94ZM59,125.78a5,5,0,0,0-3.74-1.49,5.29,5.29,0,0,0-3.79,1.59,6.17,6.17,0,0,0-1.87,4.06,5.3,5.3,0,0,0,1.27,4Z"/><path class="cls-2" d="M67.92,125.18c1.39.75,3.34.45,5.06-1.27,2.07-2.07,1.82-3.71.85-4.68a2.26,2.26,0,0,0-2.12-.72,18.33,18.33,0,0,0-3.64,1.25c-3.19,1.39-5.25,1.57-7.07-.25s-1.74-4.88.47-7.1a5.32,5.32,0,0,1,5.8-1.47l-.72,2.27a3.18,3.18,0,0,0-3.36.87c-1.17,1.17-1.37,2.56-.35,3.59s2.39.7,5-.47c3.59-1.59,5.9-1.72,7.82.2s2,5.25-1,8.24c-2.39,2.39-5.33,3.14-7.75,1.72Z"/><path class="cls-2" d="M80.79,96.87,81,99.28a6.9,6.9,0,0,0-5.1,2.17,6.53,6.53,0,0,0-2,4.88A6.72,6.72,0,0,0,76,111.21a6.85,6.85,0,0,0,4.91,2.17,6.64,6.64,0,0,0,4.86-2.07,6.9,6.9,0,0,0,2.17-5.1l2.42.17A8.91,8.91,0,0,1,87.44,113a9.16,9.16,0,0,1-6.62,2.84,9.57,9.57,0,0,1-9.49-9.49,9.19,9.19,0,0,1,2.81-6.65A8.91,8.91,0,0,1,80.79,96.87Z"/><path class="cls-2" d="M86.74,100.43A9,9,0,0,1,84,93.76a9.61,9.61,0,0,1,9.46-9.46,9.57,9.57,0,0,1,9.49,9.49,9.7,9.7,0,0,1-9.46,9.46A9.06,9.06,0,0,1,86.74,100.43Zm1.84-1.84a6.85,6.85,0,0,0,4.91,2.17,7.06,7.06,0,0,0,6.92-6.92,6.85,6.85,0,0,0-2.17-4.91,6.71,6.71,0,0,0-4.88-2.14,7,7,0,0,0-6.92,6.92A6.71,6.71,0,0,0,88.58,98.59Z"/><path class="cls-2" d="M108.65,91.07,96.1,78.52l1.84-1.84,2.12,2.12a6,6,0,0,1,1.64-6.28c2.81-2.81,6.45-2.71,9.31.15l5.18,5.18c1,1,1.47,1.17,2.19.45a6.39,6.39,0,0,0,.42-.52l1.52,1.52a3.27,3.27,0,0,1-.67.92c-1,1-2.66,2.12-5.18-.4l-4.91-4.91c-2.09-2.09-4.63-2.19-6.62-.2a4.73,4.73,0,0,0,0,7l7.5,7.5Z"/><path class="cls-2" d="M111.91,66.15l-1.47,1.47-1.72-1.72,1.47-1.47-4.81-4.81,1.84-1.84L112,62.58,115,59.67l1.72,1.72-2.91,2.91,7.32,7.32c1.59,1.59,2.69,1.64,3.91.42a10.87,10.87,0,0,0,1.1-1.25l1.59,1.59a5.18,5.18,0,0,1-1.2,1.59q-3.36,3.36-7.25-.52Z"/><path class="cls-2" d="M122.55,64.63A9,9,0,0,1,119.76,58a9.61,9.61,0,0,1,9.46-9.46A9.57,9.57,0,0,1,138.71,58a9.7,9.7,0,0,1-9.46,9.46A9.06,9.06,0,0,1,122.55,64.63Zm1.84-1.84A6.85,6.85,0,0,0,129.29,65,7.06,7.06,0,0,0,136.22,58a6.85,6.85,0,0,0-2.17-4.91A6.71,6.71,0,0,0,129.17,51a7,7,0,0,0-6.92,6.92A6.72,6.72,0,0,0,124.39,62.78Z"/></g></svg>