<svg xmlns="http://www.w3.org/2000/svg" viewBox="0 0 49 49"><defs><style>.cls-1{fill:#fff;}.cls-2{fill:none;stroke:#fff;stroke-miterlimit:10;}</style></defs><title>icones</title><g id="ícones_menores" data-name="ícones menores"><path class="cls-1" d="M41.67,18.59a7.09,7.09,0,0,0-.73.42l-9.42,7v-5c-6-.48-9.92,2.33-12.67,7.31a15,15,0,0,1,3.6-9.15c2.37-2.63,5.45-3.63,9-3.68V10.78l10.23,7.65Z"/><path class="cls-1" d="M21.87,15.89c-1,1-2,1.93-3,2.85a1.2,1.2,0,0,1-.73.17c-1.29,0-2.59,0-3.92,0V33.17H34c0-1.34,0-2.66,0-4a1.55,1.55,0,0,1,.45-1c.77-.71,1.6-1.34,2.53-2.1,0,.34,0,.51,0,.69,0,2.57,0,5.14,0,7.71,0,1.2-.55,1.74-1.76,1.75H12.88a1.54,1.54,0,0,1-1.77-1.74q0-8.47,0-16.94a1.5,1.5,0,0,1,1.59-1.68C15.75,15.88,18.8,15.89,21.87,15.89Z"/><rect class="cls-2" x="1.5" y="1.5" width="46" height="46" rx="6.93" ry="6.93"/></g></svg>