<svg xmlns="http://www.w3.org/2000/svg" viewBox="0 0 76 74"><defs><style>.cls-1{fill:none;stroke:#00254e;stroke-miterlimit:10;}.cls-2{fill:#00254e;}</style></defs><title>icones</title><g id="ícones_menores" data-name="ícones menores"><rect class="cls-1" x="2" y="1" width="72" height="72" rx="15.51" ry="15.51"/><path class="cls-2" d="M47.16,18.76a10.34,10.34,0,0,1,1.69.65,3.78,3.78,0,0,1,2,3.25c.06,2.45,0,4.9,0,7.34,0,0,0,0,0,.09l-.5-.43c-.61-.53-1.21-1.08-1.85-1.59a1,1,0,0,1-.39-.87c0-1.33,0-2.66,0-4,0-1.16-.52-1.68-1.68-1.68H27.47c-1.16,0-1.69.52-1.69,1.68q0,13.63,0,27.26c0,1.16.53,1.68,1.69,1.68H46.37c1.15,0,1.68-.53,1.68-1.69,0-1.39,0-2.78,0-4.17a.66.66,0,0,1,.26-.57c.83-.7,1.64-1.41,2.5-2.16,0,.13,0,.21,0,.29,0,2.27,0,4.54,0,6.82a4.16,4.16,0,0,1-3.54,4.2.59.59,0,0,0-.13.06H26.67c-.25-.07-.5-.12-.74-.2A4.18,4.18,0,0,1,23,50.58q0-13.73,0-27.46c0-.12,0-.24,0-.35a4,4,0,0,1,2-3.35,10.16,10.16,0,0,1,1.69-.65Z"/><path class="cls-2" d="M41.08,32.68c0-1.09,0-2.13,0-3.18a7.64,7.64,0,0,1,.06-.88.93.93,0,0,1,1.59-.6l9.95,8.63.21.2-.28.26q-4.91,4.26-9.81,8.52A1,1,0,0,1,41.16,45a14.2,14.2,0,0,1-.07-1.44c0-.83,0-1.67,0-2.55H33a1.43,1.43,0,0,1-1.62-1.6q0-2.54,0-5.09A1.44,1.44,0,0,1,33,32.68h8.1Z"/></g></svg>