<svg xmlns="http://www.w3.org/2000/svg" viewBox="0 0 59 56"><defs><style>.cls-1{fill:#333;}</style></defs><title>icones</title><g id="pop-ups"><path class="cls-1" d="M57.21,19.06a12.86,12.86,0,0,0-1.33.77C50.26,24,44.64,28.2,38.8,32.56v-9c-10.8-.86-18,4.22-23,13.26.52-6.27,2.32-11.93,6.52-16.6s9.89-6.59,16.31-6.68V4.89L57.21,18.77Z"/><path class="cls-1" d="M21.3,14.15c-1.86,1.77-3.63,3.51-5.46,5.17a2.17,2.17,0,0,1-1.33.31c-2.34,0-4.69,0-7.12,0V45.5h36c0-2.43-.06-4.82,0-7.21a2.82,2.82,0,0,1,.82-1.78c1.39-1.28,2.91-2.43,4.59-3.81,0,.62.07.93.07,1.25,0,4.66,0,9.33,0,14,0,2.17-1,3.16-3.19,3.17H5c-2.17,0-3.21-1-3.21-3.16q0-15.36,0-30.72a2.72,2.72,0,0,1,2.88-3.05C10.2,14.13,15.73,14.15,21.3,14.15Z"/></g></svg>