<svg xmlns="http://www.w3.org/2000/svg" viewBox="0 0 63 63"><defs><style>.cls-1{fill:#fff;}</style></defs><title>icones</title><g id="rodapé_utilitários" data-name="rodapé utilitários"><path class="cls-1" d="M.39,13.1l47.9-5.81-7,32.81h-38Zm44.53-2.73L3.32,15.43l2.39,22H39.17Z"/><path class="cls-1" d="M47.85,9.22a7.32,7.32,0,0,1,8.33-6.15l6,.9.39-2.63-6-.9A10,10,0,0,0,45.22,8.82Z"/><path class="cls-1" d="M.53,54.57a8.12,8.12,0,1,1,8.12,8.11A8.13,8.13,0,0,1,.53,54.57Zm2.66,0a5.46,5.46,0,1,0,5.46-5.46A5.46,5.46,0,0,0,3.19,54.57Z"/><path class="cls-1" d="M15.31,55.89a6.75,6.75,0,0,0,.13-1.33,6.63,6.63,0,0,0-.13-1.33h20.2a6.63,6.63,0,0,0-.13,1.33,6.75,6.75,0,0,0,.13,1.33Z"/><path class="cls-1" d="M46.86,49.68a6.47,6.47,0,0,0,.77-3,6.58,6.58,0,0,0-6.57-6.57H4.52V37.44H41.06a9.21,9.21,0,0,1,7.42,14.69A6.76,6.76,0,0,0,46.86,49.68Z"/><path class="cls-1" d="M34,54.57a8.12,8.12,0,1,1,8.12,8.11A8.13,8.13,0,0,1,34,54.57Zm2.66,0a5.46,5.46,0,1,0,5.46-5.46A5.46,5.46,0,0,0,36.71,54.57Z"/><rect class="cls-1" x="4.52" y="32.16" width="37.44" height="2.66"/></g></svg>