<svg xmlns="http://www.w3.org/2000/svg" viewBox="0 0 108 108"><defs><style>.cls-1{isolation:isolate;}.cls-2{fill:gray;mix-blend-mode:multiply;}.cls-3{fill:#fff;}</style></defs><title>icones</title><g class="cls-1"><g id="rodapé_utilitários" data-name="rodapé utilitários"><rect class="cls-2" width="108" height="108" rx="9.75" ry="9.75"/><path class="cls-3" d="M54,42.1c.26-.38.5-.75.76-1.1a11.4,11.4,0,0,1,5-3.94,10,10,0,0,1,4.49-.65A9.88,9.88,0,0,1,70,38.74a9.75,9.75,0,0,1,3.36,5.94,15.48,15.48,0,0,1,.08,3.7,17.13,17.13,0,0,1-.65,3.75A14.84,14.84,0,0,1,70,57.31a36.65,36.65,0,0,1-4.23,4.28c-2.33,2.06-4.68,4.08-7,6.14-1.57,1.39-3.1,2.83-4.65,4.25l-.14.13-.67-.63c-2.48-2.34-5-4.58-7.61-6.81-2-1.73-4-3.44-5.9-5.32a21.08,21.08,0,0,1-3.32-4.13,14.35,14.35,0,0,1-1.8-5.11A21.23,21.23,0,0,1,34.46,46a9.75,9.75,0,0,1,6.23-8.92,10.16,10.16,0,0,1,10.8,2,12,12,0,0,1,2.4,2.86Z"/></g></g></svg>