<svg xmlns="http://www.w3.org/2000/svg" xmlns:xlink="http://www.w3.org/1999/xlink" viewBox="0 0 280 280"><defs><style>.cls-1{fill:#ccc;}.cls-2{fill:#fff;}.cls-3{fill:url(#linear-gradient);}</style><linearGradient id="linear-gradient" x1="139.87" y1="63.22" x2="139.87" y2="220.56" gradientUnits="userSpaceOnUse"><stop offset="0" stop-color="#03c6ff"/><stop offset="1" stop-color="#0370ff"/></linearGradient></defs><title>icones</title><g id="pop-ups"><rect class="cls-1" x="-0.25" y="-0.25" width="280.25" height="280.25" rx="46.97" ry="46.97"/><rect class="cls-2" x="5.49" y="5.49" width="268.77" height="268.77" rx="41.23" ry="41.23"/><path class="cls-3" d="M139.88,63.9c-41.2,0-74.59,31.58-74.59,70.54,0,21.85,10.51,41.38,27,54.32V215.1l25.39-13.3a78.52,78.52,0,0,0,22.2,3.18c41.2,0,74.59-31.58,74.59-70.54S181.07,63.9,139.88,63.9Z"/><polygon class="cls-2" points="90.26 158.4 128.06 138.15 147.64 159.08 188.14 114.52 150.34 134.78 130.76 115.2 90.26 158.4"/></g></svg>