<svg xmlns="http://www.w3.org/2000/svg" viewBox="0 0 407 407"><defs><style>.cls-1{fill:#f9a51a;}.cls-2{fill:#fff;}</style></defs><title>icones</title><g id="header"><polyline class="cls-1" points="0 0 407 0 0 407"/><path class="cls-2" d="M96.52,259.82l-8.58-8.58.25-51.93c-.08-4.67-1.44-8.24-3.91-10.71a10.39,10.39,0,0,0-14.79.34c-4.42,4.42-4.25,11.73.59,16.57L58.36,217.24a27,27,0,0,1-8.24-19.8,26.68,26.68,0,0,1,8.16-19.89,26.38,26.38,0,0,1,19-8.16,24.6,24.6,0,0,1,18.78,7.39c5.35,5.35,8,13.09,7.82,22.95l-.08,29,23.12-23.12,11.9,11.9Z"/><path class="cls-2" d="M114.79,182.23c-6.37-6.37-10.45-10.62-12.07-12.58a27.32,27.32,0,0,1-5.87-20.14A33.33,33.33,0,0,1,126.35,120a27.48,27.48,0,0,1,20.23,5.78c2,1.62,6.2,5.69,12.58,12.07s10.54,10.71,12.15,12.66a27.48,27.48,0,0,1,5.78,20.23,31.21,31.21,0,0,1-9.52,19.89,31.52,31.52,0,0,1-20,9.6,27.32,27.32,0,0,1-20.14-5.87C125.5,192.76,121.25,188.69,114.79,182.23Zm40.88-3.48c4.67-4.67,5.18-11.64,1.1-16.57q-1.78-2.29-10.71-11.22c-5.69-5.69-9.26-9.09-10.71-10.37a12.68,12.68,0,0,0-17.85,17.85c1.27,1.44,4.67,5,10.37,10.71q8.92,8.92,11.22,10.71C144,183.93,151,183.42,155.67,178.74Z"/><path class="cls-2" d="M173.78,114.4a18.87,18.87,0,0,1-13.43,5.78,18.29,18.29,0,0,1-18.53-18.53,18.88,18.88,0,0,1,5.78-13.43,18.6,18.6,0,0,1,13.34-5.69,18,18,0,0,1,18.53,18.53A18.59,18.59,0,0,1,173.78,114.4Zm-8.92-17.25a6.17,6.17,0,0,0-8.67-.34,6.09,6.09,0,0,0,.34,8.67c2.63,2.63,6.29,2.72,8.67.34A6.17,6.17,0,0,0,164.85,97.15Zm33.66,60.68L179.64,58.23,191.2,46.67l18.87,99.61Zm17.08-41.22a17.56,17.56,0,0,1-5.27-13.26,18.88,18.88,0,0,1,5.78-13.43,18.6,18.6,0,0,1,13.34-5.7A18.29,18.29,0,0,1,248,102.76a18.59,18.59,0,0,1-5.69,13.34,18.87,18.87,0,0,1-13.43,5.78A17.55,17.55,0,0,1,215.59,116.61Zm18.1-9.09a6.38,6.38,0,1,0-8.75-.25C227.58,109.9,231.23,110,233.7,107.52Z"/><path class="cls-2" d="M36.44,156.54l-9.26-9.27,2.56-2.56,20.19,20.19c1.52,1.52,2.52,1.83,3.49.86a12.36,12.36,0,0,0,.83-1l1.94,1.94a6.07,6.07,0,0,1-1.35,1.9A4.52,4.52,0,0,1,52.52,170a4.84,4.84,0,0,1-3.67-1.31c.73,3.35-.34,6.5-3.25,9.4a11.82,11.82,0,0,1-8.88,3.63,13,13,0,0,1-9.16-4,12.88,12.88,0,0,1-4-9.13,11.86,11.86,0,0,1,3.6-8.92C30.29,156.47,33.68,155.78,36.44,156.54Zm9.47,12.58a9.68,9.68,0,0,0-3-6.78,9.48,9.48,0,0,0-6.74-3,8.54,8.54,0,0,0-6.6,2.66A8.27,8.27,0,0,0,27,168.47a9.79,9.79,0,0,0,3.11,6.64,10,10,0,0,0,6.67,3.15,8.4,8.4,0,0,0,6.43-2.56A8.67,8.67,0,0,0,45.91,169.13Z"/><path class="cls-2" d="M49,156.33a13.21,13.21,0,0,1-4.29-9.2,11.79,11.79,0,0,1,3.7-8.82,10.29,10.29,0,0,1,8.3-3.25,12.56,12.56,0,0,1,8.4,3.91c.38.38.76.76,1.07,1.14L52.07,154.26c4,3.7,8.88,3.7,12.51.07a9.28,9.28,0,0,0,2.94-7.78l3.35,0a12.82,12.82,0,0,1-4,10.13,12.24,12.24,0,0,1-8.82,3.91,12.43,12.43,0,0,1-8.92-4.08Zm12.24-15.76a6.88,6.88,0,0,0-5.18-2.07,7.35,7.35,0,0,0-5.25,2.21,8.56,8.56,0,0,0-2.59,5.64,7.35,7.35,0,0,0,1.76,5.5Z"/><path class="cls-2" d="M73.71,139.74c1.94,1,4.63.62,7-1.76,2.87-2.87,2.52-5.15,1.18-6.5a3.15,3.15,0,0,0-2.94-1,25.36,25.36,0,0,0-5,1.73c-4.42,1.94-7.29,2.18-9.82-.35s-2.42-6.78.66-9.85a7.38,7.38,0,0,1,8.05-2l-1,3.15a4.41,4.41,0,0,0-4.67,1.21c-1.62,1.63-1.9,3.56-.48,5s3.32,1,6.95-.66c5-2.21,8.19-2.39,10.85.28s2.8,7.29-1.35,11.44c-3.32,3.32-7.4,4.36-10.75,2.39Z"/><path class="cls-2" d="M91.58,100.43l.24,3.35a9.58,9.58,0,0,0-7.09,3,9.07,9.07,0,0,0-2.83,6.78,9.32,9.32,0,0,0,3,6.78,9.51,9.51,0,0,0,6.81,3,9.21,9.21,0,0,0,6.74-2.87,9.58,9.58,0,0,0,3-7.09l3.35.24a12.38,12.38,0,0,1-4,9.23,12.73,12.73,0,0,1-9.2,3.94,13.28,13.28,0,0,1-13.17-13.17,12.76,12.76,0,0,1,3.91-9.23A12.38,12.38,0,0,1,91.58,100.43Z"/><path class="cls-2" d="M99.85,105.38A12.46,12.46,0,0,1,96,96.11,13.35,13.35,0,0,1,109.11,83a13.28,13.28,0,0,1,13.17,13.17,13.47,13.47,0,0,1-13.14,13.14A12.57,12.57,0,0,1,99.85,105.38Zm2.56-2.56a9.51,9.51,0,0,0,6.81,3,9.8,9.8,0,0,0,9.61-9.61,9.51,9.51,0,0,0-3-6.81,9.33,9.33,0,0,0-6.78-3A9.68,9.68,0,0,0,99.43,96,9.32,9.32,0,0,0,102.4,102.82Z"/><path class="cls-2" d="M130.27,92.38,112.84,75l2.56-2.56,2.94,2.94a8.27,8.27,0,0,1,2.28-8.71c3.91-3.91,9-3.77,12.93.21L140.74,74c1.42,1.42,2,1.63,3,.62a8.94,8.94,0,0,0,.59-.73L146.48,76a4.57,4.57,0,0,1-.93,1.28c-1.35,1.35-3.7,2.94-7.19-.55l-6.81-6.81c-2.9-2.9-6.43-3-9.2-.28a6.57,6.57,0,0,0,.07,9.75l10.41,10.41Z"/><path class="cls-2" d="M134.8,57.77l-2,2-2.39-2.39,2-2-6.67-6.67,2.56-2.56L135,52.83l4-4,2.39,2.39-4,4,10.16,10.16c2.21,2.21,3.73,2.28,5.43.59a15,15,0,0,0,1.52-1.73l2.21,2.21A7.15,7.15,0,0,1,155,68.66q-4.67,4.67-10.06-.73Z"/><path class="cls-2" d="M149.56,55.66a12.46,12.46,0,0,1-3.87-9.27,13.35,13.35,0,0,1,13.14-13.14,12.47,12.47,0,0,1,9.26,3.87,12.58,12.58,0,0,1,3.91,9.3,13.47,13.47,0,0,1-13.14,13.14A12.58,12.58,0,0,1,149.56,55.66Zm2.56-2.56a9.52,9.52,0,0,0,6.81,3,9.8,9.8,0,0,0,9.61-9.61,9.51,9.51,0,0,0-3-6.81,9.32,9.32,0,0,0-6.78-3,9.68,9.68,0,0,0-9.61,9.61A9.32,9.32,0,0,0,152.12,53.1Z"/></g></svg>