<svg xmlns="http://www.w3.org/2000/svg" viewBox="0 0 252 252"><defs><style>.cls-1{fill:#ccc;}.cls-2{fill:#fff;}.cls-3{fill:#ffb819;}.cls-4{fill:#0071ce;}</style></defs><title>icones</title><g id="utilitários_e_qrcode" data-name="utilitários e qrcode"><rect class="cls-1" width="252" height="252" rx="42.23" ry="42.23"/><rect class="cls-2" x="5.16" y="5.16" width="241.68" height="241.68" rx="37.07" ry="37.07"/><path class="cls-3" d="M204.87,121.75a2.05,2.05,0,0,0,2.17-1.34l1.11-12.54c0-1.24-1.45-2.26-3.28-2.26s-3.27,1-3.27,2.26l1.11,12.54a2,2,0,0,0,2.17,1.34Z"/><path class="cls-3" d="M198.09,125.67a2,2,0,0,0-.07-2.55l-10.3-7.23c-1.07-.62-2.68.13-3.59,1.71s-.75,3.34.32,4l11.41,5.31a2.06,2.06,0,0,0,2.25-1.21Z"/><path class="cls-3" d="M211.65,125.66a2.06,2.06,0,0,0,2.24,1.21l11.41-5.31c1.07-.62,1.23-2.38.32-4s-2.52-2.33-3.59-1.71l-10.3,7.23a2.05,2.05,0,0,0-.07,2.55Z"/><path class="cls-3" d="M204.87,137.41a2.05,2.05,0,0,1,2.17,1.33l1.11,12.54c0,1.24-1.45,2.26-3.28,2.26s-3.27-1-3.27-2.26l1.11-12.54a2,2,0,0,1,2.17-1.33Z"/><path class="cls-3" d="M211.65,133.5a2.05,2.05,0,0,1,2.24-1.21l11.41,5.31c1.07.62,1.23,2.39.32,4s-2.52,2.32-3.59,1.71L211.72,136a2.06,2.06,0,0,1-.07-2.55Z"/><path class="cls-3" d="M198.09,133.49A2.05,2.05,0,0,1,198,136l-10.3,7.22c-1.07.62-2.68-.13-3.59-1.71s-.75-3.35.32-4l11.41-5.31a2.05,2.05,0,0,1,2.25,1.21Z"/><path class="cls-4" d="M145.51,131c0-4.73-2-8.9-8.85-8.9a16.19,16.19,0,0,0-7.81,1.86l1.11,3.8a11.44,11.44,0,0,1,5.7-1.6c3.47,0,4,2,4,3.23v.3c-7.56,0-12.33,2.6-12.33,7.93A6.29,6.29,0,0,0,134,144a7.57,7.57,0,0,0,6.08-2.7h.13s.86,3.61,5.62,2.23a30.51,30.51,0,0,1-.33-5Zm-5.64,5a3.69,3.69,0,0,1-4,3.8,2.58,2.58,0,0,1-2.8-2.76c0-2.87,3.16-3.66,6.75-3.64Z"/><path class="cls-4" d="M27.8,115.68s4.94,20.23,5.72,23.51c.92,3.83,2.58,5.24,7.35,4.29L44,130.94c.78-3.12,1.31-5.34,1.81-8.51h.09a83.12,83.12,0,0,0,1.5,8.52s1.25,5.69,1.9,8.68,2.44,4.87,7.12,3.85l7.35-27.81H57.78l-2.51,12c-.67,3.5-1.29,6.23-1.76,9.43h-.08c-.43-3.17-1-5.8-1.66-9.2l-2.61-12.25H43l-2.79,11.94c-.79,3.63-1.53,6.56-2,9.65H38.1c-.48-2.91-1.12-6.6-1.82-10.11,0,0-1.66-8.54-2.24-11.49Z"/><path class="cls-4" d="M80.57,131c0-4.73-2-8.9-8.85-8.9A16.18,16.18,0,0,0,63.9,124l1.11,3.8a11.45,11.45,0,0,1,5.7-1.6c3.47,0,4,2,4,3.23v.3c-7.56,0-12.33,2.6-12.33,7.93A6.29,6.29,0,0,0,69.07,144a7.57,7.57,0,0,0,6.08-2.7h.13s.86,3.61,5.62,2.23a30.53,30.53,0,0,1-.33-5Zm-5.64,5a3.69,3.69,0,0,1-4,3.8,2.58,2.58,0,0,1-2.8-2.76c0-2.87,3.16-3.66,6.75-3.64Z"/><polygon class="cls-4" points="89.98 137.58 89.98 115.68 84.33 115.68 84.33 143.48 89.98 143.48 89.98 137.58"/><path class="cls-4" d="M163.86,115.68v20.51c0,2.83.53,4.81,1.67,6a6.26,6.26,0,0,0,4.6,1.74,13.42,13.42,0,0,0,4.09-.61l-.07-4.41a8.6,8.6,0,0,1-2.14.25c-1.92,0-2.57-1.23-2.57-3.77v-7.85h4.92v-5.32h-4.92v-6.58Z"/><path class="cls-4" d="M149.28,122.59v20.89h5.83v-10.7a8,8,0,0,1,.13-1.54,4.4,4.4,0,0,1,4.6-3.67,10.65,10.65,0,0,1,1.68.15v-5.47a5.62,5.62,0,0,0-1.28-.13,6.15,6.15,0,0,0-5.68,4.41h-.16v-3.94Z"/><path class="cls-4" d="M93.93,122.59v20.89h5.68V131.23a4.9,4.9,0,0,1,.27-1.71,3.84,3.84,0,0,1,3.45-2.68c2.29,0,3.36,1.94,3.36,4.73v11.91h5.67v-12.4a5.81,5.81,0,0,1,.24-1.69,3.58,3.58,0,0,1,3.41-2.54c2.32,0,3.44,1.9,3.44,5.19v11.45h5.67v-12.3c0-6.49-3.29-9.06-7-9.06a7.56,7.56,0,0,0-4.12,1.13,8.79,8.79,0,0,0-2.65,2.6h-.08a6,6,0,0,0-5.76-3.74,6.57,6.57,0,0,0-6.08,3.31h-.08v-2.84Z"/><path class="cls-3" d="M227.71,142.21a1,1,0,1,1-1,1,1,1,0,0,1,1-1Zm0,.2a.78.78,0,0,0,0,1.55.74.74,0,0,0,.74-.78.75.75,0,0,0-.75-.78Zm-.15,1.28h-.22v-1a1.88,1.88,0,0,1,.37,0,.55.55,0,0,1,.34.08.27.27,0,0,1,.09.21.25.25,0,0,1-.2.23h0c.09,0,.15.11.18.24a.65.65,0,0,0,.07.24h-.24a.78.78,0,0,1-.08-.23c0-.11-.08-.15-.2-.15h-.11Zm0-.54h.11c.12,0,.22,0,.22-.14s-.07-.15-.21-.15h-.12Z"/></g></svg>