<svg xmlns="http://www.w3.org/2000/svg" viewBox="0 0 252 252"><defs><style>.cls-1{fill:#ccc;}.cls-2,.cls-5{fill:#fff;}.cls-3{fill:#1d1d1b;}.cls-3,.cls-4,.cls-5,.cls-6{fill-rule:evenodd;}.cls-4{fill:#ffec00;}.cls-6{fill:#009540;}</style></defs><title>icones</title><g id="utilitários_e_qrcode" data-name="utilitários e qrcode"><rect class="cls-1" width="252" height="252" rx="42.23" ry="42.23"/><rect class="cls-2" x="5.16" y="5.16" width="241.68" height="241.68" rx="37.07" ry="37.07"/><path class="cls-3" d="M122.12,180c.26-.54,1.49-3.79,1.67-4.06,0,0-.18-.53.6-.47a1.6,1.6,0,0,1,1.36,1.31c.28,1,.43,2.68.77,3.52a.35.35,0,0,1-.09.43c-.1.06-.28.1-.58-.15a1.58,1.58,0,0,1-.39-.86,4.19,4.19,0,0,0-2,0,7.83,7.83,0,0,1-.53,1.1c-.09.09-.21.11-.42,0s-.5-.4-.35-.76Zm3.11-1.22c-.08-.27-.18-1-.19-1.07a11.59,11.59,0,0,0-.29-1.25c0-.06,0,0,0,0s-.71,1.62-.89,2.16a5.05,5.05,0,0,1,1.41.15ZM137.28,180c.26-.54,1.49-3.79,1.67-4.06,0,0-.18-.53.6-.47a1.6,1.6,0,0,1,1.36,1.31c.28,1,.43,2.68.77,3.52a.35.35,0,0,1-.1.43c-.1.06-.28.1-.58-.15a1.58,1.58,0,0,1-.39-.86,4.19,4.19,0,0,0-2,0,7.81,7.81,0,0,1-.52,1.1c-.09.09-.21.11-.42,0s-.5-.4-.35-.76Zm3.11-1.22c-.08-.27-.18-1-.19-1.07a11.8,11.8,0,0,0-.29-1.25c0-.06,0,0,0,0s-.71,1.62-.89,2.16a5.06,5.06,0,0,1,1.41.15ZM163.47,180c.26-.54,1.49-3.79,1.67-4.06,0,0-.18-.53.6-.47a1.6,1.6,0,0,1,1.36,1.31c.28,1,.43,2.68.77,3.52a.35.35,0,0,1-.1.43c-.1.06-.28.1-.58-.15a1.58,1.58,0,0,1-.39-.86,4.19,4.19,0,0,0-2,0,7.74,7.74,0,0,1-.52,1.1c-.09.09-.21.11-.42,0s-.5-.4-.35-.76Zm3.11-1.22c-.08-.27-.18-1-.19-1.07a12,12,0,0,0-.29-1.25c0-.06,0,0,0,0s-.71,1.62-.89,2.16a5.06,5.06,0,0,1,1.41.15ZM102.92,180c.26-.54,1.49-3.79,1.67-4.06,0,0-.18-.53.6-.47a1.6,1.6,0,0,1,1.36,1.31c.28,1,.43,2.67.77,3.52a.35.35,0,0,1-.09.43c-.1.06-.28.1-.58-.15a1.58,1.58,0,0,1-.39-.86,4.2,4.2,0,0,0-2,0,7.94,7.94,0,0,1-.53,1.1c-.09.09-.21.11-.42,0s-.5-.4-.35-.76Zm3.11-1.21c-.08-.27-.18-1-.19-1.07a11.66,11.66,0,0,0-.29-1.25c0-.06,0,0,0,0s-.71,1.62-.89,2.16a5.07,5.07,0,0,1,1.41.16Zm-4.36-.54c-.07,1-.65,1.7-2.26,1.62.07-.49.11-3,.07-3.38.24,0,2.31,0,2.2,1.76Zm-3.12,1.55a.39.39,0,0,0-.11.7,3.18,3.18,0,0,0,1.77.21,2.39,2.39,0,0,0,1.87-.84,2.72,2.72,0,0,0,.23-2.62,3,3,0,0,0-2.25-1.54c-.65-.13-1.83-.08-2,.24s.13.46.47.62c0,.54,0,2.79,0,3.23Zm-31.69-1.55c-.07,1-.65,1.7-2.26,1.62.06-.49.11-3,.06-3.38.24,0,2.31,0,2.2,1.76Zm-3.12,1.55a.39.39,0,0,0-.11.7,3.18,3.18,0,0,0,1.77.21,2.39,2.39,0,0,0,1.87-.84,2.72,2.72,0,0,0,.23-2.62,3,3,0,0,0-2.25-1.54c-.65-.13-1.83-.08-2,.24s.13.46.47.62c0,.54,0,2.79,0,3.23ZM155,178.21c-.07,1-.65,1.7-2.26,1.62.07-.49.11-3,.07-3.38.24,0,2.31,0,2.2,1.76Zm-3.12,1.55a.39.39,0,0,0-.11.7,3.19,3.19,0,0,0,1.77.21,2.39,2.39,0,0,0,1.87-.84,2.72,2.72,0,0,0,.23-2.62,3,3,0,0,0-2.25-1.54c-.65-.13-1.83-.08-2,.24s.13.46.47.62c0,.54,0,2.79,0,3.23Zm-75.08,0a6,6,0,0,1-.11-1.13,2,2,0,0,0,.55,0l.77,0c.24,0,.5-.07.52-.26,0-.53-.19-.47-.51-.47-.09,0-.93,0-1.29,0,0-.08,0-1.08,0-1.35.19,0,1.46-.08,1.51-.08a.17.17,0,0,1,.13,0c.06,0,.65.35.58-.22s-1-.67-1.46-.67-1.5.09-1.73.1-.32,0-.3.22.15.29.39.53c0,.33,0,1.59,0,2.1a10.19,10.19,0,0,0,.08,1.06.44.44,0,0,0-.07.1c-.31.11,0,.68.43.83l2.06.09c.37,0,.91-.08.81-.42s-.36-.59-.61-.57-.25.13-.55.13-1,0-1.2,0ZM45,179.84a6.25,6.25,0,0,1-.11-1.16,2,2,0,0,0,.56,0l.78,0c.25,0,.51-.07.53-.27,0-.54-.2-.49-.52-.49-.09,0-.94,0-1.31,0,0-.08,0-1.12,0-1.4.2,0,1.49-.09,1.54-.09a.17.17,0,0,1,.13,0c.07,0,.66.36.59-.23s-1-.69-1.49-.69-1.53.09-1.76.1-.33,0-.31.23.15.3.39.55c0,.34,0,1.64,0,2.17a10.46,10.46,0,0,0,.08,1.1.44.44,0,0,0-.07.1c-.31.11,0,.7.44.86l2.1.1c.38,0,.93-.09.83-.43s-.37-.61-.62-.59-.26.13-.57.14-1.05,0-1.22,0Zm101,0a6.25,6.25,0,0,1-.11-1.16,2,2,0,0,0,.56,0l.79,0c.25,0,.51-.07.53-.27,0-.54-.2-.49-.52-.49-.09,0-.94,0-1.31,0,0-.08,0-1.12,0-1.4.2,0,1.49-.09,1.54-.09a.17.17,0,0,1,.13,0c.07,0,.66.36.59-.23s-1-.69-1.49-.69-1.53.09-1.76.1-.33,0-.31.23.15.3.39.55c0,.34,0,1.64,0,2.17a10.5,10.5,0,0,0,.08,1.1.45.45,0,0,0-.07.1c-.31.11,0,.7.44.86l2.1.1c.38,0,.93-.09.83-.43s-.37-.61-.62-.59-.26.13-.57.14-1.05,0-1.22,0Zm52.58,0a6.26,6.26,0,0,1-.11-1.16,2,2,0,0,0,.56,0l.78,0c.25,0,.51-.07.53-.27,0-.54-.2-.49-.52-.49-.09,0-.94,0-1.31,0,0-.08,0-1.12,0-1.4.2,0,1.49-.09,1.54-.09a.17.17,0,0,1,.13,0c.07,0,.66.36.59-.23s-1-.69-1.49-.69-1.53.09-1.76.1-.33,0-.31.23.15.3.4.55c0,.34,0,1.64,0,2.17a10,10,0,0,0,.08,1.1.45.45,0,0,0-.07.1c-.31.11,0,.7.44.86l2.1.1c.38,0,.93-.09.83-.43s-.37-.61-.62-.59-.26.13-.57.14-1.05,0-1.22,0Zm14,0a6.28,6.28,0,0,1-.11-1.16,2,2,0,0,0,.56,0l.78,0c.25,0,.51-.07.53-.27,0-.54-.2-.49-.52-.49-.09,0-.94,0-1.31,0,0-.08,0-1.12,0-1.4.2,0,1.49-.09,1.54-.09a.17.17,0,0,1,.13,0c.07,0,.66.36.59-.23s-1-.69-1.49-.69-1.53.09-1.76.1-.33,0-.31.23.15.3.39.55c0,.34,0,1.64,0,2.17a10.62,10.62,0,0,0,.08,1.1.41.41,0,0,0-.07.1c-.31.11,0,.7.44.86l2.1.1c.38,0,.92-.09.83-.43s-.37-.61-.62-.59-.26.13-.57.14-1.05,0-1.22,0Zm-28.1,0a6.25,6.25,0,0,1-.11-1.16,2,2,0,0,0,.56,0l.78,0c.25,0,.51-.07.53-.27,0-.54-.2-.49-.52-.49-.09,0-.94,0-1.31,0,0-.08,0-1.12,0-1.4.2,0,1.49-.09,1.54-.09a.17.17,0,0,1,.13,0c.07,0,.66.36.59-.23s-1-.69-1.49-.69-1.53.09-1.76.1-.33,0-.31.23.15.3.39.55c0,.34,0,1.64,0,2.17a10.4,10.4,0,0,0,.08,1.1.44.44,0,0,0-.07.1c-.31.11,0,.7.44.86l2.1.1c.38,0,.93-.09.83-.43s-.37-.61-.62-.59-.26.13-.57.14-1.05,0-1.22,0ZM80.16,175.93c0-.37.55-.46.91.05a.47.47,0,0,1,.11.26c0,.53.15,3.23.07,4.15,0,.12,0,.33-.21.34s-.41-.06-.76-.47a.53.53,0,0,1-.05-.41c.05-1.68-.06-3.41-.06-3.91Zm-11.48,0c0-.37.55-.46.91.05a.46.46,0,0,1,.11.26c0,.53.15,3.24.07,4.15,0,.12,0,.33-.21.34s-.41-.06-.76-.47a.54.54,0,0,1-.05-.41c.05-1.68-.06-3.41-.06-3.92Zm51.35,0c0-.37.55-.46.91.05a.46.46,0,0,1,.11.26c0,.53.15,3.23.07,4.15,0,.12,0,.33-.21.34s-.41-.06-.76-.47a.54.54,0,0,1-.05-.41c.06-1.68-.06-3.41-.06-3.91Zm-35.37.62c0,.91.12,3,.05,3.81,0,.12,0,.33-.21.34s-.41-.06-.76-.47a.54.54,0,0,1-.05-.41c0-1.21,0-2.45,0-3.23-.28,0-.76,0-.88,0a.65.65,0,0,1-.4-.14,1,1,0,0,1-.38-.64c0-.28.54-.15,1.32-.22a10.79,10.79,0,0,1,1.85,0,1.12,1.12,0,0,1,.49.17.73.73,0,0,1,.29.58c0,.29-.35.2-.52.19l-.75,0Zm124.67,0c0,.91.12,3,.05,3.81,0,.12,0,.33-.21.34s-.41-.06-.76-.47a.54.54,0,0,1-.05-.41c0-1.21,0-2.45,0-3.23-.28,0-.76,0-.88,0a.65.65,0,0,1-.4-.14,1,1,0,0,1-.38-.64c0-.28.54-.15,1.32-.22a10.78,10.78,0,0,1,1.85,0,1.12,1.12,0,0,1,.49.17.73.73,0,0,1,.29.58c0,.29-.35.2-.52.19l-.75,0ZM40.78,179.11c0,.45,0,1,0,1.3s0,.33-.21.34-.41-.06-.76-.47a.73.73,0,0,1-.06-.48c0-1.18,0-2.18,0-3-.27-.12-.71-.53-.44-.86a2.81,2.81,0,0,1,1.81-.43c.78.05,2.14.4,2.19,1.58,0,1.33-2,2-2.51,2.06Zm1.52-2.23c-.16-.64-1.12-.48-1.6-.43,0,.39,0,1.07.06,1.77,1-.21,1.7-.7,1.54-1.34Zm31.95,2.82c.19.25.3.45.61.51s0,.65-.53.6-1.22-1.21-1.65-1.74a1.74,1.74,0,0,1-.49.12c0,.45,0,1,0,1.3s0,.33-.21.34-.41-.06-.76-.47a.73.73,0,0,1-.06-.48c0-1.18,0-2.18,0-3-.27-.12-.71-.53-.44-.86a2.81,2.81,0,0,1,1.81-.43c.78.06,2.14.41,2.19,1.58a1.82,1.82,0,0,1-1.06,1.53,6.54,6.54,0,0,0,.61,1ZM73.7,177c-.16-.64-1.12-.48-1.6-.43,0,.39,0,1.07.06,1.77,1-.21,1.7-.7,1.54-1.34Zm44.69,2.68c.19.25.3.45.61.51s0,.65-.53.6-1.22-1.21-1.65-1.74a1.72,1.72,0,0,1-.49.12c0,.45,0,1,0,1.3s0,.33-.21.34-.41-.06-.76-.47a.73.73,0,0,1-.06-.48c0-1.18,0-2.18,0-3-.27-.12-.71-.53-.44-.86a2.81,2.81,0,0,1,1.81-.43c.78.06,2.14.41,2.19,1.58a1.82,1.82,0,0,1-1.06,1.53,6.52,6.52,0,0,0,.61,1Zm-.54-2.74c-.16-.64-1.12-.48-1.6-.43,0,.39,0,1.07.06,1.77,1-.21,1.7-.7,1.53-1.34Zm-69.59,2.84a23.22,23.22,0,0,1,0-3.88c0-.39.57-.48.94,0a.55.55,0,0,1,.13.32,18.08,18.08,0,0,0,.09,3.6c.17,0,.71,0,1,0s.36-.12.57-.14.52.24.62.59-.45.44-.83.43l-2.15-.09c-.35,0-.77-.67-.36-.92Zm131.08,0a23.16,23.16,0,0,1,0-3.88c0-.39.57-.48.94,0a.55.55,0,0,1,.13.32,18,18,0,0,0,.09,3.6c.17,0,.71,0,1,0s.36-.12.57-.14.52.24.62.59-.45.44-.83.43l-2.15-.09c-.35,0-.76-.67-.36-.92Zm-52-3.54a12,12,0,0,1,.08,2.67c0,.36-.06,1-.08,1.21a.79.79,0,0,0,.51.68c.26.1.52.06.53-.21s.14-2.53.09-3a11.62,11.62,0,0,0,1.62,2.35,8,8,0,0,0,.68.66c.32.27.87.2.87-.19s0-3.94,0-4.14a.76.76,0,0,0-.62-.72c-.44-.09-.41.28-.41.37,0,.34,0,3,0,3.42-.53-.43-1.68-2.79-2.44-3.41-.4-.33-.67-.15-.7-.08s-.17.07-.11.38Zm74.34,0a12,12,0,0,1,.08,2.67c0,.36-.06,1-.08,1.21a.79.79,0,0,0,.51.68c.26.1.52.06.53-.21s.14-2.53.09-3a11.59,11.59,0,0,0,1.62,2.35,7.91,7.91,0,0,0,.68.66c.32.27.87.2.87-.19s0-3.94,0-4.14a.76.76,0,0,0-.62-.72c-.44-.09-.41.28-.41.37,0,.34,0,3,0,3.42-.53-.43-1.68-2.79-2.44-3.41-.4-.33-.67-.15-.7-.08s-.17.07-.11.38Zm-149,2.07c.05-1,.64-2.08,1.25-2.06s1.18.71,1.13,2.11-.81,1.88-1.29,1.88-1.09-.63-1.09-1.94Zm1.42,2.49c.88,0,2-.56,2-2.56a2.36,2.36,0,0,0-1.55-2.44,2.08,2.08,0,0,0-1.11-.33c-.91,0-1.85,1.17-1.85,2.73,0,2.29,1.5,2.6,2.51,2.59Zm141.27-1.49a1.29,1.29,0,0,1-1.11.92c-.49,0-1.1-.63-1.1-2,.05-1,.65-2.09,1.26-2.07.44,0,.86.35,1,1.09.11.44,1.24.62,1,0a2.36,2.36,0,0,0-.87-1.35,2.63,2.63,0,0,0-1.69-.49c-1,0-1.87,1.18-1.87,2.75,0,2.3,1.51,2.62,2.53,2.61a1.9,1.9,0,0,0,1.87-1.42c.23-.91-1-.35-1.1-.06Zm-82.32,0a1.29,1.29,0,0,1-1.11.92c-.49,0-1.09-.63-1.09-2,.05-1,.65-2.09,1.26-2.07.44,0,.86.35,1,1.09.11.44,1.25.62,1,0a2.35,2.35,0,0,0-.87-1.35,2.63,2.63,0,0,0-1.69-.49c-1,0-1.87,1.18-1.87,2.75,0,2.3,1.51,2.62,2.53,2.61a1.9,1.9,0,0,0,1.87-1.42c.23-.91-1-.35-1.1-.06Zm22.65,0a1.28,1.28,0,0,1-1.11.91c-.48,0-1.09-.63-1.09-1.94.05-1,.64-2.08,1.25-2.06.44,0,.85.35,1,1.08.11.44,1.24.62,1,0a2.35,2.35,0,0,0-.87-1.34,2.62,2.62,0,0,0-1.67-.49c-1,0-1.85,1.17-1.85,2.73s.74,2.23,1.52,2.46a1.62,1.62,0,0,0-.27.62c0,.13,0,.16.28.2s.33-.09.32-.11.09-.18.19-.3a3.52,3.52,0,0,0,.23-.29h.23a1.88,1.88,0,0,0,1.86-1.41c.23-.91-1-.35-1.09-.06Zm-77.39,1.45a3.58,3.58,0,0,1-1.14-.21c-.41-.16-.65-.37-.68-.68s.21-.39.63-.32c.58.09.71.29,1.14.31a1,1,0,0,0,.78-.22.64.64,0,0,0,.17-.52c-.25-.82-2.78-1.29-2.67-2.48,0-.51.91-1.06,1.66-1.1,1.13-.07,2.15.54,2,1-.07.19-.58.18-.89.07l-.57-.19a1.68,1.68,0,0,0-.76-.1c-.56.18-.28.71.39,1.1.44.26.86.53,1.12.69a2.64,2.64,0,0,1,.67.57,1.11,1.11,0,0,1-.18,1.62,1.93,1.93,0,0,1-1.06.46,4,4,0,0,1-.62,0Zm29.17-2.39c.05-1,.64-2.08,1.25-2.05s1.18.71,1.13,2.11-.81,1.88-1.29,1.88-1.09-.63-1.09-1.94Zm1.42,2.49c.88,0,2-.56,2-2.56a2.36,2.36,0,0,0-1.55-2.44,2.07,2.07,0,0,0-1.11-.33c-.91,0-1.85,1.17-1.85,2.73,0,2.29,1.5,2.6,2.51,2.59Zm68.61-2.54c.05-1,.64-2.08,1.25-2.05s1.18.71,1.13,2.11-.81,1.88-1.29,1.88-1.09-.63-1.09-1.94Zm1.42,2.49c.88,0,2-.56,2-2.56a2.36,2.36,0,0,0-1.55-2.44,2.08,2.08,0,0,0-1.11-.33c-.91,0-1.85,1.17-1.85,2.73,0,2.29,1.5,2.6,2.51,2.59Zm13.4-2.56c-.07,1-.65,1.7-2.26,1.62.07-.49.11-3,.07-3.38.24,0,2.31,0,2.2,1.76Zm-3.12,1.55a.39.39,0,0,0-.11.7,3.18,3.18,0,0,0,1.77.21,2.39,2.39,0,0,0,1.87-.84,2.72,2.72,0,0,0,.23-2.62,3,3,0,0,0-2.25-1.54c-.65-.13-1.83-.08-2,.24s.13.46.47.62c0,.54,0,2.79,0,3.23Zm5.78-1.48c.05-1,.64-2.08,1.25-2.05s1.18.71,1.13,2.11-.81,1.88-1.29,1.88-1.09-.63-1.09-1.94Zm1.42,2.49c.88,0,2-.56,2-2.56a2.36,2.36,0,0,0-1.55-2.44,2.08,2.08,0,0,0-1.11-.33c-.91,0-1.85,1.17-1.85,2.73,0,2.29,1.5,2.6,2.51,2.59Zm-83.3-.08a3.59,3.59,0,0,1-1.14-.21c-.41-.16-.65-.37-.68-.68s.22-.39.63-.32c.58.09.71.29,1.14.31a1,1,0,0,0,.78-.22.64.64,0,0,0,.17-.52c-.25-.82-2.78-1.29-2.67-2.48,0-.51.91-1.06,1.66-1.1,1.13-.07,2.15.54,2,1-.07.19-.58.18-.89.07l-.57-.19a1.68,1.68,0,0,0-.76-.1c-.56.18-.28.71.39,1.1.44.26.86.53,1.12.69a2.63,2.63,0,0,1,.67.56,1.11,1.11,0,0,1-.18,1.62,1.94,1.94,0,0,1-1.06.46,4,4,0,0,1-.62,0Zm96.21,0a3.59,3.59,0,0,1-1.14-.21c-.41-.16-.65-.37-.68-.68s.22-.39.63-.32c.58.09.71.29,1.14.31a1,1,0,0,0,.77-.22.63.63,0,0,0,.17-.52c-.25-.82-2.78-1.29-2.67-2.48,0-.51.91-1.06,1.66-1.1,1.13-.07,2.15.54,2,1-.07.19-.58.18-.89.07l-.57-.19a1.68,1.68,0,0,0-.76-.1c-.56.18-.28.71.39,1.1.44.26.86.53,1.12.69a2.64,2.64,0,0,1,.67.56,1.11,1.11,0,0,1-.18,1.62,1.94,1.94,0,0,1-1.06.46,4,4,0,0,1-.62,0Z"/><path class="cls-3" d="M101.12,76.94a236.15,236.15,0,0,1,24-18.6c.32-.22,2.94,1.18,4.12,2,13.33,5.49,24.13,10.26,38.64,15.16a1.21,1.21,0,0,1,.32,1.48c-2.38,3.9-5.56,6.67-8.3,9.8,8.75.25,22.35.56,30.58.56.78,0,.33-1.83,1.7-2.29,1.12-.37,1.59.91,1.59,2.09.39.78,2.28.31,2.28,1.1,0,1.57-2.37.86-2.54,1.72-.43,2.27-.6,8.79-.66,13.9,0,.19.15,8.89.31,8.89a11.94,11.94,0,0,1,4.79,1.54c1.2.95,1.64,2.65-.38,4.1a2.72,2.72,0,0,1,1.13,2.18c0,1.39-.93,1.46-1,1.89-.17.9.69,1.09.69,2.14,0,2-2.3,1.88-1.39,3,.72.85.3,2.55-.69,3.4a6.84,6.84,0,0,1-4,1.31s0,1.26,0,1.66a203.48,203.48,0,0,0-.17,30.92c-1.5.46-4.18-.13-5.88-.13-.39,0-9.61-.1-10.92-.1-20.39-1.7-34,.36-55.42-2.39a72,72,0,0,0-7.45-.08c-13.67-.1-33.23,0-38.53.28a66.17,66.17,0,0,0-7.31.88c-1.57.78-4.61.88-5-.29-.39-5.49-.8-17.18-1.19-23.16a13.54,13.54,0,0,0,0-2.33,3.18,3.18,0,0,1-3.33-1.27c-.82-1.2.34-2.4.34-3.57,0-.78-1.21-.77-1.42-2.31-.12-.88.86-1.75.29-2.45a2.66,2.66,0,0,1-.78-2.45c.12-.73,1.38-1.69,1.38-1.69s-2.71-2.27-.15-4.72c1.26-1.21,2.5-1,2.94-1.57,2-2.35-1.23-23-.83-28.73.06-.88-1.18-1.18-2-1.57-.39-.39.4-1.49.78-1.57a10.87,10.87,0,0,1,4.31.59c2.78.77,8.55.05,10.84-.2,6.37-.69,12.54,0,17.25-.39a8.54,8.54,0,0,0,2.16-.69c2.35-1.47,5.69-5.2,8.82-7.94Z"/><path class="cls-4" d="M114.85,67.53c-9.36,8.19-17.58,15-26.27,22.74-.66.58,1.19,1.73,2.16,2.06,9.31,3.14,16.42,6.69,25.83,10.22,2.75.78,5.49,2.35,8.23,3.14.78,0,3.29,1.34,4.05,1.57,2.22.65,3.72,2.1,5,1.06,10.2-8.23,17.84-16.08,26.86-24.31,1.57-2,3.14-3.53,4.71-5.49V76.94c-2-2.75-5.49-2.75-8.23-3.92a7.27,7.27,0,0,0-2.75-.78,37.2,37.2,0,0,0-8.23-3.53c-4.31-2-8.63-2.75-12.55-5.1-2-.78-3.53-1.18-5.1-2a5.84,5.84,0,0,0-4.71-.39,46.54,46.54,0,0,0-9,6.27Z"/><path class="cls-3" d="M127.27,68.84c1.57.09,3.7.46,5.23.65,3.14.39,6.67,3.14,9.8,5.49,3.92,3.92,5.29,11.18,3.43,15.78-3.47,8.59-18.33,10.75-28.53,8.4a16.54,16.54,0,0,1-10.59-7.32c-.78-2-1.67-4.31-.88-6.27.39-1.18.49-1.76.88-2.94,1.57-2.74,2.35-5.29,5.1-7.65a40.58,40.58,0,0,1,9-6.27c4.31-2,4.18,0,6.54.13Z"/><path class="cls-5" d="M132.36,72.1c-4.36-1-9-2-12.29-.78-5.95,2.14-11.7,8.56-12.68,14.25-1.1,6.39,4.67,12.55,12.94,12.55,0,0,1.93.48,2.48.52,3.4.26,5.23.39,8-.39a17.93,17.93,0,0,0,4.44-.91c3.92-1.57,7.45-3.92,8.63-7.84,2.74-8.63-2.88-15.42-11.5-17.38Z"/><path class="cls-3" d="M123.47,77.33c.5.25.52,1.76.13,2.16a1.5,1.5,0,0,1-2-.78c-.39-1.18,1.11-1.76,1.89-1.37Z"/><path class="cls-3" d="M116.68,85c-.27,1.59-1.93,4,.13,4.44,5.75,1.24,12,1.83,17.12.59,2.41-.58,3.27-2.55,3.27-5.29H138c.78,3.14-1.12,6.4-3.86,6.4-5.88.39-12.78,1.44-18.49-1.31-1.76-.85-2-3.53-.78-5.1.39,0,1.89-.13,1.83.26Z"/><path class="cls-6" d="M170.71,89.07c-4.54-.19-9.2.42-13.51,0-9,8.23-16.08,15.88-24.7,22.74-.43.34-1.16-2-1.94-2.36-1.57-.78-4.45-1.44-6.41-2.22-13.33-4.71-25.75-10.59-38.71-15.41-.52-.19-1.57-1.18-1.18-1.18a18.91,18.91,0,0,0,5.1-3.33l-3.14.2c-7.55.33-15.07.74-25.25,1.67a38.66,38.66,0,0,0,1.18,9.41c.7,3.16-.25,13.24.11,16.32,0,.36-.34,2,0,2s2.44,0,3,1.36c.63,1.57-1,3-1,3s3.09-.25,3.61,1.89a3.21,3.21,0,0,1-1,2.87,3.62,3.62,0,0,1,.72,2.46c-.16,1.5-2.3,2.8-2.3,2.8a2.32,2.32,0,0,1,1.45,2.36c0,2.33-4.05,2.59-4.35,3.47,0,0-.1,5.07,0,7.53.13,3.16.57,15,1.16,16.3,4.31-.39,11.24-.69,15.55-.69,11.23-.38,22.42-.32,33.6,0,23.13,1.12,52.81,2.17,77,2.17,0-4.5.18-19.61.19-27.82a18.5,18.5,0,0,0-.06-2.68,4.34,4.34,0,0,1-2.71-2.08,1.93,1.93,0,0,1,.69-2.84s-2.08-.95-1.49-2.75a3.48,3.48,0,0,1,2.35-2s-1.74-1-1.68-2.41c.1-2.2,2.86-2.62,2.72-2.68-1.9-.94-2.6-3.21,0-4,.31-.1.88-.18.88-.5,0-4.18.69-19,0-23-5.47,0-15.87-.48-19.88-.65Z"/><path class="cls-5" d="M61.87,118.75c-.49.1-2.46.69-3.53,1-1.51.44-.82,2.46-.06,2.52,1.29.11,4.12-.57,5.23-2.39.46-.75-.78-1.31-1.64-1.13Z"/><path class="cls-5" d="M62.63,123.67c-1.79.89-3.57.75-5,1.83a.93.93,0,0,0,.15,1.5c1.68.84,6.76-.49,8.63-2.35.62-.62-.14-1.92-1.27-1.79a7.81,7.81,0,0,0-2.46.82Z"/><path class="cls-5" d="M61.07,128.56c-2.22.65-3.23.78-2.85,2,.51,1.68,7.06.32,7.64-2,.64-2.55-3.24-.51-4.79-.05Z"/><path class="cls-5" d="M60.38,133.36c-1.14.28-1.69.51-2,1.18-.61,1.5,2,1.65,2.76,1.29,2-.88,4-.9,3.61-2.47-.29-1.18-2.84-.39-4.41,0Z"/><path class="cls-5" d="M91.38,152.59c.84-1.84,4.8-12.9,5.37-13.79,0-.1-.57-1.81,1.92-1.59,1.21.12,3.39,1,4.36,4.46.91,3.27,1.39,9.09,2.48,12a1.25,1.25,0,0,1-.31,1.46c-.33.22-.91.34-1.87-.52-.71-.64-.89-1.53-1.25-2.92a12.79,12.79,0,0,0-6.54-.14,26.44,26.44,0,0,1-1.68,3.76c-.29.29-.69.38-1.36-.12-.9-.67-1.6-1.35-1.12-2.57Zm10-4.13c-.24-.92-.57-3.3-.62-3.62a41.65,41.65,0,0,0-.93-4.23c-.05-.21-.08-.08-.11,0s-2.28,5.49-2.86,7.35a15.38,15.38,0,0,1,4.52.52Zm13.43-8.17c2.7,1.12,4.78,4.49,1.92,7.09a5.31,5.31,0,0,1-1.14.75,2.7,2.7,0,0,1,.45.1,3.85,3.85,0,0,1,2.23,2.08c.92,2-.73,3.67-2.66,4.42-2.18.85-6.32.69-7.95-.93-.22-.22-.23-.58.11-.69.07-.31,0-.21,0-.52-.11-2.14-.11-4.53,0-6.85.08-1,.23-2.29.31-3.28a4.31,4.31,0,0,1-1-.65c-1.24-1.32.72-2,2.42-2.17a10,10,0,0,1,5.26.64Zm-2.94,1.47a.8.8,0,0,0-.74.43,31.35,31.35,0,0,0-.41,4.56c0,.05-.06.42,0,.45a4.34,4.34,0,0,0,1.14,0,6.46,6.46,0,0,0,2.38-.84c1.56-1,1.63-3.5,0-4.3a5.87,5.87,0,0,0-2.41-.32Zm.7,7.53c-.48,0-1.16.16-1.86.28a25,25,0,0,0,.14,3.06.46.46,0,0,0,.28.34,3.29,3.29,0,0,0,1.64.28,4.18,4.18,0,0,0,2.48-.67c1.76-1.62-.13-3.48-2.68-3.29ZM133.43,141c-.08-1.1,1.52-1.35,2.55.16a1.42,1.42,0,0,1,.3.77c.05,1.57.41,9.56.18,12.26,0,.34,0,1-.6,1s-1.13-.19-2.14-1.4a1.68,1.68,0,0,1-.13-1.21c.15-5-.17-10.07-.17-11.57Zm-4,10.87c.54.73.85,1.33,1.72,1.51s0,1.91-1.49,1.76c-1.78-.18-3.42-3.57-4.6-5.14a4.63,4.63,0,0,1-1.37.35c0,1.32,0,3.09,0,3.84,0,.34,0,1-.6,1s-1.13-.19-2.13-1.4a2.32,2.32,0,0,1-.17-1.42c0-3.5-.11-6.43,0-9-.75-.35-2-1.57-1.24-2.53s3.62-1.41,5.06-1.27c2.17.17,6,1.2,6.11,4.67.07,2-1.36,3.49-3,4.51a19.37,19.37,0,0,0,1.7,3.1Zm-1.5-8.1c-.45-1.9-3.13-1.43-4.47-1.27,0,1.17.13,3.17.18,5.23,2.87-.61,4.74-2.06,4.29-4Zm11.26-2a37.65,37.65,0,0,1,.21,7.88c-.09,1.05-.17,2.88-.21,3.56a2.32,2.32,0,0,0,1.41,2c.73.28,1.45.17,1.47-.62s.38-7.47.26-8.78a34.29,34.29,0,0,0,4.53,6.93,22.55,22.55,0,0,0,1.89,1.95c.91.8,2.43.59,2.44-.56,0-1.35-.11-11.65-.11-12.24a2.22,2.22,0,0,0-1.73-2.14c-1.23-.26-1.15.82-1.15,1.1,0,1,.1,8.87.06,10.11-1.48-1.27-4.69-8.24-6.83-10.09-1.12-1-1.87-.44-2-.23-.07,0-.47.19-.3,1.12Zm21.21,11.3a2.72,2.72,0,0,1-1.62.61c-1.36,0-3-1.85-3-5.72.15-3,1.8-6.14,3.49-6.08s3.31,2.09,3.16,6.24a8.42,8.42,0,0,1-.74,3.37,3.23,3.23,0,0,0-2.44-.39c-.46.28-1.39,1.51,1.19,2Zm3.92-.48a9.53,9.53,0,0,0,1-4.82c-.09-5.91-3.88-6.9-4.33-7.2a5.58,5.58,0,0,0-3.1-1c-2.53,0-5.18,3.45-5.18,8.07.06,6.76,4.18,7.67,7,7.65a4.91,4.91,0,0,0,3.14-1.06c1.09.78,1.65,1.34,2.22,1a1.19,1.19,0,0,0,.37-1.58,2.14,2.14,0,0,0-1.12-1.1Zm-36.86-22.56c.73-1.6,4.18-11.21,4.67-12,0-.09-.5-1.58,1.67-1.39,1.05.1,3,.83,3.79,3.88.78,2.85,1.2,7.9,2.15,10.41a1.08,1.08,0,0,1-.27,1.27c-.29.19-.79.29-1.62-.45a4.74,4.74,0,0,1-1.09-2.54,11.17,11.17,0,0,0-5.68-.12,24.47,24.47,0,0,1-1.46,3.27c-.25.25-.6.33-1.19-.1-.79-.58-1.39-1.18-1-2.24Zm8.68-3.59c-.21-.8-.49-2.87-.54-3.15a37.32,37.32,0,0,0-.81-3.68c0-.18-.07-.07-.09,0s-2,4.78-2.48,6.39a13.33,13.33,0,0,1,3.92.46Zm-12-1.37c-.19,3-1.81,5-6.32,4.78.18-1.45.3-8.81.18-10,.68-.06,6.47,0,6.14,5.21Zm-8.73,4.59c-1.2.37-.78,1.74-.3,2.07s2.23.89,4.93.61c3.12-.32,4.27-1.27,5.23-2.48a8.42,8.42,0,0,0,.63-7.74c-1.29-3.1-4.49-4.18-6.29-4.55s-5.12-.23-5.6.7.36,1.37,1.32,1.84c0,1.59.12,8.24.06,9.55Zm-33-4.7c.78,0,1.6-.24,1.67-.89.09-1.72-.62-1.61-1.64-1.6-.27,0-3,0-4.14.12,0-.26.08-3.68.14-4.6.62-.15,4.7-.28,4.84-.28a.52.52,0,0,1,.41.12c.21.15,2.08,1.17,1.85-.75s-3.19-2.28-4.7-2.28-4.82.31-5.56.33c-.57,0-1,.15-1,.84s.49,1,1.25,1.64c-.05,1.12-.28,5.41-.24,7.14s.24,3.47.34,4.49a1.08,1.08,0,0,0-.24,1.27c1.2,2.23,1.9,2.13,2.74,1.49s.21-3.1.12-3.71-.1-2.41-.1-3.25a6,6,0,0,0,1.77.07c.92-.09,1.94-.14,2.47-.16Zm17.92-6a37.14,37.14,0,0,1,.21,7.88c-.09,1.05-.17,2.88-.21,3.56a2.32,2.32,0,0,0,1.42,2c.72.28,1.44.17,1.47-.62s.38-7.47.26-8.79A33.93,33.93,0,0,0,108,130a22,22,0,0,0,1.9,1.95c.9.8,2.43.59,2.44-.56,0-1.35-.1-11.65-.1-12.24a2.22,2.22,0,0,0-1.73-2.14c-1.24-.26-1.15.82-1.14,1.1,0,1,.1,8.87.06,10.11-1.48-1.27-4.7-8.24-6.83-10.09-1.13-1-1.88-.43-2-.23-.08,0-.47.19-.3,1.13Zm69.78,6.22c.15-3,1.8-6.14,3.48-6.07s3.31,2.08,3.16,6.24-2.26,5.56-3.61,5.56-3-1.85-3-5.72Zm4,7.37c2.47,0,5.68-1.64,5.6-7.55s-3.89-6.9-4.34-7.2a5.56,5.56,0,0,0-3.1-1c-2.54,0-5.18,3.45-5.18,8.07.06,6.76,4.19,7.67,7,7.65ZM89.84,120.12c0,1-1,6.16-.13,8.06A3,3,0,0,0,93,130c1.09-.14,2.08-1.06,2-4.8s-.18-5.21-.23-5.95a2.35,2.35,0,0,1,.63-1.81c.49-.46,1.54-.77,2.64,1.16.43.76-.48,1.39-.45,1.79,0,.81.34,5.1.25,6.67-.12,2.06-.37,4.7-3.35,5.31a6.75,6.75,0,0,1-3.28-.28,6.09,6.09,0,0,1-3.17-2.3c-1.68-2.46-1.14-7.3-1-10.23.05-.72-.39-1.71.47-2.09.65-.28,1.59.38,2.26,1.32a2.06,2.06,0,0,1,.13,1.28Zm59.74,8c-.74,2-2.11,2.7-3.09,2.7-1.35,0-3-1.85-3-5.72.15-3,1.8-6.15,3.49-6.08,1.23.05,2.38,1,2.88,3.21.3,1.29,3.45,1.82,2.87-.08a7,7,0,0,0-2.42-4,7,7,0,0,0-4.68-1.44c-2.7.14-5.18,3.45-5.18,8.07s2.06,6.58,4.24,7.27a4.77,4.77,0,0,0-.74,1.83c-.06.38.11.48.79.58.86.11.92-.26.91-.33s.25-.53.54-.87a9.57,9.57,0,0,0,.63-.85h.64a5.3,5.3,0,0,0,5.2-4.17c.65-2.68-2.78-1-3-.18Zm4.23,2.08c.73-1.6,4.18-11.21,4.67-12,0-.09-.5-1.58,1.67-1.38,1,.1,2.95.83,3.79,3.88.79,2.85,1.2,7.9,2.15,10.41a1.09,1.09,0,0,1-.26,1.27c-.29.19-.8.29-1.62-.45a4.8,4.8,0,0,1-1.09-2.54,11.14,11.14,0,0,0-5.68-.12,23.24,23.24,0,0,1-1.47,3.27c-.25.26-.6.33-1.18-.1-.79-.58-1.4-1.18-1-2.24Zm8.68-3.59c-.21-.8-.5-2.87-.54-3.15a35.25,35.25,0,0,0-.8-3.68c0-.18-.07-.07-.1,0s-2,4.78-2.48,6.39a13.43,13.43,0,0,1,3.92.46Zm.18-12.45a22.78,22.78,0,0,0-5,.51c-.83.19-1.22.41-1.25,1.06,0,.81,1,.62,1.16.57a7.83,7.83,0,0,1,2-.08,25,25,0,0,0,3.18,0c.83-.12,1.75.08,1.62-1.29-.06-.72-.82-.71-1.72-.72Z"/></g></svg>