<svg xmlns="http://www.w3.org/2000/svg" viewBox="0 0 252 252"><defs><style>.cls-1{fill:#ccc;}.cls-2{fill:#fff;}.cls-3,.cls-5{fill:#0092d4;}.cls-4{fill:none;stroke-width:0.95px;}.cls-4,.cls-5{stroke:#0092d4;}.cls-5{stroke-width:0;}</style></defs><title>icones</title><g id="utilitários_e_qrcode" data-name="utilitários e qrcode"><rect class="cls-1" width="252" height="252" rx="42.23" ry="42.23"/><rect class="cls-2" x="5.16" y="5.16" width="241.68" height="241.68" rx="37.07" ry="37.07"/><path class="cls-3" d="M85.39,105.52,73,130.09,60.48,105.52H39.64v41H51.25v-29.7h2.37l14.51,29.7h9.61l14.51-29.7h2.37v29.7h11.61v-41Z"/><path class="cls-3" d="M17.49,105.52v41H30.55v-41Z"/><path class="cls-3" d="M108.54,146.54h13.8l3.56-7H152l3.55,7h13.78l-20.82-41H129.38Zm31.05-31.73,7.89,15.58H130.36l7.89-15.58Z"/><path class="cls-3" d="M224.5,105.46H211.2L200,118.83l-11-13.36H173l16.22,19.26-19.29,21.81h17l13.12-14.95L213,146.53h17l-19.3-21.81L227,105.46Z"/><circle class="cls-4" cx="231.66" cy="108.5" r="2.85"/><path class="cls-5" d="M231,109v1.12h-.65v-3.37h1.72c.74,0,1,.25,1,1,0,.5,0,.86-.6.95v0c.46,0,.57.29.57.76v.63h-.65v-.63c0-.28-.12-.48-.43-.49Zm.85-.55c.48,0,.59-.09.59-.59s-.08-.56-.55-.56H231v1.15Z"/></g></svg>