<svg xmlns="http://www.w3.org/2000/svg" viewBox="0 0 252 252"><defs><style>.cls-1{fill:#ccc;}.cls-2{fill:#fff;}</style></defs><title>icones</title><g id="utilitários_e_qrcode" data-name="utilitários e qrcode"><rect class="cls-1" x="0.02" width="252" height="252" rx="42.23" ry="42.23"/><rect x="5.18" y="5.16" width="241.68" height="241.68" rx="37.07" ry="37.07"/><g id="Boostrap3-grid-system-layouts"><g id="Artboard-8-Copy"><path id="logo" class="cls-2" d="M72.37,157.13v17.73q0,4.42-2.08,6.41t-6.67,2q-4.56,0-6.67-2t-2.08-6.41V156.37H48.95a.66.66,0,0,0-.79.75v18q.1,7.33,4.29,10.39t11.16,3q7,.1,11.17-3t4.3-10.39V156.37H73.16a.66.66,0,0,0-.79.75Zm85.79,4.38A.85.85,0,0,0,159,161l1.7-4.25q.13-.36-.26-.36H136.67a4.09,4.09,0,0,0-2.36.52,1.92,1.92,0,0,0-.72,1.67v27.52a1.74,1.74,0,0,0,.54,1.41,2.82,2.82,0,0,0,1.82.46h22.22a1,1,0,0,0,.56-.13,1,1,0,0,0,.33-.39l1.7-4.22q.13-.39-.26-.39H140.2v-5.59a2.41,2.41,0,0,1,.88-2.13,5.17,5.17,0,0,1,3-.69h8.8a1,1,0,0,0,.56-.13,1,1,0,0,0,.33-.39l1.64-4.06q.13-.39-.26-.39h-15v-7.92Zm-41.94,9.78a6.18,6.18,0,0,0,2.8-2.81,9.31,9.31,0,0,0,.87-4.09q-.16-5.1-3.58-6.64a17.76,17.76,0,0,0-8-1.37H94.85a4.16,4.16,0,0,0-2.39.52,1.85,1.85,0,0,0-.69,1.67v27.52a1.74,1.74,0,0,0,.54,1.41,2.82,2.82,0,0,0,1.82.46h16.56a13,13,0,0,0,7.69-2q2.91-2,3-6.72a9.73,9.73,0,0,0-1.26-5,6.32,6.32,0,0,0-3.91-2.9Zm-17.93-9.91h10.5q2.55,0,3.52,1a4.15,4.15,0,0,1,.93,3.06,4.21,4.21,0,0,1-.93,3.08q-1,1-3.52,1H98.29ZM110,182.94H98.29v-5.86a2.39,2.39,0,0,1,.9-2.13,5.26,5.26,0,0,1,3.06-.69H110q2.75,0,3.78,1.08a4.38,4.38,0,0,1,1,3.27,4.33,4.33,0,0,1-1,3.24q-1,1.08-3.78,1.08Zm92.07,4.45L195,175.25a8.26,8.26,0,0,0,4.52-2.7q1.8-2.08,1.86-6.46-.07-5.63-3.37-7.72t-9.26-2H175.21a4.09,4.09,0,0,0-2.36.52,1.92,1.92,0,0,0-.72,1.67v28.63q0,.75.79.75h5.76v-9.23a2.39,2.39,0,0,1,.9-2.13,5.26,5.26,0,0,1,3.06-.69h5.86l6.38,11.52a1,1,0,0,0,.33.39,1,1,0,0,0,.56.13h6q.29,0,.34-.21a.42.42,0,0,0,0-.34ZM189.7,171h-11v-9.55h11q3,0,4,1.19a7.16,7.16,0,0,1,0,7.18q-1,1.18-4,1.18Z"/></g></g><path class="cls-2" d="M125.11,62a31.92,31.92,0,0,0-31.84,29.7h22.89v-6a.76.76,0,0,1,.75-.75h16.4a.76.76,0,0,1,.75.75v16.4a.76.76,0,0,1-.75.75h-16.4a.76.76,0,0,1-.75-.75v-6H93.27A31.92,31.92,0,1,0,125.11,62Z"/></g></svg>