<svg xmlns="http://www.w3.org/2000/svg" viewBox="0 0 163 163"><defs><style>.cls-1{fill:#fff;}</style></defs><title>icones</title><g id="rodapé_utilitários" data-name="rodapé utilitários"><path class="cls-1" d="M132.55,163H30.45A30.48,30.48,0,0,1,0,132.55V30.45A30.48,30.48,0,0,1,30.45,0H132.55A30.48,30.48,0,0,1,163,30.45V132.55A30.48,30.48,0,0,1,132.55,163ZM30.45,3A27.48,27.48,0,0,0,3,30.45V132.55A27.48,27.48,0,0,0,30.45,160H132.55A27.48,27.48,0,0,0,160,132.55V30.45A27.48,27.48,0,0,0,132.55,3Z"/><path class="cls-1" d="M135.56,100.65H105A17.57,17.57,0,0,1,87.43,83.1V79A17.57,17.57,0,0,1,105,61.43h30.58a5.28,5.28,0,0,1,5.28,5.28V95.37A5.28,5.28,0,0,1,135.56,100.65ZM105,64.43A14.57,14.57,0,0,0,90.43,79V83.1A14.57,14.57,0,0,0,105,97.65h30.58a2.28,2.28,0,0,0,2.28-2.28V66.71a2.28,2.28,0,0,0-2.28-2.28Z"/><path class="cls-1" d="M106.9,90.13A9.07,9.07,0,1,1,116,81.06,9.08,9.08,0,0,1,106.9,90.13Zm0-15.14A6.07,6.07,0,1,0,113,81.06,6.08,6.08,0,0,0,106.9,75Z"/><path class="cls-1" d="M121.08,132.5H39.75a11.32,11.32,0,0,1-11.3-11.3V40.93a11.32,11.32,0,0,1,11.3-11.3h81.34a11.32,11.32,0,0,1,11.3,11.3v21.5h-3V40.93a8.31,8.31,0,0,0-8.3-8.3H39.75a8.31,8.31,0,0,0-8.3,8.3V121.2a8.31,8.31,0,0,0,8.3,8.3h81.34a8.31,8.31,0,0,0,8.3-8.3V99.4h3v21.8A11.32,11.32,0,0,1,121.08,132.5Z"/></g></svg>