<svg xmlns="http://www.w3.org/2000/svg" viewBox="0 0 954 185"><defs><style>.cls-1{fill:#fff;stroke:#4c6c93;stroke-miterlimit:10;stroke-width:3px;}.cls-2{fill:#4c6c93;}</style></defs><title>icones</title><g id="botões"><line class="cls-1" x1="-0.25" y1="182.5" x2="954.25" y2="182.5"/><path class="cls-1" d="M926.25,182.5h-900V22.5a20,20,0,0,1,20-20h860a20,20,0,0,1,20,20Z"/><path class="cls-2" d="M404.63,111.85,387.47,70h9.84l11.4,28.32L420.05,70h9.84l-17.1,41.82Z"/><path class="cls-2" d="M423.17,111.85,440.45,70h8.22L466,111.85h-9.84l-2.82-7H435.83l-2.82,7Zm15.3-14.4h12.18l-6.06-15.18Z"/><path class="cls-2" d="M470.93,111.85V70h9.24v33.42h16.32v8.4Z"/><path class="cls-2" d="M502.13,111.85V70h28.56v8.4H511.37v7.86h18.06v8.22H511.37v8.94h19.74v8.4Z"/><path class="cls-2" d="M541.49,98.65c2.22,3.66,5.7,5.52,10.5,5.52,4.26,0,6.24-1.92,6.24-4.14a4,4,0,0,0-2.28-3.48,14.16,14.16,0,0,0-3.6-1.56c-1-.42-3.42-1.2-4.62-1.68-6.54-2.4-10.14-5.82-10.14-12.12a10.29,10.29,0,0,1,4-8.58,15.35,15.35,0,0,1,9.9-3.24c6.06,0,10.68,2.28,13.92,6.84l-6.18,4.68c-1.68-2.16-4.2-3.24-7.5-3.24-3.06,0-5,1.44-5,3.42a3,3,0,0,0,1.62,3c.66.36,1.32.66,1.86.9l3,1c1.38.48,2.58.9,3.6,1.32,7.62,2.88,10.68,6.42,10.68,12.42,0,7.74-5.28,12.78-15.54,12.78-8.46,0-14.34-3.78-17.16-9.24Z"/></g></svg>