<svg xmlns="http://www.w3.org/2000/svg" viewBox="0 0 252 252"><defs><style>.cls-1{fill:#ccc;}.cls-2{fill:#fff;}.cls-3{fill:#ec1c24;fill-rule:evenodd;}</style></defs><title>icones</title><g id="utilitários_e_qrcode" data-name="utilitários e qrcode"><rect class="cls-1" width="252" height="252" rx="42.23" ry="42.23"/><rect class="cls-2" x="5.16" y="5.16" width="241.68" height="241.68" rx="37.07" ry="37.07"/><path class="cls-3" d="M196,116.29c.41,0,.25,2.24.3,2.68a42.39,42.39,0,0,1-.15,5.07,9.42,9.42,0,0,1-2.09.39c-.15,0-.25-.49-.4-.49-1.78,0-1.12.84-1.63.84a11.77,11.77,0,0,0-1.88-.1c-.1,0-.31-.45-.51-.45s-.46.35-.7.4c-.67.15-1.42,0-1.63,1.09,0,.1-.1.15-.2.2V116.6a63.09,63.09,0,0,1,7-.1c1,0,1.52-.3,1.93-.2Zm-8.88,19.45c.5.1,1,.1,1.33.2s.7.49,1,.49.35-.78.61-.74a17.94,17.94,0,0,0,4.36-.19c.56-.11,1.17.54,1.62,1s-.25,1.44-.25,1.93.25,1,.25,1.53c0,1.3.25,3.72-.9,4.47-.31.2-.77-.15-1.07,0-.15.1-.1.5-.3.55a8.34,8.34,0,0,1-2,.1c-.15,0-.3-.44-.45-.44a4.93,4.93,0,0,0-1.72,0c-.21,0-.31.54-.51.64a1.35,1.35,0,0,1-.87.1c-.25-.1-.3-.7-.56-.74s-.35,0-.56.09v-9Zm0,24.11v-.5h0a3.08,3.08,0,0,0,2.19-.9,2.85,2.85,0,0,0,.86-2.18,3.09,3.09,0,0,0-.81-2.13,3.13,3.13,0,0,0-2.24-.89h0v-.54h.05a3.68,3.68,0,0,1,2.54,1,3.39,3.39,0,0,1,1,2.58,3.17,3.17,0,0,1-1,2.53,3.65,3.65,0,0,1-2.59,1Zm0-3.33h.2l.76,1.64h.81l-.81-1.64c.09-.1.36-.15.46-.25a1.15,1.15,0,0,0,.35-.79,1,1,0,0,0-.35-.74,1.62,1.62,0,0,0-1-.35h-.47v.6h.47c.14,0,.4,0,.5.1s.31.2.31.35-.26.34-.36.39a.92.92,0,0,1-.45.19h-.47v.5Zm0-48.57v-15c2.13,1.33,4,3.22,5.13,3.77,1.77.89,1.88.15,2.9.5s2.23.45,3.34.85,1,.94,2.23,1.63,2.54,1,4.77,2,2.75.39,3.91.54,1.38.9,2.65,1.24a38.72,38.72,0,0,0,4.21.79c1,.2.76.55,1.47.69s1.73-.09,2.49.15.92.79,1.88.79,1.27-.24,2.18-.24a5.63,5.63,0,0,1,3.2,1.14c1,.85.41,1.34-.71,1.39a10.91,10.91,0,0,1-2.28-.25c-.51,0-.66.15-1.11.2a14.64,14.64,0,0,0-1.63,0,32.14,32.14,0,0,1-3.4.25c-1.78,0-5.07-.4-7.36-.4s-4.11.35-6.24.4-3.7-.2-6.75-.25L187.08,108Zm41,34.84a5.17,5.17,0,0,0-.2,1.13c0,.65,0,1.25-.35,1.39-1.22.39-2.18-.5-3.45-.6-.46,0-.82-.74-1.33-1a16.49,16.49,0,0,1-2.13-.79c-.5-.3-.82-1-1.26-1.34-.21-.15-.62.14-.78,0-.7-.64-1.92-3.33-2.89-3.42a4.9,4.9,0,0,1-1.82-1.29c-1.23-1.09-.6,2.28-.6,2.58s-.32.2-.32.3a22.22,22.22,0,0,0,.05,3.52c0,.14.3,0,.41.2.31.64-.6,1.59-1.06,1.59s-1.32.15-1.78.15c-.26,0-.21-.64-.41-.69a2,2,0,0,0-1.43,0c-.29.15.16.6-.14.75a4.29,4.29,0,0,1-1.17,0c0-.55-.77-.35-1-.25-.4.2-.2-.54-.61-.54s-.81-.15-1.06-.05-.05.7-.26.85a1,1,0,0,1-.86-.1c-.1,0-.06-.45-.15-.59s-.36-.25-.36-.4c-.05-5.41,0-10.77,0-16.17a18.81,18.81,0,0,1-.3-1.88c0-.25.46-.39.51-.7a5.39,5.39,0,0,0,0-1.84c0-.44-.45-.68-.45-1.13s.51-.85.57-1.24a14,14,0,0,0,0-2.72c-.06-.3-.57-.55-.52-.85a5.73,5.73,0,0,1,1.18-1.69c.2-.2.56.39.86.5a3,3,0,0,0,1.17.3c.15,0,.3-.4.51-.4,2.22-.14,1.46.65,3.35.1.15,0,0-.69.25-.74s1,0,1.17.3c.51.55,1.16.89,1.43,1.23.4.65-.62,1.69-.62,2.59s-.35,2.63.41,3.08c1.42.79,3.15-.55,3.46-.9s.75-.39,1-.69c.55-.55.92-1.53,1.41-2.13.26-.3.57-.05,1-.6.2-.24.56.05.81-.09s.3-.94.61-1.15c.61-.45,2.23-1.34,2.94-1,.36.1.51.79.87,1,.16.1.51,0,.61.2a12.5,12.5,0,0,1,2.09,3.07c.45.84-.56,2.24-1,2.58-.25.2-.66,0-.86.14a47.58,47.58,0,0,0-4.37,4,4.21,4.21,0,0,0-.35,2.39,13,13,0,0,0,1,2.37c.15.64,1.16.34,1.73.55.2.1.35.59.55.74,1.22.69,2.66,1.48,3.76,2,.35.15-.25,1.34-.25,1.53a6.43,6.43,0,0,0,0,1.39c0,.2.5.2.5.4.05.94.15.54.15.89a4.9,4.9,0,0,1,.06.84c0,.2-.26.35-.26.6s.26.2.26.39C228.36,142.34,228.06,142.54,228.06,142.79Zm-41-16.87a13.66,13.66,0,0,0-1.57.39c-.15,0-.31.34-.47.45s-.5-.05-.65.15a14.18,14.18,0,0,0-1,4.51,6.56,6.56,0,0,0,1.38,3.48,3.75,3.75,0,0,0,2.28.84v9a.52.52,0,0,1-.45.1c-.15,0-.19-.4-.35-.4a2.56,2.56,0,0,0-1.33,0c-.15.05.1.35-.1.4a1.16,1.16,0,0,1-1.07.15c-.21-.15,0-.49-.15-.55-.61-.19-1.37.2-2.08.1-.09,0-.05-.49-.2-.49-.31-.05-.65.39-.92.3s-.5-.75-.87-.89-.81-.2-1.11-.45-.76-.79-1.21-1.14c-.25-.15-.62-.2-.77-.4s-.1-.75-.25-1.09c-.06-.1-.36.21-.41.1a4.22,4.22,0,0,0-1-1c-.21-.14,0-.59-.21-.84-.41-.59-1-1-1.36-1.69-.2-.44,0-1.19-.15-1.74,0-.29-.51-.55-.56-.84,0-.15.2-.64.2-.79-.15-.75-1-1.29-1-2.24a7.32,7.32,0,0,1,.21-1.14c0-.2.45-.25.45-.39.11-1.25-.09-2.43.06-3.67,0-.3.46-.4.56-.65s-.26-.84,0-1,.71-.85,1.06-1.23c.15-.25.5-.25.71-.45a19.81,19.81,0,0,0,1.33-1.73c.2-.16.75-.2,1-.6,1.58-2.87,5.94-3.57,8.53-3.76a13.77,13.77,0,0,0,1.42-.1v9.33Zm0-33v15h-.65c-4.53,0-10.77,0-15.55,0s-10.3.25-13.25.2a16.71,16.71,0,0,1-2.13-.15V89.56a6.59,6.59,0,0,1,1.87-.45c2.54-.25,3.41.25,5.59.5a36.48,36.48,0,0,1,6.45.94c2.58.68,4.26,3.33,6.9,3.52s3.45-2.53,7-2.43a8.55,8.55,0,0,1,3.75,1.29Zm0,59.78v.54a3.06,3.06,0,0,0-2.18.84,3.41,3.41,0,0,0-.91,2.24,3,3,0,0,0,.91,2.12,3.08,3.08,0,0,0,2.18.9v.5a3.47,3.47,0,0,1-2.48-1,3.25,3.25,0,0,1-1.07-2.53,3.37,3.37,0,0,1,1-2.53,3.6,3.6,0,0,1,2.54-1.09Zm0,1.68h-1.16v3.78h.65v-1.64h.51V156h-.51v-1h.51v-.6Zm-31.58,8.38V153.3c.2-.15,1.12-.15,1.12.15v5.71a5.06,5.06,0,0,1-1.12,3.62Zm0-22.82v-7.19h0c.66-.1,1.42.29,2,0s-1.48-4.07-1.63-4.62a.68.68,0,0,0-.35-.59v-11c1.83-.05,3.7,0,5.54.1.7.05,1.26,1,1.42,1.84s0,1.68.25,2.42c.1.5.72.75.87,1.24s-.1,1.44,0,2c0,.09.36-.1.36.05.2.69.1,1.64.35,2.33s1.12,1,1.33,1.73c.15.5,0,1.45.2,1.94.26.79.92,1.09,1.22,1.83a10.78,10.78,0,0,1,.31,1.94c0,.15.35.09.4.19.57,1.84,1,3.88,1.53,5.71.19.89,1.06,1.73,1.11,2.68,0,.69.66,1.64.15,1.64-1.16,0-2,.29-3.15.4-.09,0-.15-.5-.3-.5-1.21,0-2.64.1-3.6.15-.41.05-.86-.5-1,.05s-.66.34-.62-.5a3.21,3.21,0,0,0-.74-1.94c-.72-.74-2-2-2.95-2Zm18,23.56c0-1.69.11-3,.11-4.76,0-1.5-.11-3-.11-4.52,0-1,.36-.79.81-.79,1.83,0,3.61.15,5.33.15,1,0,.92,1.25-.26,1.29-1,0-2.28,0-3.29,0-.57,0-1.22.09-1.22.34v1.68a.65.65,0,0,0,.71.65h4.17c.81,0,.7,1.34-.37,1.34-1.42,0-2.44,0-3.86,0a.85.85,0,0,0-.71.69,22.46,22.46,0,0,0,.05,2.63c0,.35.35.5,1,.5,1.31.1,2.94,0,4,.2.61.11.16,1.1-.45,1.1h-5.53c-.3,0-.36-.25-.36-.5ZM167.9,155a5.76,5.76,0,0,0-2.24-.6c-.91,0-2,.45-2,1.34,0,2.43,5.23.4,5.23,4.71,0,2.93-2.79,3.62-4.32,3.58a7.74,7.74,0,0,1-3.2-.9c-.35-.2-.05-1.38.26-1.23a11.64,11.64,0,0,0,3.31.74c1.32,0,2.64-.5,2.69-2.14,0-2.73-5.59-1.39-5.59-4.92,0-1.43,1.73-2.52,3.46-2.52a8.19,8.19,0,0,1,2.94.64C168.81,153.9,168.2,155.19,167.9,155ZM155.51,89.56V108a10.23,10.23,0,0,0-2.13-.3c-1.47,0-1.42.39-4.31.44-2.08,0-7.11,0-9.64,0V95.76c1.73-.45,2.79-2.77,5.79-3.12a21.88,21.88,0,0,0,4.91-.85c1.53-.45,3.46-1.59,5.39-2.23Zm0,27v11c-.2,0-.46.15-.62.55,0,.15-.41.3-.45.49s.09.75,0,1.09c0,.11-.31,0-.36.25-.26.75,0,1.84-.52,2.58-.3.5-.25.85.37.7.34-.1.86.09,1.21,0,.15-.06.2-.4.36-.45V140c-.46,0-.81,0-.91,0a5,5,0,0,0-2.89,1.1,6.28,6.28,0,0,0-2,3.42c-.16.65-1.92.19-2.54.19a6,6,0,0,1-1.27-.25,3,3,0,0,0-1.46.1c-.1.05-.46.45-.51.45-1.58.05-.86-.45-2.38-.34-1,.09,0-1.09.09-1.74.11-.89,1.12-1.54,1.33-2.32.15-.5,0-1,.11-1.49.4-1.05,1.11-2,1.52-3,.1-.3.25-1,.36-1.29s.41-.15.41-.3c.09-1.44,1.62-4.66,1.92-6.25.06-.45.77-.5.87-.94.2-1,.35-3.27-.31-3.27a2.7,2.7,0,0,1-1.67-.2c-1.22-.94-1.42-.9-1.26-2.29,0-.15.45-1.69.45-1.88,0-.84-.57,0-.57-.8s0-2.33.47-2.33,1.16-.05,1.83-.05c.35,0,.3.55,1,.55s.51-.49.57-.49a12,12,0,0,1,2.38,0c.16,0,.27.49.41.49a17.6,17.6,0,0,0,3.14,0c.27,0,.35-.49.57-.49Zm0,36.7v9.48a3.76,3.76,0,0,1-2.79,1.09c-1.88,0-3.76-.74-3.76-4.17v-6.25c0-.25,1.37-.3,1.37,0v5.66c0,1.74.26,2.38.61,2.82a2.47,2.47,0,0,0,3.8-.1,4.91,4.91,0,0,0,.71-3V153.4a.15.15,0,0,1,.06-.1ZM139.42,164v-1.24a4,4,0,0,0,2.48-1.19,4,4,0,0,0,1.33-3.18,3.84,3.84,0,0,0-3.71-3.81h-.1v-1.49a4.85,4.85,0,0,1,3.45,1.29,5.33,5.33,0,0,1,1.77,3.92,6.1,6.1,0,0,1-1.41,4A4.45,4.45,0,0,1,139.42,164Zm0-68.21v12.4h-.61c-2.28,0-1.83-.24-2.74-.24s-1.37.19-2.74.24-2.89,0-5.44,0c-1,0-2.28,0-3.66,0V92.59c3.66,0,5.89.64,9.14.85s4.12,2.73,5.93,2.33Zm0,57.3v1.49a4.1,4.1,0,0,0-.11,8.18h.11V164a.44.44,0,0,0-.21,0,15,15,0,0,1-3.14-.79,5,5,0,0,1-2-3.08,7.08,7.08,0,0,1,0-2.92,7.27,7.27,0,0,1,1.62-2.73,4.34,4.34,0,0,1,3.61-1.34Zm-15.19,6v-1.49c.1.15.36.15.77.15h2c.67,0,0-.39,2.28-.35,0-1.44,0-2.14,0-3.57,0-.75,1.17-.55,1.23-.05v1.69c0,.45.1.34.15,1.24a6.23,6.23,0,0,1-.11,2v2.83c0,.54-.2.45-.2.64v1.19c0,1-1.12.8-1.12.4,0-1.64-.1-2.92,0-4.41.05-.45-2.34-.4-4.21-.49a1.46,1.46,0,0,0-.72.19Zm0-4.46v0Zm0-9.88v-5.65a.66.66,0,0,0,.4-.1,5.52,5.52,0,0,0,1.88-4,3.15,3.15,0,0,0-1.57-2.53,2.84,2.84,0,0,1-.72-.2v-4.57c.77-.44,1.26-1.53,2-2s-.35-4.07-1.52-4.16a1.57,1.57,0,0,0-.51-.05V116.7c2.23,0,4.47-.1,6.71-.1.55,0,1,1.19,1.57,1.34.4.1,1.11-.19,1.52.15.72.54,1,1.69,1.57,2.43.1.1.56.29.66.44a6.68,6.68,0,0,1,.21,1.69,3,3,0,0,1,.35.7c-.15,1.14-.91,1.88-1,3-.05.15.05.94,0,1.14-.66.94-1.37.89-1.27,2.48,0,.15.41.4.51.65s.05.94.15,1.24c.51,1,2,1.58,1.88,2.82-.06.79-.36,1.74-.41,2.48a17.33,17.33,0,0,1,0,2.23c-.21.64-.86,1.14-1.17,1.65-.36.73-1.06,2.82-1.88,3.22a5.87,5.87,0,0,1-2.08.15s-.26.5-.35.5C128.86,144.92,126.61,144.77,124.23,144.72Zm0-52.14v15.52c-2.38,0-5,0-6.34,0-2.19,0-1.43,0-2.84,0s-4.17.15-5.74,0-2.23-.34-3.56-.34-2.64.34-4.16.39h-.2v-13c1.47.55,4,1.59,5.18,2.18s1.27.44,2,.39,1,.5,2,.4a5.23,5.23,0,0,0,3.2-2.18c.91-1.19,1-2.43,1.88-2.68a60.62,60.62,0,0,1,8.38-.64.43.43,0,0,0,.25-.05Zm0,24.11v4.76c-1.07.05-2,.39-2.23,1.43-.36,1.5.15,4.62,1,4.91a1.53,1.53,0,0,0,1.26-.1v4.57c-1-.3-1.67-.39-2,1.34-.2,1.19-.51,3.38.06,4.42a2.86,2.86,0,0,0,1.92,1v5.65h-1.31c-.06,0,0,.55-.06.55-.45,0-1-.2-1.48-.2s-1.31.49-1.72.25c-.1,0-.15-.45-.26-.5a4.76,4.76,0,0,0-1.67-.3c-.25,0-.6.35-.86.35s-.46-.15-.57-.05,0,.5-.09.5a37,37,0,0,0-4.12,0c-.51,0-.61-3-.56-3.43,0-.89.81-1.34.61-2.59,0-.09-.31-.19-.36-.34a6.33,6.33,0,0,1,0-1.69c.1-.35.71-.54.76-.89s-.45-.89-.45-1.34c-.05-.93.05-2,0-2.92,0-.15-.35-.35-.35-.5,0-.4.6-.59.66-.89.1-2.54-.06-5.12-.06-7.59,0-.69-.25-1.49-.25-2.24,0-.09.36-.3.36-.34,0-1.25-.36-2.43.15-3.47.35-.65,1.32-.5,1.92-.5.06,0,0,.45,0,.45a8.28,8.28,0,0,0,2.5.15c.15,0,.15-.6.3-.6,2.28.1,4.57.15,6.9.15Zm0,37.3v.6c0,.94-.05,1.64-.05,2.48a1.19,1.19,0,0,0,.05.5v1.49a.45.45,0,0,0-.16.35c0,1.63-.25,2.73-.2,4.31,0,.4-1.17.55-1.17,0,0-3.22,0-6.5.06-9.72,0-.65,1.47-.65,1.47-.1V154Zm-22.84,5.71v-1.59c.3,0,.61,0,.92,0-.11-.24-.81-1.83-.77-1.83s-.1.15-.15.2v-3.08h.81c.61,1.19,1,2.43,1.53,3.72a9.53,9.53,0,0,1,.91,1.84c.2.5.31,1.14.46,1.63.41,1,.92,2.14,1.38,3.08.25.4-1.22.64-1.47.15-.67-1.39-1.27-2.77-1.89-4a10.66,10.66,0,0,0-1.72-.05Zm0-22.13v-.25c.05,0,.05,0,.05.1a.18.18,0,0,1-.05.15Zm0-4.11V133c.05,0,.05.14.05.3s-.05.1-.05.15Zm0-9.23v-7.89c1.07,0,2.08,0,3.15,0,0,0-.06-.64.51,0,.2.21.66.45.66.85,0,1.49-.1,1.88,0,3.17,0,0-.15.1-.15.3a4.83,4.83,0,0,0,0,.9c0,.14.19.3.19.39,0,.31-.09.79-.09,1.2,0,.15-.36.19-.46.3s-.15.45-.2.45a5.86,5.86,0,0,1-1.58,0c-.15,0-.21-.51-.31-.56a2.2,2.2,0,0,0-1.11,0c-.1,0-.06.49-.16.6s-.25.19-.46.29Zm10.3,39.14c0,.45-1,1.29-1,.1v-6.75c0-.94.21-.34.21-1.28,0-.55,0-1.29,0-1.79s1.17-.45,1.22.2c.05,1.53-.25,1.48-.25,2.82,0,.54.21,1.24,1.17.15a15.42,15.42,0,0,1,1.58-1.49,14.18,14.18,0,0,0,1.77-1.68c.41-.54,2.09,0,1.48.64s-1.78,1.59-2.69,2.48l-1.57,1.58c.3.45,1,.9,1.32,1.39.2.25.26.65.46.9a31.14,31.14,0,0,0,2.23,2.72c.87.89-1.22.8-1.56.49a15.69,15.69,0,0,0-1.63-2.28c-.66-.79-1.16-1.49-1.77-2.13-.31-.25-.81-.54-.71,0,.1,1-.31.89-.31,1.29Zm-10.3-68.21v13c-1.52,0-4.42,0-5.59-.1s-1.32-.39-1.83-.39-.6.49-2.23.49-5.08-.2-6.91-.15-2.19.5-4.36.65-6.5.19-8.84.1-2.49-.9-5-.75-7.42-.09-9.75,0-2.89.7-4.26.7-2.54-.61-3.87-.7-2.44,0-4.16,0-3.76.2-6.09,0c-1,0-2.24,0-3.45,0V102c2-.59,3.7-1,4.57-1.24a78.57,78.57,0,0,1,8.74-1.14c4.21-.44,5.89-.34,8.63-.44s4.21-.4,6.44-.45,4.47.15,5.79.2,1,3.52,4.21,3.32,4.26-2,6-1.88,1,1.88,2.85,2.08a8.27,8.27,0,0,1,2.64.7c1.32.39,1.42.49,2.53,0s1.57.2,1.68-.9a2.7,2.7,0,0,1,2-2.48c1.48-.59,5.23-1,6.6-2s2-3.17,3.41-2.72a.71.71,0,0,0,.3.1Zm0,21.18v7.89c-.1.05-.25.15-.25.3,0,2.43.1,5.76.1,8.09,0,.15.09.19.15.39v.45c-.1.85-.46.5-.46.79a13.29,13.29,0,0,0,.05,2.43c0,.2.35.4.41.64v.25a2.75,2.75,0,0,0-.15.65s-.15,6.35-.47,6.35c-3.14,0-6.09.05-9.18.05-.82,0-.77-2.48-.77-3.13,0-.3.41-.3.41-1.24s.05-2.13.05-3.13c0-.11-.21,0-.21-.15a5.38,5.38,0,0,1,0-1.24c0-.1.25-.24.3-.45a14.32,14.32,0,0,1,0-1.49s.21-.1.21-.2-.31-.39-.31-.55c0-.34.1-.79.1-1.18,0-.1-.2-.25-.2-.3,0-.84,0-1.69,0-2.53,0-.06.24-.06.24-.06,0-.49.05-5.2-.45-5.2-1,0-2.23.15-3.36,0-.1,0,0-.45-.1-.49s-.61.09-.61-.1c-.06-2.43-.1-4.12-.1-6.75,0-.3.5-.1.75-.2.05,0,.11-.34.16-.34a6.87,6.87,0,0,1,1.77,0c.16,0,.21.54.36.54a18.63,18.63,0,0,0,2.34,0c.1,0-.05-.5,0-.54s.92-.2,1,.14c0,.69.3.5.91.5a7.78,7.78,0,0,0,1.58-.15,17.7,17.7,0,0,1,2.34-.19c.1,0,.1-.5.2-.5.52-.1.81.54,1.11.59a10,10,0,0,0,1.17-.09c.1,0,.15.39.21.39.66,0,.46-.3.46-.3Zm0,37v3.08c-.3.54-.62,1.14-.86,1.63a2.4,2.4,0,0,0,.86,0v1.59a8.33,8.33,0,0,0-1.52.1c-.3.54-.71,1.49-1.17,2.38s-.82,1.49-1.07,1.94c-.15.25-1.32-.25-1.22-.55.46-1.28,1.22-2.68,1.73-4.06.16-.45.41-1.2.56-1.59.16-.55.66-1.29.86-1.89a18.48,18.48,0,0,1,.91-2.62l.91-.05ZM35,144.43v-9.09a3.94,3.94,0,0,0,1.07-.15c.25-.1.45-.84.71-1,.3-.35.86-.35,1.07-.85.35-.69.2-1.93.4-2.62.45-2.23.45-4.32-1.32-5.56-.21-.15-.81,0-.86-.15A1.8,1.8,0,0,0,35,124.1v-8.89a9.44,9.44,0,0,1,3.35.15c.25.1,2.09.9,2.33,1,1.58.5,2.49.3,3.56,1.69s2,1.19,3.34,3.57c.65,1.28,1.83,3,2.18,3,.06,0,.2,2.19.2,2.38s.35.6.35.65c0,.49-.1,1.48.16,1.68.46.29.25,1.94.1,2.28-.36,1.29-.91,1.84-1.27,3-.2.6.46,2.48-.81,2.48-.26,0-.76.75-.91,1s-1.33.78-1.52,1.53c-.36,1.14-2,2-2.65,2.58a5.21,5.21,0,0,1-2.89.89c-.31,0-1,.89-1.37.89a11.16,11.16,0,0,0-3.3.5,4.67,4.67,0,0,1-.86-.1ZM55.29,115.9c.1,0,.4.35.81.35s.76.14,1.12.14c.15,0,0-.59.15-.59.91-.1,2,.15,3,.15,0,0,.1-.31.16-.31.8,0,.65,0,1.51,0,.06,0,.11.25.21.25.61.15,1.37,0,1.88.25.25.15.16.85.2,1.14s.36.21.36.85c0,.9-.31.4-.36.6,0,.69,0,1.53,0,2.23,0,.2-.21.5-.21.65,0,1.34.5.8.5,1.24,0,.74.11,1.63.06,2.38,0,.2-.36.4-.36.64s.6,2.82.6,3.12c0,.5-.31.46-.31.6v3.13c0,.14-.25.2-.25.54a8,8,0,0,0,.61,2.43c0,2.44,2.84,2.63,5.33,1.88.25,0,.16-.64.1-1.09,0-.15.36,0,.36-.4,0-1.29-.06-2.48-.06-3.77,0,0-.45-.2-.25-.44.81-.8.81-2.39,0-2.73s.15-.19.2-.94c.1-3,0-8.33,0-11.36,0-1.54,2.08-1,2.9-.94.3.05.1.7.91.64.41,0,.3-.4,1.12-.9.15-.09.46.45.61.45,1.22-.34.66-.2,1.93-.14.05,0,.16-.2.25-.25.41-.21,1.48,0,1.63.49s0,1,0,1.55c0,0,.26.14.26.19a6.57,6.57,0,0,1,.09,1.38c0,.74-.5.65-.5,1.3s-.1,1.43-.1,2c0,.35.56.15.61.4,0,.5.06,1.28,0,1.74,0,.1-.3.25-.3.25,0,1.89,0,3.52.05,5.4,0,.1.3.25.3.4-.1,1.24-1.12,1.74-.81,3.23.05.15.56.09.56.29s-.51.5-.51.84c0,.69.35.15.35.25.35.89-.56.95-.56,1.44,0,.2.47,0,.56.11.26.83-.1,2.27.41,3.13.15.19.66.29.81.54.91,1.64.41,3.47-1.31,3.62a16.92,16.92,0,0,1-2.65,0c-.15,0-.31-.35-.41-.35a10.14,10.14,0,0,0-1.72,0c-.36.05-.61.5-1,.5-1.89,0-3.3-1.39-5-1.25-.56.05-1.11.79-1.62.84a24.81,24.81,0,0,1-4.67.15c-.56-.1-1-.65-1.57-.8a11,11,0,0,1-1.17-.34c-.4-.1-.76-.7-1.12-.9a3.74,3.74,0,0,1-2-2,10,10,0,0,0-.31-1.25c-.21-.49-.81-.84-1-1.34a9.35,9.35,0,0,1-.35-1.68,1.8,1.8,0,0,0-.25-.55c0-.49,0-1.14,0-1.59,0-.15.31-.15.31-.3a7.27,7.27,0,0,1,.1-1.79c0-.14-.46-.25-.46-.45a8.18,8.18,0,0,1-.16-2.28c0-.1.36.06.36,0,0-2.53,0-5.16,0-7.69,0-.1.3,0,.3-.44,0-.7-.3-.7-.3-.85,0-.35,0-.5,0-.8,0-.09-.3-.15-.3-.2,0-.54-.06-1-.06-1.49,0-.2.46-.2.51-.39s-.25-1.09-.05-1.15Zm31,41.92c0-.89-.31-.64-.31-1.58,0-.75.26-.35.26-.85,0-.34-.05-.79-.05-1.24s-.05-.74.76-.74h1.93c.56,0,.15.3.71.3,1,0,2.08-.05,3-.05.5,0,.55,1.29-.15,1.29s-3.05.05-3.81.05-1.12.14-1.12.64v1.08c0,.45.1.8.56.8,1.37,0,2.74.1,4,0a.73.73,0,1,1,0,1.44c-1.12,0-2.33-.1-3.45-.1-1,0-1.27.25-1.27.74,0,1.6-.15,3,.4,3,1.22,0,2.8-.05,4.06-.05.62,0-.39.54.77.4.71-.05.46,1-.11,1-1.27,0-4.41.05-5.73.05-.51,0-.71-.35-.71-.79,0-1.89.15-3.53.15-5.41Zm-8.48-2.24c0-.79-.31-.83-.71-.83-.66,0-1.27,0-2,0s-.51-1.39.05-1.39h6.35c1.56,0,.91,1.39-.06,1.39-.36,0-1,.1-1.73.1-.61,0-.86.15-.86.6v8c0,.84-.92.34-.92,0,0-2.63,0-5.41-.1-7.94ZM70.11,155a4.65,4.65,0,0,0-2.23-.6c-.92,0-2,.45-2,1.34,0,2.43,5.23.4,5.23,4.71,0,2.93-2.74,3.67-4.31,3.58a7.32,7.32,0,0,1-3.2-.9c-.35-.25-.1-1.38.3-1.23a12,12,0,0,0,3.3.74c1.27,0,2.64-.5,2.64-2.14.06-2.73-5.59-1.39-5.59-4.92,0-1.43,1.78-2.52,3.5-2.52a8.2,8.2,0,0,1,2.9.64C71.08,153.9,70.47,155.19,70.11,155ZM35,102v6.05c-1.47,0-3,.15-4.37.15a43.26,43.26,0,0,0-7,.1c-.06-.64-4.37.14-.21-2A75.39,75.39,0,0,1,35,102Zm0,13.2v8.89c-.25-.11-.51-.11-.61,0a10,10,0,0,1-2.59,2.63c-.3.15.41,1,.41,1.58s-.66.89-.66,1.45c0,.29.4.44.4.69a11.34,11.34,0,0,0,.61,3.92c.1.3.66-.15.92,0s.2.69.45.79a3.91,3.91,0,0,0,1.07.15v9.09a4.54,4.54,0,0,0-1.22-.3,10.68,10.68,0,0,1-3.55-.84,15.27,15.27,0,0,1-2.08-.35c-.46-.25-.77-.89-1-1a6.06,6.06,0,0,1-3.3-2.23c-.86-1.74-2.44-3.22-2.7-5.31,0-.55-.76-.75-.76-1.59,0-1.79-.15-4-.15-5.9,0-.6.61-1.39.61-1.69-.05-1.88,1-1.59,1.12-2.13.5-2.47,3.45-4.22,5.07-5.61a9.29,9.29,0,0,1,2.85-.94c.61-.1,2.44-1.24,3.55-1.24C34,115.26,34.52,115.21,35,115.21Z"/></g></svg>