<svg xmlns="http://www.w3.org/2000/svg" viewBox="0 0 252 252"><defs><style>.cls-1{fill:#ccc;}.cls-2{fill:#cf0a2c;}.cls-3{fill:#fff;}</style></defs><title>icones</title><g id="utilitários_e_qrcode" data-name="utilitários e qrcode"><rect class="cls-1" width="252" height="252" rx="42.23" ry="42.23"/><rect class="cls-2" x="5.16" y="5.16" width="241.68" height="241.68" rx="37.07" ry="37.07"/><rect class="cls-3" x="107.82" y="149.54" width="10.62" height="54.43"/><rect class="cls-3" x="128.11" y="129.25" width="17.4" height="74.72"/><path class="cls-3" d="M98.29,77.21S115.84,60.06,145.4,65.7c0,0,13,2,23,10.88,0,0,1.48,1.39,2.62.25,0,0,1.45-1.13-.16-2.83a52.63,52.63,0,0,0-25.49-17.15s-23.25-8.32-47.13,2.92A49.37,49.37,0,0,0,75.36,82.47,132.56,132.56,0,0,0,55,91.11s-2.58,1-1.6,3c0,0,.83,1.44,3.09.37,0,0,8.09-2.79,15.89-4.54,0,0-6.27,16.27.28,36.46A58.94,58.94,0,0,0,89,151.93a2.25,2.25,0,0,0,2.77.44,1.76,1.76,0,0,0,.37-2.4,69.14,69.14,0,0,1-9-23.63C81.08,115,82.07,99.4,89.92,87c0,0,29.92-4.17,55.42,5.43,0,0,43.31,14.13,32.41,40.35,0,0-3.17,9.11-15.12,17.34,0,0-2,1.17-.92,2.84,0,0,.9,1.3,3,.47,0,0,18.31-6,26.21-20.66,0,0,16-24.53-21.77-44.54a103.94,103.94,0,0,0-23.76-8.52s-24.08-6-47.05-2.49"/></g></svg>