<svg xmlns="http://www.w3.org/2000/svg" viewBox="0 0 57 36"><defs><style>.cls-1{fill:#b3b3b3;}</style></defs><title>icones</title><g id="ícones_menores" data-name="ícones menores"><polygon class="cls-1" points="47.88 14.26 43.27 8.54 36.18 8.54 36.18 10.22 42.47 10.22 46.57 15.31 46.79 15.58 47.09 15.74 53.13 18.96 53.13 25.68 54.81 25.68 54.81 17.95 47.88 14.26"/><polygon class="cls-1" points="3.74 25.68 3.74 3.13 34.57 3.13 34.57 25.68 36.25 25.68 36.25 1.45 2.06 1.45 2.06 25.68 3.74 25.68"/><rect class="cls-1" x="3.13" y="18.57" width="32.38" height="1.68"/><rect class="cls-1" x="3.13" y="14.99" width="32.38" height="1.68"/><polygon class="cls-1" points="44.9 20.25 35.33 20.25 35.33 18.57 44 18.57 46.56 14.67 47.97 15.6 44.9 20.25"/><rect class="cls-1" x="49.85" y="21.95" width="1.68" height="1.62"/><path class="cls-1" d="M13.33,34.55a5.06,5.06,0,1,1,5.06-5.06A5.06,5.06,0,0,1,13.33,34.55Zm0-8.44a3.38,3.38,0,1,0,3.38,3.38A3.38,3.38,0,0,0,13.33,26.11Z"/><circle class="cls-1" cx="13.33" cy="29.49" r="0.84"/><path class="cls-1" d="M46.42,34.55a5.06,5.06,0,1,1,5.06-5.06A5.06,5.06,0,0,1,46.42,34.55Zm0-8.44a3.38,3.38,0,1,0,3.38,3.38A3.38,3.38,0,0,0,46.42,26.11Z"/><circle class="cls-1" cx="46.42" cy="29.49" r="0.84"/><path class="cls-1" d="M42.42,28.22H17.33a4.13,4.13,0,0,1,.22,1.27c0,.14,0,.27,0,.41H42.24c0-.14,0-.27,0-.41A4.18,4.18,0,0,1,42.42,28.22Z"/><path class="cls-1" d="M.59,25.12V29.9H9.15c0-.14,0-.27,0-.41a4.18,4.18,0,0,1,.22-1.27H2.27V26.8h7.83a4.17,4.17,0,0,1,6.44,0H43.2a4.17,4.17,0,0,1,6.44,0h5.08v1.42h-4.3a4.13,4.13,0,0,1,.22,1.27c0,.14,0,.27,0,.41h5.81V25.12Z"/></g></svg>