<svg xmlns="http://www.w3.org/2000/svg" viewBox="0 0 163 163"><defs><style>.cls-1{fill:#fff;}</style></defs><title>icones</title><g id="rodapé_utilitários" data-name="rodapé utilitários"><path class="cls-1" d="M132.22,163H30.11A30.48,30.48,0,0,1-.33,132.55V30.45A30.48,30.48,0,0,1,30.11,0H132.22a30.48,30.48,0,0,1,30.45,30.45V132.55A30.48,30.48,0,0,1,132.22,163ZM30.11,3A27.48,27.48,0,0,0,2.67,30.45V132.55A27.48,27.48,0,0,0,30.11,160H132.22a27.48,27.48,0,0,0,27.45-27.45V30.45A27.48,27.48,0,0,0,132.22,3Z"/><path class="cls-1" d="M84.7,29.94A26.26,26.26,0,1,1,58.43,56.21,26.27,26.27,0,0,1,84.7,29.94m0,37c-4.52,0-6.13-2.15-6.13-4.16v-.48l-5.25.53v.4c0,1.9.72,7.77,9.19,8.64V75.9h4.38V71.84c6-.59,9.19-3.71,9.19-9.15s-5.15-7.49-10.72-9c-3.18-.88-6.79-1.88-6.79-4.46,0-2.12,2.63-3.72,6.13-3.72s6.13,1.79,6.13,4.16v.48l5.25-.53v-.4c0-3.07-2.55-7.75-9.19-8.6V36.51H82.51v4.06c-7.92.8-9.19,6-9.19,9.16,0,2.95,1.26,6.31,10.58,8.89l.42.12c3.64,1,6.51,1.8,6.51,4.48s-3.3,3.72-6.13,3.72M84.7,27A29.21,29.21,0,1,0,113.9,56.21,29.24,29.24,0,0,0,84.7,27Z"/><path class="cls-1" d="M59,122.63,49.9,98.07,63,90.72a23.86,23.86,0,0,1,11.2-3.18H96.73a7,7,0,0,1,0,13.94H80.32a.73.73,0,0,0-.69.73.69.69,0,0,0,.69.69h21.56l19.61-9.95c2.24-1.11,7.09-2.18,9.57,1.68a6,6,0,0,1,1,4.75,7.78,7.78,0,0,1-3.39,4.46l-22,14a8.08,8.08,0,0,1-3.73,1.26ZM53.6,99.43l7.39,20,41.66-3.34a5.08,5.08,0,0,0,2.35-.79l22-14a4.92,4.92,0,0,0,2.05-2.61,3.13,3.13,0,0,0-.56-2.44h0c-1.64-2.56-5.54-.7-5.7-.62L102.59,105.9H80.32a3.71,3.71,0,0,1,0-7.42H96.73a4,4,0,0,0,4-3.93,4,4,0,0,0-4-4H74.21a20.87,20.87,0,0,0-9.74,2.81Z"/><path class="cls-1" d="M43,136.94,30.24,102.28l17.33-6.55,12.79,34.65ZM34.09,104l10.71,29,11.72-4.43-10.71-29Z"/></g></svg>