<svg xmlns="http://www.w3.org/2000/svg" viewBox="0 0 163 163"><defs><style>.cls-1{fill:#fff;}</style></defs><title>icones</title><g id="rodapé_utilitários" data-name="rodapé utilitários"><path class="cls-1" d="M132.89,163H30.78A30.48,30.48,0,0,1,.33,132.55V30.45A30.48,30.48,0,0,1,30.78,0H132.89a30.48,30.48,0,0,1,30.45,30.45V132.55A30.48,30.48,0,0,1,132.89,163ZM30.78,3A27.48,27.48,0,0,0,3.33,30.45V132.55A27.48,27.48,0,0,0,30.78,160H132.89a27.48,27.48,0,0,0,27.45-27.45V30.45A27.48,27.48,0,0,0,132.89,3Z"/><rect class="cls-1" x="80.85" y="57.96" width="3" height="6.48"/><rect class="cls-1" x="80.85" y="92.68" width="3" height="6.48"/><path class="cls-1" d="M83.65,93.16A20.73,20.73,0,0,1,81.32,93a40.56,40.56,0,0,1-8.12-2.11l-.54-.18.95-2.85.54.18a37.85,37.85,0,0,0,7.51,2c4.3.49,7.77-.54,9.27-2.75a3.51,3.51,0,0,0,.24-3.72c-1.17-2.2-4.41-3.52-8.66-3.52h-.14c-5.58,0-9.77-1.85-11.49-5.09a6.45,6.45,0,0,1,.42-6.75c2.18-3.2,6.75-4.74,12.23-4.12a40.69,40.69,0,0,1,8.17,2.12l.51.17-.95,2.85-.52-.17a38,38,0,0,0-7.55-2c-4.36-.49-7.88.57-9.42,2.83a3.41,3.41,0,0,0-.26,3.66c1.16,2.19,4.47,3.5,8.84,3.5h.14c5.46,0,9.58,1.86,11.31,5.11A6.51,6.51,0,0,1,93.41,89C91.58,91.66,88,93.16,83.65,93.16Z"/><path class="cls-1" d="M134,94.93H117.07a10.6,10.6,0,0,1-10.59-10.59V61.88a4.23,4.23,0,0,1,4.23-4.23h29.66a4.23,4.23,0,0,1,4.23,4.23V84.34A10.6,10.6,0,0,1,134,94.93ZM110.7,60.65a1.23,1.23,0,0,0-1.23,1.23V84.34a7.6,7.6,0,0,0,7.59,7.59H134a7.6,7.6,0,0,0,7.59-7.59V61.88a1.24,1.24,0,0,0-1.23-1.23Z"/><path class="cls-1" d="M106.34,135.57H58.29a9.86,9.86,0,0,1-9.85-9.85V37.35a9.86,9.86,0,0,1,9.85-9.85h48.05c2.49,0,5.94.51,8.27,2.92a9,9,0,0,1,2.3,6.82l-.14,4.16A11.26,11.26,0,0,1,123.66,39h3.74a11.33,11.33,0,0,1,11.31,11.31V58.7h-3V50.36A8.32,8.32,0,0,0,127.4,42h-3.74a8.32,8.32,0,0,0-8.31,8.31V58.7h-3V50.36a11.3,11.3,0,0,1,4.12-8.73l-2.59-.09v1.21H52.37v-3h61.46l.09-2.62a6.11,6.11,0,0,0-1.46-4.63c-1.68-1.74-4.55-2-6.12-2H58.29a6.86,6.86,0,0,0-6.85,6.85v74.27h61.38v3H51.44v11.11a6.86,6.86,0,0,0,6.85,6.85h48.05a6.85,6.85,0,0,0,6.85-6.85V93.09h3v32.63A9.86,9.86,0,0,1,106.34,135.57Zm-18.77-11H77.06v-3H87.57ZM127,82.19h-3V76.3a4,4,0,1,1,3,0Zm-2.21-8.9h1.43a1,1,0,1,0-1.43,0Z"/></g></svg>