<svg xmlns="http://www.w3.org/2000/svg" viewBox="0 0 24 22"><defs><style>.cls-1{fill:#ed1c24;}</style></defs><title>icones</title><g id="ícones_menores" data-name="ícones menores"><path class="cls-1" d="M12,3.93c.15-.22.29-.44.44-.64A6.64,6.64,0,0,1,15.38,1,5.85,5.85,0,0,1,18,.61,5.76,5.76,0,0,1,21.35,2a5.68,5.68,0,0,1,2,3.46,9,9,0,0,1,0,2.15A10,10,0,0,1,23,9.77a8.65,8.65,0,0,1-1.64,3,21.37,21.37,0,0,1-2.47,2.5c-1.36,1.2-2.73,2.38-4.08,3.58-.92.81-1.81,1.65-2.71,2.48l-.08.08-.39-.37c-1.44-1.36-2.93-2.67-4.43-4-1.17-1-2.35-2-3.44-3.1A12.29,12.29,0,0,1,1.8,11.57a8.37,8.37,0,0,1-1-3A12.37,12.37,0,0,1,.61,6.23,5.68,5.68,0,0,1,4.24,1a5.92,5.92,0,0,1,6.29,1.14,7,7,0,0,1,1.4,1.66Z"/></g></svg>