<svg xmlns="http://www.w3.org/2000/svg" viewBox="0 0 33 39"><defs><style>.cls-1{fill:#ccc;}</style></defs><title>icones</title><g id="ícones_menores" data-name="ícones menores"><path class="cls-1" d="M9.62,2.32c-.13.7-.29,1.34-.36,2a.63.63,0,0,1-.51.62c-1.14.4-2.28.81-3.37,1.32A3.94,3.94,0,0,0,4.13,7.34a1.38,1.38,0,0,0,0,1.84,5,5,0,0,0,2.09,1.52,19.8,19.8,0,0,0,5.93,1.51,35,35,0,0,0,10.51-.28,14.67,14.67,0,0,0,4.88-1.63,5.35,5.35,0,0,0,1.06-.8,1.54,1.54,0,0,0,0-2.53A13.43,13.43,0,0,0,26,5.47a15.8,15.8,0,0,0-1.85-.6c-.13,0-.31-.17-.33-.29-.15-.74-.26-1.49-.38-2.26A15.06,15.06,0,0,1,29.66,4.8a4.39,4.39,0,0,1,1.89,3.88c0,.55,0,1.1,0,1.64a4.3,4.3,0,0,1-1.19,2.5,1.33,1.33,0,0,0-.33.7Q29.32,20,28.67,26.45c-.21,2-.4,4.08-.63,6.11a4.62,4.62,0,0,1-2.7,3.56A14.68,14.68,0,0,1,20,37.71a24.59,24.59,0,0,1-9.9-.59,9.47,9.47,0,0,1-3.56-1.73,4.44,4.44,0,0,1-1.65-3.17C4.58,28.63,4.19,25,3.82,21.47Q3.44,17.72,3.07,14a2.08,2.08,0,0,0-.55-1.37A3.86,3.86,0,0,1,1.45,9.76c0-.32,0-.65,0-1A4.59,4.59,0,0,1,3.71,4.53,16,16,0,0,1,9.62,2.32ZM23.16,33.2a1.58,1.58,0,0,0,1.54-1.5c.12-.88.21-1.76.3-2.64q.65-6.23,1.3-12.47c.09-.83-.41-1.27-1.22-1a2.06,2.06,0,0,0-1.42,1.93c-.14,1.49-.29,3-.45,4.48q-.52,5.09-1,10.18A.9.9,0,0,0,23.16,33.2ZM10.77,32c0-.08,0-.27,0-.45l-.58-5.6c-.3-2.92-.58-5.84-.93-8.75a2.62,2.62,0,0,0-.72-1.3A1.19,1.19,0,0,0,7,15.59c-.54.27-.42.8-.37,1.27.12,1.15.25,2.31.37,3.46.38,3.7.76,7.4,1.15,11.09a1.81,1.81,0,0,0,1.07,1.68C10.14,33.45,10.79,33,10.77,32Zm4.48-6.48h0q0,3.74,0,7.48a1.2,1.2,0,0,0,1.25,1.36c.79,0,1.24-.5,1.24-1.37,0-1.38,0-2.77,0-4.15q0-5.41,0-10.82a1,1,0,0,0-.4-1A1.6,1.6,0,0,0,15.78,17c-.48.22-.53.65-.53,1.12C15.25,20.55,15.25,23,15.25,25.51Z"/><path class="cls-1" d="M16.52,1.05c.72,0,1.43,0,2.15,0A3.45,3.45,0,0,1,22,4.39c0,.8,0,1.6,0,2.41a.74.74,0,0,1-.59.84,4.51,4.51,0,0,1-1.49,0,.76.76,0,0,1-.6-.88c0-.68,0-1.37,0-2a.89.89,0,0,0-1-1H14.62a.88.88,0,0,0-1,1c0,.67,0,1.33,0,2s-.17.89-.78,1a3.08,3.08,0,0,1-1.15,0,.84.84,0,0,1-.75-1c0-.7,0-1.4,0-2.1A3.49,3.49,0,0,1,14.52,1h2Z"/></g></svg>