<svg xmlns="http://www.w3.org/2000/svg" viewBox="0 0 163 163"><defs><style>.cls-1{fill:#fff;}</style></defs><title>icones</title><g id="rodapé_utilitários" data-name="rodapé utilitários"><path class="cls-1" d="M132.55,163H30.45A30.48,30.48,0,0,1,0,132.55V30.45A30.48,30.48,0,0,1,30.45,0H132.55A30.48,30.48,0,0,1,163,30.45V132.55A30.48,30.48,0,0,1,132.55,163ZM30.45,3A27.48,27.48,0,0,0,3,30.45V132.55A27.48,27.48,0,0,0,30.45,160H132.55A27.48,27.48,0,0,0,160,132.55V30.45A27.48,27.48,0,0,0,132.55,3Z"/><path class="cls-1" d="M83.54,93.85h-5v5.08H73.35v5.23h5.13v5.12H68.21V93.89h5c0-1.77,0-3.43,0-5.1h5.21V78.53H73.27c0,.57,0,1.06,0,1.54q0,4.37-.07,8.75h-5V73.17l0,0h5.08V68.12H68.12l0,0V57.9h5.12v5.2h5.23l0,0V73.21h5.09V63.06l0,0h5.12V57.78H83.51l0,0V42.41H78.49l0,0q0-4.47-.08-8.94c0-.41,0-.82,0-1.36-1.64,0-3.18,0-4.71,0-.17,0-.43.55-.44.85,0,1.39,0,2.78,0,4.23H68.13V27h15.4V37.23h5.19c0-.52,0-1,0-1.42q0-4.41.08-8.82h5.06V42.38H88.8V52.66h5V73.2H99v-5h5.11V78.4H88.8V88.82l0,0h-5.3v5.08Z"/><path class="cls-1" d="M63.07,27c0,.42,0,.84,0,1.26q0,16.65,0,33.29V63H28.26c-.42,0-.84,0-1.26.05V27ZM32.17,57.77H57.79V32.22a5.45,5.45,0,0,0-.66-.08c-8,0-16.09,0-24.13,0-.83,0-.88.39-.88,1q0,11.91,0,23.81C32.13,57.2,32.15,57.44,32.17,57.77Z"/><path class="cls-1" d="M135,63.07c-.42,0-.84,0-1.26,0H99V61.66q0-16.7,0-33.4c0-.42,0-.84-.05-1.26H135Zm-5.13-5.29V56.63c0-7.76,0-15.52,0-23.29,0-1-.26-1.23-1.23-1.23-7.76,0-15.52,0-23.29,0h-1.16V57.78Z"/><path class="cls-1" d="M27,98.93c.42,0,.84,0,1.26,0H63v1.36q0,16.7,0,33.4c0,.42,0,.84,0,1.26H27Zm5.14,5.28v1.17c0,7.76,0,15.52,0,23.29,0,1,.23,1.24,1.22,1.24,7.76,0,15.52,0,23.29,0h1.13V104.21Z"/><path class="cls-1" d="M27,68.13h5.08V93.87H27Z"/><path class="cls-1" d="M78.48,129.93l0,5.07H68.13v-5.07Z"/><path class="cls-1" d="M135,73.2H124.75V68.13H135Z"/><path class="cls-1" d="M98.9,124.64l0,10.36H93.87l0-10.36,0,0h5.09Z"/><path class="cls-1" d="M109.27,135l0-5.07h5.29V135Z"/><path class="cls-1" d="M135,129.94h-5.07v-5.27H135Z"/><path class="cls-1" d="M135,114.33l-5.07,0,0,0v-5.09l0,0H135Z"/><path class="cls-1" d="M135,83.53h-5.07V78.47H135Z"/><path class="cls-1" d="M109.28,130h-5.09v-5.32H98.9l0,0V114.52H88.8v5.1l0,0H83.58V130H78.46v-5.21H68.2v-10.3H78.46v-5.2h5.08v5.12H88.7V109.3h15.53V98.9l0,0h5.14v5.13h5.13V93.88h5.16l0,0q0,5.18,0,10.37l0,0h-5.09v10.24h13c.8,0,1.61-.06,2.41-.09l0,0c0,1.71,0,3.42,0,5.25H109.28Z"/><path class="cls-1" d="M42.32,78.56c1.58,0,3.15-.09,4.73-.11,1.86,0,3.71,0,5.67,0v5h5l0,0c0,1.29.1,2.58.15,3.87,0,.42,0,.83,0,1.4H63v5.1H37.39v-5h4.95V78.53Z"/><path class="cls-1" d="M42.34,78.53h-5V68.21H47.52v5.07h-5.2c0,1.86,0,3.57,0,5.29Z"/><path class="cls-1" d="M68.15,73.17a6.29,6.29,0,0,1-.82.11H53.64c-.27,0-.54,0-.86-.06V68.15H68.15l0,0v5.09Z"/><path class="cls-1" d="M78.49,42.41v5.1H68.19V42.44H78.52Z"/><path class="cls-1" d="M57.71,83.45V78.51H63v4.93H57.7Z"/><path class="cls-1" d="M78.49,63.1V57.8h5.05l0,0q0,2.66,0,5.31l0,0H78.45Z"/><path class="cls-1" d="M104.23,93.88V88.74c-1.54,0-2.9,0-4.26,0-.71,0-1-.17-1-.94.05-1.36,0-2.73,0-4.23h15.43V68.19h5.14V78.42h5.06V93.85h-5l0,0V88.83H109.25v5h-5.05Z"/><path class="cls-1" d="M88.8,93.86v5.09h5v5.14H83.54c0-3.44,0-6.84,0-10.23l0,0h5.31Z"/><path class="cls-1" d="M119.59,104.22h10.35c0,1.72,0,3.39,0,5.06l0,0H119.62v-5.06Z"/><path class="cls-1" d="M104.23,98.9H99v-5h5.18l0,0q0,2.55,0,5.09Z"/><path class="cls-1" d="M88.8,88.82h5v5h-5l0,0V88.8Z"/><path class="cls-1" d="M124.64,124.78v5h-5v-5Z"/><path class="cls-1" d="M93.89,124.64H88.83c0-1.72,0-3.38,0-5.05l0,0h5.06v5.06Z"/><path class="cls-1" d="M52.65,52.67H37.36V37.39H52.65Z"/><path class="cls-1" d="M124.64,37.37V52.64H109.35V37.37Z"/><path class="cls-1" d="M52.64,124.65H37.37V109.33H52.64Z"/></g></svg>