<svg xmlns="http://www.w3.org/2000/svg" viewBox="0 0 42 41"><defs><style>.cls-1{fill:#f9a51a;}</style></defs><title>icones</title><g id="ícones_menores" data-name="ícones menores"><path class="cls-1" d="M7.8,12.2V8.77L12.44,1H9.31L1.55,8.77V12.2a3.12,3.12,0,1,0,6.25,0Z"/><path class="cls-1" d="M21,15.33a3.12,3.12,0,0,0,3.12-3.12V8.77L22.56.95H19.44L17.88,8.77V12.2A3.12,3.12,0,0,0,21,15.33Z"/><path class="cls-1" d="M9.71,12.2a3.12,3.12,0,1,0,6.25,0V8.77L17.5.95H14.38L9.71,8.77Z"/><path class="cls-1" d="M26,12.2a3.12,3.12,0,1,0,6.25,0V8.77L27.62.95H24.5L26,8.77Z"/><path class="cls-1" d="M32.69.95H29.56L34.2,8.77V12.2a3.12,3.12,0,1,0,6.25,0V8.77Z"/><path class="cls-1" d="M37.16,17.42H4.85a.78.78,0,0,0-.78.78V39.27a.78.78,0,0,0,.78.78H37.16a.78.78,0,0,0,.78-.78V18.2A.78.78,0,0,0,37.16,17.42Zm-2.34,3.12V34.3H7.19V20.54Z"/></g></svg>