<svg xmlns="http://www.w3.org/2000/svg" viewBox="0 0 954 185"><defs><style>.cls-1{fill:none;}.cls-1,.cls-2{stroke:#6788a8;stroke-miterlimit:10;stroke-width:3px;}.cls-2{fill:#fff;}.cls-3{fill:#6788a8;}</style></defs><title>icones</title><g id="botões"><line class="cls-1" x1="-0.25" y1="182.5" x2="954.25" y2="182.5"/><path class="cls-2" d="M926.25,182.5h-900V22.5a20,20,0,0,1,20-20h860a20,20,0,0,1,20,20Z"/><path class="cls-3" d="M401.21,111.85V70h9.24v33.42h16.32v8.4Z"/><path class="cls-3" d="M432.65,111.85V70h9.24v41.82Z"/><path class="cls-3" d="M450.35,111.85V70h9.24V88.69L475.73,70h11l-16,18.54,16.5,23.28H476.33L464.39,95.11l-4.8,5.34v11.4Z"/><path class="cls-3" d="M491.57,111.85V70h28.56v8.4H500.81v7.86h18.06v8.22H500.81v8.94h19.74v8.4Z"/><path class="cls-3" d="M530.93,98.65c2.22,3.66,5.7,5.52,10.5,5.52,4.26,0,6.24-1.92,6.24-4.14a4,4,0,0,0-2.28-3.48,14.16,14.16,0,0,0-3.6-1.56c-1-.42-3.42-1.2-4.62-1.68C530.63,90.91,527,87.49,527,81.19a10.29,10.29,0,0,1,4-8.58,15.35,15.35,0,0,1,9.9-3.24c6.06,0,10.68,2.28,13.92,6.84l-6.18,4.68c-1.68-2.16-4.2-3.24-7.5-3.24-3.06,0-5,1.44-5,3.42a3,3,0,0,0,1.62,3c.66.36,1.32.66,1.86.9l3,1c1.38.48,2.58.9,3.6,1.32,7.62,2.88,10.68,6.42,10.68,12.42,0,7.74-5.28,12.78-15.54,12.78-8.46,0-14.34-3.78-17.16-9.24Z"/></g></svg>