<svg xmlns="http://www.w3.org/2000/svg" viewBox="0 0 65 57"><defs><style>.cls-1{fill:#fff;}</style></defs><title>icones</title><g id="rodapé_utilitários" data-name="rodapé utilitários"><path class="cls-1" d="M14.09,45.57H7c-4.18,0-6.44-2.21-6.49-6.48-.07-5.64,0-11.28,0-16.91,0-5,0-10,0-15C.5,2.6,2.75.37,7.35.36q25.27,0,50.53,0c4.58,0,6.66,2.11,6.66,6.66q0,16.06,0,32.12c0,4.35-2.07,6.41-6.41,6.42-8.92,0-17.84,0-26.76,0A4.44,4.44,0,0,0,27.81,47c-2.61,2.73-5.32,5.37-8,8-1,1-2.09,2.06-3.73,1.36s-2-2-2-3.66C14.13,50.49,14.09,48.21,14.09,45.57Zm6.38-18.11a2.92,2.92,0,0,0,3-3.11,3.1,3.1,0,1,0-6.2.13A2.91,2.91,0,0,0,20.47,27.45Zm24.23,0a3,3,0,0,0,3.22-2.94,3.2,3.2,0,0,0-3.13-3.34,3.16,3.16,0,0,0-3.08,3.14A2.9,2.9,0,0,0,44.71,27.45Zm-12,0a3.22,3.22,0,0,0,3.15-3.12,3.47,3.47,0,0,0-3.21-3.16,3.4,3.4,0,0,0-3.24,3.32A3.24,3.24,0,0,0,32.68,27.45Z"/></g></svg>