<svg xmlns="http://www.w3.org/2000/svg" viewBox="0 0 280 280"><defs><style>.cls-1{fill:#ccc;}.cls-2{fill:#fff;}.cls-3{fill:#d8d2c4;}.cls-4{fill:#aba89e;}.cls-5{fill:#abaaa0;}.cls-6{fill:#a03123;}.cls-7{fill:#e94f3d;}</style></defs><title>icones</title><g id="pop-ups"><rect class="cls-1" x="0.25" y="-0.25" width="280.25" height="280.25" rx="46.97" ry="46.97"/><rect class="cls-2" x="5.99" y="5.49" width="268.77" height="268.77" rx="41.23" ry="41.23"/><rect class="cls-3" x="58.32" y="78.8" width="167.35" height="121.4" rx="10.97" ry="10.97"/><path class="cls-4" d="M225.68,93.15v96.09a11,11,0,0,1-11,11H201.39l-61.15-44.66Z"/><polygon class="cls-5" points="84.83 200.2 225.68 97.33 225.68 93.14 79.09 200.2 84.83 200.2"/><path class="cls-6" d="M225.68,89.76v99.47a10.78,10.78,0,0,1-.45,3.09,11,11,0,0,1-10.52,7.87h-8.09V84.35l.52-.38,7.07-5.17h.5A11,11,0,0,1,225.68,89.76Z"/><path class="cls-7" d="M214.71,78.8h-.5L207.14,84l-.52.38-64,46.78L77.38,83.51,70.93,78.8H69.29a11,11,0,0,0-11,11v99.47a10.78,10.78,0,0,0,.45,3.09,11,11,0,0,0,10.52,7.87h8.09V109.63l47.31,34.55,15.55,11.36,2.87,2.1L161,144.58l45.62-33.32.52-.38,18.54-13.53V89.76A11,11,0,0,0,214.71,78.8Z"/></g></svg>