<svg xmlns="http://www.w3.org/2000/svg" viewBox="0 0 199 199"><defs><style>.cls-1{fill:#ccc;}.cls-2{fill:#fff;}.cls-3{fill:#005098;}.cls-4{fill:#f6a500;}</style></defs><title>icones</title><g id="ícones_menores" data-name="ícones menores"><rect class="cls-1" x="-0.25" y="-0.25" width="199.5" height="199.5" rx="33.43" ry="33.43"/><rect class="cls-2" x="3.83" y="3.83" width="191.33" height="191.33" rx="29.35" ry="29.35"/><polygon class="cls-3" points="79.8 118.36 86.38 79.74 96.9 79.74 90.32 118.36 79.8 118.36"/><path class="cls-3" d="M128.49,80.69a27.18,27.18,0,0,0-9.43-1.62c-10.4,0-17.73,5.24-17.79,12.74-.06,5.55,5.23,8.64,9.22,10.49s5.47,3.1,5.45,4.79c0,2.59-3.27,3.77-6.3,3.77a22.06,22.06,0,0,1-9.91-2l-1.36-.61-1.48,8.64a33.32,33.32,0,0,0,11.72,2.06c11.06,0,18.25-5.18,18.33-13.19,0-4.39-2.76-7.74-8.84-10.49-3.68-1.79-5.93-3-5.91-4.79,0-1.61,1.91-3.32,6-3.32a19.41,19.41,0,0,1,7.88,1.48l.94.45,1.43-8.37"/><path class="cls-3" d="M155.48,79.78h-8.13c-2.52,0-4.4.69-5.51,3.2l-15.63,35.39h11.05s1.81-4.76,2.22-5.8l13.48,0c.31,1.35,1.28,5.79,1.28,5.79H164l-8.52-38.59m-13,24.89c.87-2.22,4.19-10.79,4.19-10.79s.86-2.24,1.4-3.69l.71,3.33,2.44,11.15Z"/><path class="cls-3" d="M71,79.77,60.67,106.1l-1.1-5.35C57.65,94.58,51.67,87.9,45,84.55l9.42,33.77H65.55L82.12,79.77H71"/><path class="cls-4" d="M51.11,79.75h-17l-.13.8c13.2,3.2,21.94,10.92,25.57,20.2L55.88,83c-.64-2.45-2.48-3.17-4.77-3.26"/></g></svg>