<svg xmlns="http://www.w3.org/2000/svg" viewBox="0 0 252 252"><defs><style>.cls-1{fill:#ccc;}.cls-2,.cls-4{fill:#fff;}.cls-3{fill:#10482f;}.cls-3,.cls-4,.cls-5{fill-rule:evenodd;}.cls-5{fill:#fce530;}</style></defs><title>icones</title><g id="utilitários_e_qrcode" data-name="utilitários e qrcode"><rect class="cls-1" width="252" height="252" rx="42.23" ry="42.23"/><rect class="cls-2" x="5.16" y="5.16" width="241.68" height="241.68" rx="37.07" ry="37.07"/><path class="cls-3" d="M72,105.53h38.89c5.58,0,7.29,1,8.4,1.87.47.38.46.58.54-.09.05-.44.1-.78.15-1.22s.08-.55.55-.55h71c.63,0,.72,0,.8.66.31,2.11.6,4.26.91,6.38.11.75,0,.87.53.3,4.17-4.9,9.68-7.88,14.66-7.41.71.07.6.09.82-.6l2.26-7c.3-.93.31-.93.8-.12,3.72,6.09,7.42,12.07,11.13,18.15,1,1.69,1.3,1.5-.55,2.27l-18.62,7.68c-1.5.62-1.81.75-1.32-.8.17-.53.44-1.16.33-1.22s-.27.12-.72.62a41.21,41.21,0,0,0-8.11,13c-.36.94-.43.75.58.75h3.78a1.94,1.94,0,0,1,2.17,2.22v4.06c0,2.1-1.06,2.84-2.65,2.84H162.5c-1.22,0-1.26.07-1.07-1.12l.62-3.86c.07-.44.23-.55-.25-.55h-.34c-.38,0-.39.28-.57.61l-2,3.72c-.67,1.25-.57,1.21-2,1.21H116.62c-1.46,0-1.4,0-1.23-1.46l.24-2.09c.14-1.19,0-1-.7-.37-3.77,3.09-8.81,3.92-14.29,3.92h-15c-1.32,0-1.38,0-1-1.24l.52-1.6a20.57,20.57,0,0,1-11.93,3.75c-4.69,0-8.91-2-10.65-5.57-6.52,6.07-16.72,6.32-19.77,4.76l-2.46,7c-.17.4-.34.41-.62,0L28,135.15c-.53-.87-.28-.93.7-1.34l15.58-6.56c.75-.32.73-.2.55-1-2.19-9.44,2.2-16,8.2-19,5.7-2.88,12.86-2.55,17.2.19.6.38.52.52.75-.19l.4-1.23c.16-.48.09-.48.6-.48Z"/><path class="cls-4" d="M192.47,141.6h2.32V142h-.91v2.22h-.49V142h-.92v-.38Zm2.68,0h.72l.71,2.08.73-2.08H198v2.6h-.47v-2.15l-.74,2.15h-.48l-.73-2.15v2.15h-.46v-2.6Z"/><path class="cls-4" d="M73.6,108.92H83l-8.14,24.75c-1.16,3.53,3.57,3.53,4.75-.08l8.12-24.68h9.71l-8,24.28c-2.31,7-8.34,12-15.92,12s-10.2-5-7.89-12l8-24.25ZM32.33,136,45,130.66l-1.51,4.58c2,1.34,7.85,2.1,8.85-.93.73-1.69-.82-3.49-2.35-5.75-1.79-2.65-3.59-5.94-2.16-10.29a13.94,13.94,0,0,1,13-9.81A15.07,15.07,0,0,1,69.61,111l-3.53,7.25c-2.1-1.5-6.59-2.73-8.14.23-1.68,3.22,2,6.75,3.6,9.14,2.27,3.42,2.34,6.66,1.07,9.38-2.13,4.56-8.05,7.67-13.7,7.77a42.65,42.65,0,0,1-8.23-.93l-1.32,4-7-11.86Zm68-27.09H113.5c9.68,0,7.83,13.65-.13,17.08,9.7,7.14.78,18.38-9.95,18.38H88.69l11.66-35.46Zm6.47,7.77h2.62a2,2,0,0,1,2,3l-.13.35a4.71,4.71,0,0,1-4.08,3H105l1.81-6.26Zm-4,13.68h2.63a2.43,2.43,0,0,1,2.54,2.85l-.06.34a3.62,3.62,0,0,1-3.49,2.85h-3.37l1.75-6Z"/><path class="cls-5" d="M180.67,108.92h8.58L191.14,122c6.17-9,11.42-14.1,20.64-13.13l1.29-3.93,6.67,10.85-11.88,5,1.41-4.3c-2.23-1.83-14.42,6.11-20.75,27.84h-9.91l5.14-15.62-3.09-19.84Zm-14.07,0h12.56L175,144.38h-9.32l1-5.93h-7.46l-3.18,5.93h-8.48l19-35.46Zm3.45,9.39-2.2,13.25h-4.9l7.1-13.25Zm-46.89-9.39L119,144.38h9l10.46-22.48-3.73,22.48h8.68l19-35.46h-9.1l-10.28,22,3.65-22h-7.88l-10.66,22.25,3.74-22.25Z"/></g></svg>