<svg xmlns="http://www.w3.org/2000/svg" viewBox="0 0 59 56"><defs><style>.cls-1{fill:#333;}</style></defs><title>icones</title><g id="ícones_menores" data-name="ícones menores"><path class="cls-1" d="M8.48,52.5c-2.17-.91-2.64-1.64-2.64-4.05q0-6.2,0-12.41c0-.39,0-.78,0-1.23h6.57V45.88H46.55V34.81h6.61v2.64q0,5.5,0,11c0,2.4-.48,3.14-2.64,4.06Z"/><path class="cls-1" d="M33.75,3.5a4.75,4.75,0,0,1,.44,1.35c0,4.79,0,9.57,0,14.36v1.33c1.57,0,3,0,4.51,0a6.19,6.19,0,0,1,1.31.32,6.25,6.25,0,0,1-.57,1.21Q35.26,27.58,31,33c-1.06,1.37-1.49,1.34-2.59,0q-4.51-5.44-9-10.88A9.08,9.08,0,0,1,18.74,21h6.2c0-.52,0-.91,0-1.3,0-5,0-10,0-15a3.45,3.45,0,0,1,.5-1.18Z"/></g></svg>