<svg xmlns="http://www.w3.org/2000/svg" viewBox="0 0 954 185"><defs><style>.cls-1{fill:#fff;stroke:#345482;stroke-miterlimit:10;stroke-width:3px;}.cls-2{fill:#345482;}</style></defs><title>icones</title><g id="botões"><line class="cls-1" x1="-0.25" y1="182.5" x2="954.25" y2="182.5"/><path class="cls-1" d="M926.25,182.5h-900V22.5a20,20,0,0,1,20-20h860a20,20,0,0,1,20,20Z"/><path class="cls-2" d="M380.81,77.17l-6.3,5.34a13.57,13.57,0,0,0-10.62-4.74,12.94,12.94,0,0,0-9.42,3.78A12.57,12.57,0,0,0,350.63,91a12.75,12.75,0,0,0,3.78,9.42,13.18,13.18,0,0,0,9.48,3.72,13.66,13.66,0,0,0,10.68-4.8l6.3,5.34a22.15,22.15,0,0,1-17,7.86,22.49,22.49,0,0,1-16-6.12A20.27,20.27,0,0,1,341.39,91a20.27,20.27,0,0,1,6.54-15.42,22.91,22.91,0,0,1,32.88,1.62Z"/><path class="cls-2" d="M382.91,111.85,400.19,70h8.22l17.28,41.82h-9.84l-2.82-7H395.57l-2.82,7Zm15.3-14.4h12.18l-6.06-15.18Z"/><path class="cls-2" d="M430.67,111.85V70h17.52a13.81,13.81,0,0,1,10,4A13.32,13.32,0,0,1,455,95.71l10.2,16.14H454.73L446,97.93h-6.18v13.92Zm9.18-22.08h7.32c3.6,0,6-2.28,6-5.82A5.26,5.26,0,0,0,448,78.43h-8.1Z"/><path class="cls-2" d="M476.57,111.85V78.43H465.23V70H497v8.4H485.81v33.42Z"/><path class="cls-2" d="M505.07,75.67a22.06,22.06,0,0,1,15.84-6.3,21.82,21.82,0,0,1,15.78,6.3A20.42,20.42,0,0,1,543.23,91a20.71,20.71,0,0,1-6.48,15.42,23.22,23.22,0,0,1-31.68,0,21.51,21.51,0,0,1,0-30.78Zm6.54,24.84a12.67,12.67,0,0,0,9.3,3.78,12.36,12.36,0,0,0,9.24-3.84,13.48,13.48,0,0,0,.06-18.78,13,13,0,0,0-18.6,0,13.63,13.63,0,0,0,0,18.84Zm-2.46-34.32c.66-4.62,3.42-7.8,7.74-7.8a12.13,12.13,0,0,1,4.86,1.26,11.32,11.32,0,0,0,4.08,1.26q2.07,0,2.7-2.52l4.92.78c-.72,5.46-3.36,8.16-7.86,8.16a12.16,12.16,0,0,1-5-1.26,11.32,11.32,0,0,0-4.08-1.26,2.28,2.28,0,0,0-2.46,2.1Z"/><path class="cls-2" d="M549.41,111.85V70H578v8.4H558.65v7.86h18.06v8.22H558.65v8.94h19.74v8.4Z"/><path class="cls-2" d="M588.77,98.65c2.22,3.66,5.7,5.52,10.5,5.52,4.26,0,6.24-1.92,6.24-4.14a4,4,0,0,0-2.28-3.48,14.16,14.16,0,0,0-3.6-1.56c-1-.42-3.42-1.2-4.62-1.68-6.54-2.4-10.14-5.82-10.14-12.12a10.29,10.29,0,0,1,4-8.58,15.35,15.35,0,0,1,9.9-3.24c6.06,0,10.68,2.28,13.92,6.84l-6.18,4.68c-1.68-2.16-4.2-3.24-7.5-3.24-3.06,0-5,1.44-5,3.42a3,3,0,0,0,1.62,3c.66.36,1.32.66,1.86.9l3,1c1.38.48,2.58.9,3.6,1.32,7.62,2.88,10.68,6.42,10.68,12.42,0,7.74-5.28,12.78-15.54,12.78-8.46,0-14.34-3.78-17.16-9.24Z"/></g></svg>