<svg xmlns="http://www.w3.org/2000/svg" viewBox="0 0 954 185"><defs><style>.cls-1{fill:#fff;stroke:#00254e;stroke-miterlimit:10;stroke-width:3px;}.cls-2{fill:#00254e;}</style></defs><title>icones</title><g id="botões"><line class="cls-1" x1="-0.25" y1="182.5" x2="954.25" y2="182.5"/><path class="cls-1" d="M47,2.5H907a20,20,0,0,1,20,20v160a0,0,0,0,1,0,0H27a0,0,0,0,1,0,0V22.5A20,20,0,0,1,47,2.5Z"/><path class="cls-2" d="M384,96.55c2.22,3.66,5.7,5.52,10.5,5.52,4.26,0,6.24-1.92,6.24-4.14a4,4,0,0,0-2.28-3.48,14.16,14.16,0,0,0-3.6-1.56c-1-.42-3.42-1.2-4.62-1.68-6.54-2.4-10.14-5.82-10.14-12.12a10.29,10.29,0,0,1,4-8.58,15.35,15.35,0,0,1,9.9-3.24c6.06,0,10.68,2.28,13.92,6.84l-6.18,4.68c-1.68-2.16-4.2-3.24-7.5-3.24-3.06,0-5,1.44-5,3.42a3,3,0,0,0,1.62,3c.66.36,1.32.66,1.86.9l3,1c1.38.48,2.58.9,3.6,1.32C406.9,88.09,410,91.63,410,97.63c0,7.74-5.28,12.78-15.54,12.78-8.46,0-14.34-3.78-17.16-9.24Z"/><path class="cls-2" d="M411.28,109.75l17.28-41.82h8.22l17.28,41.82h-9.84l-2.82-7H423.94l-2.82,7Zm15.3-14.4h12.18L432.7,80.17Z"/><path class="cls-2" d="M459,109.75V67.93h9.24v33.42H484.6v8.4Z"/><path class="cls-2" d="M490.24,109.75V67.93h15.84c7.08,0,12.54,1.92,16.38,5.82s5.82,8.88,5.82,15.18-1.92,11.4-5.76,15.18-9.24,5.64-16.38,5.64Zm9.24-8.4h6.06c9.84,0,13.44-4.74,13.44-12.42,0-3.9-1-7-3.06-9.24s-5.46-3.36-10.44-3.36h-6Z"/><path class="cls-2" d="M539,73.57a22.06,22.06,0,0,1,15.84-6.3,21.82,21.82,0,0,1,15.78,6.3,20.42,20.42,0,0,1,6.54,15.36,20.71,20.71,0,0,1-6.48,15.42,23.22,23.22,0,0,1-31.68,0,21.51,21.51,0,0,1,0-30.78Zm6.54,24.84a12.67,12.67,0,0,0,9.3,3.78,12.36,12.36,0,0,0,9.24-3.84,13.48,13.48,0,0,0,.06-18.78,13,13,0,0,0-18.6,0,13.63,13.63,0,0,0,0,18.84Z"/></g></svg>