<svg xmlns="http://www.w3.org/2000/svg" viewBox="0 0 252 252"><defs><style>.cls-1{fill:#ccc;}.cls-2{fill:#e8530e;}.cls-3{fill:#fff;fill-rule:evenodd;}</style></defs><title>icones</title><g id="utilitários_e_qrcode" data-name="utilitários e qrcode"><rect class="cls-1" width="252" height="252" rx="42.23" ry="42.23"/><rect class="cls-2" x="5.16" y="5.16" width="241.68" height="241.68" rx="37.07" ry="37.07"/><path class="cls-3" d="M175.67,138.06h1.42v6.82h-1.66v-5l-1.27.86-.81-1.18,2.32-1.52Zm5.24.74a.74.74,0,0,0-.6.28,1.29,1.29,0,0,0,0,1.47.78.78,0,0,0,1.19,0,1.31,1.31,0,0,0,0-1.47.74.74,0,0,0-.6-.28Zm0-.85a2.39,2.39,0,0,1,1.6.5,1.91,1.91,0,0,1,0,2.74,2.86,2.86,0,0,1-3.2,0,1.91,1.91,0,0,1,0-2.74,2.37,2.37,0,0,1,1.6-.5Zm5.84-.41h.91v7.35h-.91v-7.35Zm4.19,2.41h.91v2.73a1.89,1.89,0,0,0,.27,1.12,1,1,0,0,0,.82.36,1.12,1.12,0,0,0,1-.49,2.54,2.54,0,0,0,.34-1.44v-2.28h.91v4.94h-.84v-1a1.89,1.89,0,0,1-.7.77,1.94,1.94,0,0,1-1,.25,1.54,1.54,0,0,1-1.27-.52,2.38,2.38,0,0,1-.43-1.54v-2.94Zm9.61.6a1.12,1.12,0,0,0-1,.49,2.18,2.18,0,0,0-.36,1.32,2.15,2.15,0,0,0,.36,1.31,1.13,1.13,0,0,0,1,.49,1.21,1.21,0,0,0,1-.49,2,2,0,0,0,.38-1.28,2.17,2.17,0,0,0-.37-1.35,1.21,1.21,0,0,0-1-.49Zm1.48.28v-.88h.84v4.37a3,3,0,0,1-.62,2,2.37,2.37,0,0,1-1.84.68,4.7,4.7,0,0,1-.86-.08,4.23,4.23,0,0,1-.79-.23l.07-.83a3.85,3.85,0,0,0,.76.3,2.6,2.6,0,0,0,.69.1,1.66,1.66,0,0,0,1.27-.48,1.9,1.9,0,0,0,.45-1.35v-.59a2.12,2.12,0,0,1-.72.74,1.8,1.8,0,0,1-.94.25,1.84,1.84,0,0,1-1.49-.68,2.74,2.74,0,0,1-.57-1.8,2.89,2.89,0,0,1,.56-1.87,1.84,1.84,0,0,1,1.5-.7,1.89,1.89,0,0,1,1,.25,1.92,1.92,0,0,1,.7.75Zm6.4,1.61a2.53,2.53,0,0,0-1.27.26.82.82,0,0,0-.44.74.81.81,0,0,0,.25.61.9.9,0,0,0,.65.24,1.32,1.32,0,0,0,1-.4,1.51,1.51,0,0,0,.38-1.08v-.37Zm1.46-.56v3h-.82v-.83a1.85,1.85,0,0,1-.71.67,2.07,2.07,0,0,1-1,.22,1.61,1.61,0,0,1-1.14-.4,1.49,1.49,0,0,1,.22-2.28,3.49,3.49,0,0,1,1.9-.43H209v-.1a1.12,1.12,0,0,0-1.22-1.22,2.32,2.32,0,0,0-.67.1,3.45,3.45,0,0,0-.71.31v-.75a3.55,3.55,0,0,1,.78-.27,4.11,4.11,0,0,1,.87-.09,1.76,1.76,0,0,1,1.38.51,2.25,2.25,0,0,1,.46,1.54Zm6-2,0,.88-.2,0h-.18a1.15,1.15,0,0,0-1,.44,2,2,0,0,0-.34,1.26v2.48h-.91v-4.94h.83v1a1.84,1.84,0,0,1,.57-.82,1.36,1.36,0,0,1,.85-.28h.18l.21,0Zm1.89,3.94h1v1.05h-1v-1.05ZM159,142.25v.37h-3.5a1.82,1.82,0,0,0,.51,1.23,1.69,1.69,0,0,0,1.23.44,2.65,2.65,0,0,0,.68-.09,3.31,3.31,0,0,0,.69-.28v.79a3.25,3.25,0,0,1-.71.21,4.72,4.72,0,0,1-.85.07,2.28,2.28,0,0,1-1.77-.71,2.74,2.74,0,0,1-.65-1.93,2.63,2.63,0,0,1,.64-1.84,2.14,2.14,0,0,1,1.66-.7,1.9,1.9,0,0,1,1.53.65,2.65,2.65,0,0,1,.55,1.78Zm-.86-.24a1.94,1.94,0,0,0-.38-1.14,1.1,1.1,0,0,0-.89-.4,1.16,1.16,0,0,0-.91.41,1.94,1.94,0,0,0-.43,1.12Zm7.63-1.11a2,2,0,0,1,.7-.8,1.76,1.76,0,0,1,1-.27,1.4,1.4,0,0,1,1.18.53,2.49,2.49,0,0,1,.41,1.54v3h-.91V142.1a2,2,0,0,0-.24-1.1.8.8,0,0,0-.72-.36,1.1,1.1,0,0,0-.93.46,2.1,2.1,0,0,0-.34,1.27v2.52H165V142.1a2.06,2.06,0,0,0-.23-1.12.85.85,0,0,0-.76-.35,1,1,0,0,0-.89.47,2.11,2.11,0,0,0-.34,1.26v2.52h-.91v-4.94h.85v.91a1.94,1.94,0,0,1,.68-.76,1.74,1.74,0,0,1,.95-.26,1.45,1.45,0,0,1,.89.28,1.69,1.69,0,0,1,.56.8Zm-36.39-.8-.07.79a2,2,0,0,0-.5-.19,2.36,2.36,0,0,0-.56-.07,1.64,1.64,0,0,0-1.24.49,1.75,1.75,0,0,0-.47,1.28,1.81,1.81,0,0,0,.46,1.29,1.6,1.6,0,0,0,1.22.49,2.28,2.28,0,0,0,.56-.07,3,3,0,0,0,.57-.21l0,.81a3.35,3.35,0,0,1-.64.17,4,4,0,0,1-.68.06,2.45,2.45,0,0,1-1.82-.69,2.48,2.48,0,0,1-.69-1.83,2.43,2.43,0,0,1,.71-1.82,2.57,2.57,0,0,1,1.87-.69,3.9,3.9,0,0,1,.65.05,2.84,2.84,0,0,1,.58.16Zm5.13,2.33a2.53,2.53,0,0,0-1.27.26.82.82,0,0,0-.44.74.81.81,0,0,0,.25.61.9.9,0,0,0,.65.24,1.32,1.32,0,0,0,1-.4,1.51,1.51,0,0,0,.38-1.08v-.37Zm1.46-.56v3h-.82v-.83a1.85,1.85,0,0,1-.71.67,2.07,2.07,0,0,1-1,.22,1.61,1.61,0,0,1-1.14-.4,1.49,1.49,0,0,1,.22-2.28,3.49,3.49,0,0,1,1.9-.43h.64v-.1a1.12,1.12,0,0,0-1.22-1.22,2.32,2.32,0,0,0-.67.1,3.45,3.45,0,0,0-.71.31v-.75a3.56,3.56,0,0,1,.78-.27,4.11,4.11,0,0,1,.87-.09,1.76,1.76,0,0,1,1.38.51,2.25,2.25,0,0,1,.46,1.54Zm6.07-1.81,0,.75a3,3,0,0,0-.61-.21,2.87,2.87,0,0,0-.64-.07,1,1,0,0,0-.6.15.47.47,0,0,0-.23.41.55.55,0,0,0,.19.4,3.19,3.19,0,0,0,.77.45,3.23,3.23,0,0,1,1.07.7,1.22,1.22,0,0,1,.29.82,1.25,1.25,0,0,1-.54,1.07,2.42,2.42,0,0,1-1.46.4,3.59,3.59,0,0,1-1.3-.24l0-.77a3.3,3.3,0,0,0,.67.25,2.63,2.63,0,0,0,.64.08,1.19,1.19,0,0,0,.72-.2.65.65,0,0,0,.11-.95,2.66,2.66,0,0,0-.74-.46,3.55,3.55,0,0,1-1.07-.71,1.13,1.13,0,0,1-.29-.77,1.11,1.11,0,0,1,.49-.94,2.17,2.17,0,0,1,1.31-.36,4.22,4.22,0,0,1,1.23.19Zm5.38,2.37a2.53,2.53,0,0,0-1.27.26.82.82,0,0,0-.44.74.81.81,0,0,0,.25.61.9.9,0,0,0,.65.24,1.32,1.32,0,0,0,1-.4,1.51,1.51,0,0,0,.38-1.08v-.37Zm1.46-.56v3h-.82v-.83a1.85,1.85,0,0,1-.71.67,2.08,2.08,0,0,1-1,.22,1.61,1.61,0,0,1-1.14-.4,1.49,1.49,0,0,1,.22-2.28,3.49,3.49,0,0,1,1.9-.43H148v-.1a1.12,1.12,0,0,0-1.22-1.22,2.32,2.32,0,0,0-.67.1,3.45,3.45,0,0,0-.71.31v-.75a3.55,3.55,0,0,1,.78-.27,4.11,4.11,0,0,1,.87-.09,1.76,1.76,0,0,1,1.38.51,2.25,2.25,0,0,1,.46,1.54Zm-43.45-1.81,0,.75a3,3,0,0,0-.61-.21,2.87,2.87,0,0,0-.64-.07,1,1,0,0,0-.6.15.47.47,0,0,0-.23.41.55.55,0,0,0,.19.4,3.18,3.18,0,0,0,.77.45,3.24,3.24,0,0,1,1.07.7,1.22,1.22,0,0,1,.29.82,1.25,1.25,0,0,1-.54,1.07,2.42,2.42,0,0,1-1.46.4,3.59,3.59,0,0,1-1.3-.24l0-.77a3.3,3.3,0,0,0,.67.25,2.63,2.63,0,0,0,.64.08,1.19,1.19,0,0,0,.72-.2.65.65,0,0,0,.11-.95,2.66,2.66,0,0,0-.74-.46,3.55,3.55,0,0,1-1.07-.71,1.13,1.13,0,0,1-.29-.77,1.11,1.11,0,0,1,.49-.94,2.17,2.17,0,0,1,1.31-.36,4.22,4.22,0,0,1,1.23.19Zm3.07-.13h.91v2.73a1.89,1.89,0,0,0,.27,1.12,1,1,0,0,0,.82.36,1.12,1.12,0,0,0,1-.49,2.54,2.54,0,0,0,.34-1.44v-2.28h.91v4.94h-.84v-1a1.88,1.88,0,0,1-.7.77,1.94,1.94,0,0,1-1,.25,1.54,1.54,0,0,1-1.27-.52,2.38,2.38,0,0,1-.43-1.54v-2.94Zm9.87,2.5a2.53,2.53,0,0,0-1.27.26.82.82,0,0,0-.44.74.81.81,0,0,0,.25.61.9.9,0,0,0,.65.24,1.32,1.32,0,0,0,1-.4,1.51,1.51,0,0,0,.38-1.08v-.37Zm1.46-.56v3H119v-.83a1.85,1.85,0,0,1-.71.67,2.07,2.07,0,0,1-1,.22,1.61,1.61,0,0,1-1.14-.4,1.49,1.49,0,0,1,.22-2.28,3.49,3.49,0,0,1,1.9-.43H119v-.1a1.12,1.12,0,0,0-1.22-1.22,2.32,2.32,0,0,0-.67.1,3.44,3.44,0,0,0-.71.31v-.75a3.55,3.55,0,0,1,.78-.27,4.11,4.11,0,0,1,.87-.09,1.76,1.76,0,0,1,1.38.51,2.25,2.25,0,0,1,.46,1.54Zm-25.71-3-1.35,3.47h2.67l-1.31-3.47Zm-.56-.84h1.16l2.67,6.82h-1l-.66-1.75H92.49l-.66,1.75h-1Z"/><path class="cls-3" d="M90.83,131.72h128V135h-128v-3.25Zm122-23.78,3-3,3,3-3,3-3-3ZM111.37,124.09c-.07.26-.15.51-.25.77s-.16.36-.25.55a8.38,8.38,0,0,1-.51.84c-.15.21-.31.41-.48.6s-.36.37-.55.54l-.3.25a11,11,0,0,1-1.08.73l-.58.31c-.33.16-.67.3-1,.42a11,11,0,0,1-1.2.33,18.77,18.77,0,0,1-3.58.32H90.83V105.6h9.81c1.13,0,2.26,0,3.38.13a10.67,10.67,0,0,1,1.15.18,10.16,10.16,0,0,1,1,.3c.35.13.68.27,1,.44a7.71,7.71,0,0,1,.67.39,6.62,6.62,0,0,1,.58.46,6.09,6.09,0,0,1,.49.52c.11.14.21.29.31.44s.18.31.26.47a6.27,6.27,0,0,1,.32.83c0,.18.09.35.12.53a7.57,7.57,0,0,1,.09.93c0,.21,0,.42,0,.64a7.71,7.71,0,0,1-.12.85c0,.21-.1.41-.17.61s-.15.39-.24.58-.2.37-.3.55-.24.35-.37.51l-.28.32a6.36,6.36,0,0,1-1.39,1.1,8,8,0,0,1,1.3.52l.47.27.44.3.41.33.37.37.34.4.3.43.25.46.2.49.16.52.11.55.07.57c0,.27,0,.55,0,.82s0,.43,0,.65a8.74,8.74,0,0,1-.18,1Zm-8.27-11.61a2.91,2.91,0,0,0-.06-.36l-.08-.25a2.19,2.19,0,0,0-.24-.46l-.17-.18-.23-.16a2.91,2.91,0,0,0-.36-.16,5,5,0,0,0-1.45-.22c-1,0-1.95,0-2.92,0v4.17c.77,0,1.54,0,2.31,0a5.94,5.94,0,0,0,2-.28l.24-.11a3,3,0,0,0,.4-.27l.18-.19.12-.2a3.67,3.67,0,0,0,.13-.39l.06-.29a4.2,4.2,0,0,0,0-.61Zm1.47,9.38a3.87,3.87,0,0,0-.09-.64l-.05-.18a1.6,1.6,0,0,0-.41-.65l-.13-.1a3.18,3.18,0,0,0-1.19-.49,12.92,12.92,0,0,0-2.38-.15H97.6v5l3.69,0,.63,0a5.17,5.17,0,0,0,1.14-.29c.17-.07.34-.15.5-.24l.31-.21.23-.23a2.12,2.12,0,0,0,.21-.31,2.78,2.78,0,0,0,.19-.53,3.45,3.45,0,0,0,.08-.71v-.25Zm19.61-.26a22.7,22.7,0,0,0-2.72.4,5.14,5.14,0,0,0-.72.23l-.3.16-.25.18-.2.19-.15.21-.11.25-.07.29a3.24,3.24,0,0,0,.06,1.13l0,.11a1.56,1.56,0,0,0,.55.54,2.25,2.25,0,0,0,.72.26,7.78,7.78,0,0,0,1.22.08h.29a4.89,4.89,0,0,0,2.57-1v-3.07l-.92.09Zm-1.71,8.15a8.91,8.91,0,0,1-1.64.38,10.3,10.3,0,0,1-2.24,0,7.94,7.94,0,0,1-1.06-.19c-.24-.07-.48-.14-.71-.23a7,7,0,0,1-.93-.47,7.43,7.43,0,0,1-.73-.52l-.23-.2a8.78,8.78,0,0,1-.61-.66l-.18-.23-.16-.24-.15-.25-.14-.26-.12-.26-.2-.55-.14-.58-.08-.6,0-.62c0-.25,0-.49,0-.74s.06-.46.1-.69.1-.43.16-.64.14-.4.23-.59.19-.37.3-.55.23-.33.36-.49.27-.3.41-.45l.46-.41.52-.37.57-.33a11.21,11.21,0,0,1,1-.45l.69-.23c.51-.15,1-.27,1.54-.37,1-.17,1.94-.28,2.91-.38s1.79-.16,2.69-.22a1.9,1.9,0,0,0-.23-.77,2,2,0,0,0-.21-.27,2.3,2.3,0,0,0-.28-.23,4.94,4.94,0,0,0-1.82-.55,12.49,12.49,0,0,0-2.44-.07c-.36,0-.71.09-1.06.16s-.62.14-.93.23c-.72.22-1.43.45-2.13.69v-5.11c.88-.16,1.76-.32,2.65-.44a28.15,28.15,0,0,1,2.82-.21c.75,0,1.5,0,2.25,0,.52,0,1,.09,1.56.16s.92.16,1.38.27l.82.24a9,9,0,0,1,1.08.46c.21.12.42.24.62.37l.41.32a6.18,6.18,0,0,1,.6.6l.31.4.42.74.2.48a7.4,7.4,0,0,1,.27,1.06l.07.57c0,.27,0,.53,0,.8v12.38H125.1v-1.48l-.35.26a8.9,8.9,0,0,1-1.61,1l-.67.26Zm17.58,0h-6.43V105.43H140v24.31Zm12.7-8.15a21.34,21.34,0,0,0-2.82.42,5.11,5.11,0,0,0-.62.21l-.3.16-.25.18-.2.19-.15.21-.11.25-.07.29a3.2,3.2,0,0,0,.06,1.13l0,.11a1.56,1.56,0,0,0,.55.54,2.25,2.25,0,0,0,.72.26,7.77,7.77,0,0,0,1.22.08h.29a4.89,4.89,0,0,0,2.57-1v-3.07l-.92.09Zm-1.37,8a9,9,0,0,1-1.25.38l-.35.07a10.44,10.44,0,0,1-2.45.12,8.22,8.22,0,0,1-1.08-.17,7.45,7.45,0,0,1-.86-.27,7.12,7.12,0,0,1-.8-.39c-.22-.13-.42-.26-.62-.41l-.35-.29c-.19-.17-.37-.35-.54-.53l-.19-.23-.18-.23-.16-.24-.15-.25-.14-.26-.12-.26-.11-.27-.09-.28-.08-.28-.11-.59-.06-.61c0-.27,0-.54,0-.81s0-.47.07-.7.09-.44.14-.66.13-.41.21-.61.17-.38.28-.56.22-.34.34-.51.26-.31.39-.46.29-.28.45-.42l.5-.38c.24-.16.49-.31.74-.44s.54-.26.82-.37l.44-.16a16,16,0,0,1,2-.52c1-.18,2-.29,3.06-.4q1.27-.12,2.54-.2a1.9,1.9,0,0,0-.23-.77,2.05,2.05,0,0,0-.21-.27,2.32,2.32,0,0,0-.28-.23,4.94,4.94,0,0,0-1.82-.55,12.49,12.49,0,0,0-2.44-.07c-.36,0-.71.09-1.06.16s-.62.14-.93.23c-.66.2-1.3.41-2,.63v-5.08c.9-.16,1.81-.32,2.72-.44.68-.08,1.36-.13,2.05-.16a23,23,0,0,1,5,.31c.37.07.72.16,1.08.26s.52.17.78.27a8.73,8.73,0,0,1,.86.41l.46.28a6.56,6.56,0,0,1,.67.54,5,5,0,0,1,.84,1.06,6.78,6.78,0,0,1,.31.61c.09.22.17.44.23.67s.12.47.16.72a9.63,9.63,0,0,1,.11,1.17v12.58h-6.38v-1.48l-.35.26a8.91,8.91,0,0,1-1.61,1l-.33.14ZM173,117.17a8.89,8.89,0,0,0-.89,0l-.54.07a7.81,7.81,0,0,0-.9.23l-.54.21a7.46,7.46,0,0,0-1.67,1v11H162v-18.4h6.43v1.41a10,10,0,0,1,1.6-.74c.39-.14.79-.25,1.2-.35s.81-.16,1.22-.21.68-.06,1-.08h1v6l-1-.13-.53,0Zm23.14,3.38q0,.41,0,.82c0,.44-.07.87-.14,1.3s-.13.65-.21,1-.13.47-.21.7a11.06,11.06,0,0,1-.45,1.09c-.11.21-.22.41-.33.61a10.25,10.25,0,0,1-.66.94l-.46.52a10.39,10.39,0,0,1-.86.78l-.57.41a10.55,10.55,0,0,1-1,.58l-.67.28c-.39.14-.78.26-1.19.37l-.76.16c-.45.07-.89.13-1.34.16s-.76,0-1.14,0-.76,0-1.14,0l-.82-.08c-.43-.06-.86-.14-1.29-.24l-.72-.21a11.52,11.52,0,0,1-1.13-.45c-.29-.14-.56-.29-.83-.45l-.58-.39a10.06,10.06,0,0,1-.88-.76l-.47-.51a10.18,10.18,0,0,1-.69-.92c-.16-.27-.31-.53-.46-.81s-.2-.43-.29-.64a11.79,11.79,0,0,1-.37-1.14c-.08-.33-.15-.65-.21-1s-.09-.69-.12-1,0-.72,0-1.09,0-.55,0-.83c0-.44.07-.87.14-1.31s.13-.65.21-1,.18-.62.29-.93.24-.58.37-.87.29-.54.46-.81.35-.5.54-.75l.46-.52.87-.78.77-.53c.27-.16.55-.31.83-.45s.59-.26.89-.37.63-.2,1-.28l1-.2,1.08-.12,1.14,0,1.15,0c.36,0,.72.07,1.09.12s.68.12,1,.2.64.18,1,.29.6.23.9.37l.63.33a10.11,10.11,0,0,1,1,.66l.53.46a10.43,10.43,0,0,1,.79.85c.19.24.37.49.54.75s.31.53.45.81.2.43.29.64a11.83,11.83,0,0,1,.37,1.14c.06.24.11.48.16.73.07.43.13.85.16,1.28s0,.72,0,1.09Zm-7.64,4a4.22,4.22,0,0,0,.39-.58,4.94,4.94,0,0,0,.39-1,10.69,10.69,0,0,0,.23-2.6,7.2,7.2,0,0,0-.77-3.55l-.1-.16a3.44,3.44,0,0,0-.46-.52l-.26-.19-.28-.15a4.3,4.3,0,0,0-.48-.17,4.45,4.45,0,0,0-2,0l-.23.06a2.55,2.55,0,0,0-.54.24l-.26.19a3.67,3.67,0,0,0-.5.52,3.93,3.93,0,0,0-.39.71,6.84,6.84,0,0,0-.24.69,8.5,8.5,0,0,0-.26,1.65,12.81,12.81,0,0,0,.11,2.82,4.76,4.76,0,0,0,.77,2l.17.2a3.79,3.79,0,0,0,.37.33l.27.17a3.56,3.56,0,0,0,.62.25,4.22,4.22,0,0,0,2.06,0l.32-.09a2.81,2.81,0,0,0,.5-.24l.25-.19.23-.23.11-.13Zm21.9,4.91a18.46,18.46,0,0,1-2.83.51c-4.38.35-8.37-.2-8.85-5.22,0-.33,0-.66,0-1v-7.85h-2.33v-4.61h2.33v-5.91h6.42v5.91h4.38v4.61H205.1c0,2.27,0,4.55,0,6.82,0,.27,0,.53,0,.8.14,1.66,1.39,2.2,2.9,1.87a6.38,6.38,0,0,0,2.37-1.22v5.28Zm8.41.24h-6.43v-17.3h6.43Z"/><path class="cls-3" d="M52.8,130.38c1.44,1.61,4.48,1.1,9.1.76,3.35-.15,5.07-1.08,6.35,3.16l-11.8,4,.3,1,13-4.34a5.54,5.54,0,0,0-1.48-3.45l7.06-3.45c3.25-1.56,5.54-2.76,9.34-1.28l-24.43,18.9a1.82,1.82,0,0,1-2.53,0L33.19,126.79c2.32-1.85,7.61-4.47,11.06-3.43v-3.08h8.59V130.4h0Zm0-24.71L39.58,119H52.85l9.22-9.22L71.28,119h4.65L63,106.09a1.38,1.38,0,0,0-1-.42H52.85ZM62.06,122l3-3-3-3-3,3,3,3Zm9.18,4.72v2.41l5.51-3,2.94-2.86a5,5,0,0,0-5.3.73l-3.16,2.68Zm0-4.1v2.68l2.11-2,2.6-2.14a4.08,4.08,0,0,0-3-.26A3.93,3.93,0,0,0,71.24,122.57Z"/></g></svg>