<svg xmlns="http://www.w3.org/2000/svg" viewBox="0 0 252 252"><defs><style>.cls-1{fill:#ccc;}.cls-2{fill:#fff;}.cls-3{fill:#0064a2;fill-rule:evenodd;}.cls-4{fill:#009ee2;}.cls-5{fill:#ffcb00;}.cls-6{fill:#009540;}.cls-7{fill:#868686;}</style></defs><title>icones</title><g id="utilitários_e_qrcode" data-name="utilitários e qrcode"><rect class="cls-1" width="252" height="252" rx="42.23" ry="42.23"/><rect class="cls-2" x="5.16" y="5.16" width="241.68" height="241.68" rx="37.07" ry="37.07"/><path class="cls-3" d="M59.59,128.36H49.15l4.15-14.53a37.59,37.59,0,0,0,1.17-5.38h.13a34.06,34.06,0,0,0,1,5.38l4,14.53Zm5.5,15.57h0a1.79,1.79,0,0,1-1.7-1.27v0L61,134.39H47.59l-2.47,8.24a1.78,1.78,0,0,1-1.72,1.29H37.79A1.79,1.79,0,0,1,36,142.14a1.75,1.75,0,0,1,.08-.53l0,0,13.34-41a1.79,1.79,0,0,1,1.72-1.3h7.65a1.78,1.78,0,0,1,1.7,1.23l13.3,41a1.75,1.75,0,0,1,.1.58,1.79,1.79,0,0,1-1.76,1.79H65.09ZM75,99.25a1.78,1.78,0,0,1,1-1.62l5.67-3a2.42,2.42,0,0,1,1.17-.34,1.78,1.78,0,0,1,1.79,1.78s0,37.31,0,37.31a4.18,4.18,0,0,0,4.21,4,1.78,1.78,0,0,1,1.78,1.78v2.9a1.78,1.78,0,0,1-1.78,1.79h-2A11.9,11.9,0,0,1,75,132V99.25Zm44.16,12a1.81,1.81,0,0,1,1,1.64v30.73c0,9.71-6.05,14.42-15,14.76a24.06,24.06,0,0,1-10.92-2.15h0a1.81,1.81,0,0,1-1-2.3l1-2.46A1.81,1.81,0,0,1,96,150.16a1.87,1.87,0,0,1,.69.14h0a19.1,19.1,0,0,0,6.76,1.25c5.21,0,7.11-2.47,7.11-6.41v-1.9a12.89,12.89,0,0,1-6,1.07c-8.19,0-14.09-6.28-14.09-16.5,0-11.43,5.84-18.6,17.59-18.6a27.92,27.92,0,0,1,11,2l0,0Zm-8.61,26.63a6.87,6.87,0,0,1-3.44.82c-5,0-7-3.68-7-11.43,0-8.19,2.09-12.31,7.17-12.31a7.66,7.66,0,0,1,3.25.57v22.35Zm33.11,1.2V126c-5.62-.44-10.27,1.63-10.27,7,0,4,2.38,6.32,6.49,6.32a15.05,15.05,0,0,0,3.77-.33Zm9.67-11.55v13.26a1.81,1.81,0,0,1-1.1,1.63l0,0a36.63,36.63,0,0,1-12.84,2c-10.33,0-15.78-3.73-15.78-10.78,0-8.74,7.21-12.79,20.06-12.14-.3-3.38-2.29-5.46-7.07-5.46a19,19,0,0,0-6.76,1.26h0a1.83,1.83,0,0,1-.69.14,1.81,1.81,0,0,1-1.72-1.26l-1-2.46a1.75,1.75,0,0,1-.12-.63,1.81,1.81,0,0,1,1.13-1.68h0a24.07,24.07,0,0,1,10.92-2.15c8.91.35,15,5.05,15,14.76v3.49Zm4.83-13.9a3.17,3.17,0,0,1,2.25-2.94c3.3-1.13,7.62-1.7,14.08-1.52h.05a1.79,1.79,0,0,1,1.79,1.77h0v2.4a1.79,1.79,0,0,1-1.79,1.79h-.21a15.57,15.57,0,0,0-6.54.87v26.21a1.79,1.79,0,0,1-1.79,1.73H160a1.78,1.78,0,0,1-1.79-1.78V113.6Z"/><path class="cls-4" d="M183.48,111a1.79,1.79,0,0,1,2.74-1.46l10.36,6h0a1.79,1.79,0,0,1-.1,3.11l-10.36,6h0a1.78,1.78,0,0,1-2.64-1.64V111Z"/><path class="cls-5" d="M200.06,120.52a1.79,1.79,0,0,1,2.74-1.46l10.36,6h0a1.79,1.79,0,0,1-.11,3.11l-10.35,6h0a1.79,1.79,0,0,1-2.64-1.65v-12Z"/><path class="cls-6" d="M183.48,130.1a1.78,1.78,0,0,1,2.74-1.46l10.36,6h0a1.79,1.79,0,0,1-.1,3.11l-10.36,6h0a1.79,1.79,0,0,1-2.64-1.64v-12Z"/><path class="cls-7" d="M153,152v-2.22h-8.28V152h2.47v11.79h3.36V152Zm6.56,5.3-3.87.57c-.1-2.26.72-3.38,2-3.38s1.83.86,1.83,2.81Zm3,1.18c.14-3.7-1.48-5.86-4.69-5.86s-5,2.22-5,5.66,2,5.73,5.36,5.73a8.7,8.7,0,0,0,4-.8l-.72-2a6.48,6.48,0,0,1-2.88.59,2.42,2.42,0,0,1-2.68-2.4l6.65-.94Zm4.74-10.67H164v16h3.21v-16Zm8.25,9.5-3.87.57c-.1-2.26.72-3.38,2-3.38s1.83.86,1.83,2.81Zm3,1.18c.15-3.7-1.48-5.86-4.69-5.86s-5,2.22-5,5.66,2,5.73,5.35,5.73a8.69,8.69,0,0,0,4-.8l-.72-2a6.48,6.48,0,0,1-2.88.59,2.42,2.42,0,0,1-2.68-2.4l6.65-.94Zm8.37,4.73-.68-1.91a1.91,1.91,0,0,1-1.34.45c-1.28,0-2-1.29-2-3.5s.66-3.51,2.06-3.51a2,2,0,0,1,1.32.43l.66-1.75a4.17,4.17,0,0,0-2.72-.79c-2.47,0-4.55,2-4.55,5.66s1.94,5.73,4.57,5.73a3.85,3.85,0,0,0,2.72-.79Zm7-4.95c0,2-.29,3.58-1.71,3.58s-1.71-1.61-1.71-3.58.29-3.67,1.71-3.67,1.71,1.71,1.71,3.67Zm3.19,0c0-3.28-1.69-5.68-4.92-5.68s-4.88,2.4-4.88,5.68,1.69,5.7,4.9,5.7,4.9-2.42,4.9-5.7Zm17.14,5.5v-7.7c0-1.94-1.36-3.48-4-3.48a5.46,5.46,0,0,0-3.67,1.1,4.83,4.83,0,0,0-3.52-1.1,10.43,10.43,0,0,0-4.49.81v10.37h3.21v-9a3.39,3.39,0,0,1,1.29-.2c1.11,0,1.73.57,1.73,1.45v7.74H208v-8.66a1.9,1.9,0,0,1,1.4-.53,1.42,1.42,0,0,1,1.6,1.49v7.7Z"/></g></svg>