<svg xmlns="http://www.w3.org/2000/svg" viewBox="0 0 49 49"><defs><style>.cls-1{fill:#fff;}.cls-2{fill:none;stroke:#fff;stroke-miterlimit:10;}</style></defs><title>icones</title><g id="ícones_menores" data-name="ícones menores"><path class="cls-1" d="M24.49,16.12c.18-.26.34-.52.52-.76a7.87,7.87,0,0,1,3.48-2.72,6.93,6.93,0,0,1,3.1-.45,6.82,6.82,0,0,1,4,1.6,6.73,6.73,0,0,1,2.32,4.1A10.68,10.68,0,0,1,38,20.46,11.83,11.83,0,0,1,37.5,23a10.24,10.24,0,0,1-1.94,3.58,25.3,25.3,0,0,1-2.92,3C31,31,29.41,32.39,27.81,33.82c-1.08,1-2.14,2-3.21,2.94l-.1.09L24,36.41c-1.71-1.61-3.48-3.16-5.25-4.7C17.4,30.51,16,29.33,14.71,28a14.55,14.55,0,0,1-2.29-2.85,9.91,9.91,0,0,1-1.24-3.53,14.65,14.65,0,0,1-.17-2.8,6.73,6.73,0,0,1,4.3-6.16A7,7,0,0,1,22.76,14a8.31,8.31,0,0,1,1.66,2Z"/><rect class="cls-2" x="1.5" y="1.5" width="46" height="46" rx="6.93" ry="6.93"/></g></svg>