<svg xmlns="http://www.w3.org/2000/svg" viewBox="0 0 252 252"><defs><style>.cls-1{fill:#ccc;}.cls-2{fill:#fff;}</style></defs><title>icones</title><g id="utilitários_e_qrcode" data-name="utilitários e qrcode"><rect class="cls-1" width="252" height="252" rx="42.23" ry="42.23"/><rect x="5.16" y="5.16" width="241.68" height="241.68" rx="37.07" ry="37.07"/><path class="cls-2" d="M29.87,114.85q0,6,0,12c0,3.17,0,6.33,0,9.5,0,3.48.59,4.11,4,4.81l.92.19c0,.44.1.85.1,1.26a6,6,0,0,1-.16.94H21.91V141.4c5.1-1.1,5.22-1.25,5.22-6.52q0-9.59,0-19.18c0-3.39-.31-3.71-3.79-3.89l-1.14-.09a9.46,9.46,0,0,1-.13-1.09,12.24,12.24,0,0,1,.14-1.25c3.66,0,7.29,0,10.92.07.42,0,1,.86,1.2,1.42,2.28,7,4.5,14,6.73,21,.09.28.19.55.4,1.13a13.06,13.06,0,0,0,.57-1.22c2.25-6.86,4.52-13.71,6.69-20.6a2.15,2.15,0,0,1,2.52-1.81c3.39.12,6.78,0,10.25,0v2.34c-.81.06-1.62.09-2.43.18-2.46.25-2.86.68-2.87,3.13,0,5.38,0,10.76,0,16.13,0,2.27,0,4.54,0,6.81,0,2.46.38,2.87,2.85,3.14.77.08,1.54.1,2.46.16v2.22H45.93V141.3c.82-.05,1.58-.08,2.33-.16,2.41-.25,2.87-.73,2.88-3.15,0-6.93,0-13.86,0-20.79a7.83,7.83,0,0,0-.38-2.88c-.21.58-.45,1.14-.64,1.73-2.82,8.69-5.61,17.39-8.47,26.06-.19.59-.89,1-1.36,1.51-.45-.52-1.13-1-1.32-1.57-2.77-8.57-5.48-17.17-8.21-25.76-.16-.5-.32-1-.49-1.49Z"/><path class="cls-2" d="M133.36,111.75v-2.29h28.79v12.47c-1.06.4-1.77.15-1.87-1.17,0-.06,0-.12,0-.18-1.24-7.08-3.24-8.78-10.41-8.77a21.7,21.7,0,0,0-4.45.33c-.64.14-1.57,1-1.59,1.55-.14,3.62-.07,7.24-.07,10.84,4.61.64,7.14-1.11,7.9-5.25.09-.5.73-.9,1.12-1.34l.53.32v15.91c-1.14.52-1.57.17-1.75-1.14-.63-4.57-3.16-6.5-7.77-5.93,0,4.07-.06,8.17.08,12.26a2.27,2.27,0,0,0,1.64,1.48,60.36,60.36,0,0,0,9.43-.18c2.79-.36,4.38-2.54,5.21-5.13.58-1.8,1-3.68,1.44-5.61h1.9l-.86,13.56H133.41v-2.17c.77-.08,1.58-.13,2.39-.26,2.19-.34,2.53-.74,2.54-3.08,0-4.72,0-9.44,0-14.16,0-2.87,0-5.73,0-8.6s-.4-3.19-3.17-3.39C134.65,111.8,134.11,111.78,133.36,111.75Z"/><path class="cls-2" d="M196.95,134.45h-2a29.7,29.7,0,0,1-.57,3.39c-.14.49-.66,1.14-1.08,1.2s-1-.5-1.29-.94a6.91,6.91,0,0,1-.77-2.18c-.76-3.95-2.22-7.42-6.34-9.26a51.26,51.26,0,0,0,5-2.1,7.52,7.52,0,0,0,3.3-9.86,7.89,7.89,0,0,0-7-4.89c-6.66-.36-13.34-.24-20-.31,0,0-.1.06-.22.15v2.07c.45,0,.74.08,1,.1,3.68.22,3.93.48,3.93,4.13q0,10.12,0,20.25c0,4.5-.22,4.74-4.63,5.07-.1,0-.2.11-.32.18-.49,1.53-.18,2.31,1.69,2.23,2.86-.12,5.73,0,8.6,0h4.89v-2.44c-.86,0-1.58.06-2.28,0-1.34-.13-2.36-.81-2.39-2.21-.08-3.85,0-7.7,0-11.66,1.66,0,3.27-.11,4.86,0a3.79,3.79,0,0,1,3.68,3.32c.19.81.22,1.65.34,2.48.35,2.36.56,4.75,1.13,7.05a4.47,4.47,0,0,0,4.38,3.37,4.79,4.79,0,0,0,4.88-2.33A12.24,12.24,0,0,0,196.95,134.45Zm-16.7-9.59h-4c0-3.76,0-7.26,0-10.75a2.1,2.1,0,0,1,2.12-2.22,30.79,30.79,0,0,1,5.69.1c2.29.33,3.24,1.52,3.61,3.81,0,.29.06.59.08.89C188.24,122.86,186.44,124.81,180.25,124.85Z"/><path class="cls-2" d="M132.81,124.67c-.75-9.39-6.73-15.06-16.11-15.26-5-.11-10,0-15,0a4.55,4.55,0,0,0-.82.14v2.19l1.17.1c3.58.22,3.84.49,3.84,4q0,7.52,0,15c0,2.51,0,5,0,7.52,0,1.66-.72,2.56-2.43,2.64-.87,0-1.74.2-2.63.31v2.09a3.57,3.57,0,0,0,.75.18c5.31,0,10.62,0,15.93-.09,4.4-.1,8.33-1.51,11.28-5C132.18,134.54,133.22,129.78,132.81,124.67Zm-6.76,9.19a10.1,10.1,0,0,1-13.38,7c-1.29-.46-1.37-1.52-1.37-2.62,0-3.94,0-7.87,0-11.81s0-7.87,0-11.81c0-1.8.75-2.54,2.5-2.74,7.31-.84,11.68,2.45,12.75,9.74A30.58,30.58,0,0,1,126.06,133.86Z"/><path class="cls-2" d="M224.66,116.11c-5.16-8.36-15.5-9-21.59-1.24a20,20,0,0,0-4.1,11.87,40.33,40.33,0,0,0,1.15,6.3c1.84,5.31,5.12,9.32,11,10.36,5.39.95,9.59-1.22,12.74-5.49A20,20,0,0,0,224.66,116.11Zm-4.52,20.12a6.52,6.52,0,0,1-6.78,5c-3.37,0-5.81-1.53-6.79-5a94.87,94.87,0,0,1-1.76-9.75c.55-3.27.85-6.43,1.66-9.45a6.54,6.54,0,0,1,6.76-5.29c3.47,0,5.8,1.47,6.91,5.08A32.43,32.43,0,0,1,220.14,136.24Z"/><path class="cls-2" d="M92.1,136.33c-2.8-8.43-5.8-16.79-8.7-25.18-.35-1-.65-1.75-2-1.78s-1.81.71-2.2,1.8c-3,8.31-6,16.6-8.92,24.92-1,3-2.51,5.33-6.18,5.17v2.38H75.27c2,0,2-.07,1.59-2.27-.95-.16-1.78-.25-2.58-.44a1.9,1.9,0,0,1-1.66-2.36,43.27,43.27,0,0,1,1.56-5.12c.1-.29.75-.55,1.15-.55,3,0,6.09-.05,9.13,0a1.56,1.56,0,0,1,1.16.79c.7,1.77,1.28,3.59,1.9,5.4.39,1.13-.07,1.71-1.21,1.85l-3.68.42v2.17H98.31v-2.36C94.49,141.7,93.13,139.42,92.1,136.33Zm-16.73-6.45,4.27-12.44.43,0,4.27,12.42Z"/></g></svg>