<svg xmlns="http://www.w3.org/2000/svg" viewBox="0 0 268 268"><defs><style>.cls-1{fill:#f9a51a;}.cls-2{fill:#fff;}</style></defs><title>icones</title><g id="ícones_menores" data-name="ícones menores"><polygon class="cls-1" points="268 268 0 0 268 0 268 268"/><path class="cls-2" d="M161.37,31.94l5.18-5.18L168,28.19l-11.3,11.3c-.85.85-1,1.41-.48,2a6.75,6.75,0,0,0,.54.46L155.66,43a3.38,3.38,0,0,1-1.06-.75,2.53,2.53,0,0,1-.75-1.3,2.7,2.7,0,0,1,.74-2.05,5.52,5.52,0,0,1-5.26-1.82,6.61,6.61,0,0,1-2-5,7.72,7.72,0,0,1,7.37-7.37,6.63,6.63,0,0,1,5,2A5.3,5.3,0,0,1,161.37,31.94Zm-7,5.3a5.42,5.42,0,0,0,3.79-1.7,5.31,5.31,0,0,0,1.68-3.77,4.78,4.78,0,0,0-1.49-3.69,4.63,4.63,0,0,0-3.62-1.41A5.48,5.48,0,0,0,151,28.4a5.6,5.6,0,0,0-1.76,3.73,4.7,4.7,0,0,0,1.43,3.6A4.85,4.85,0,0,0,154.33,37.24Z"/><path class="cls-2" d="M161.48,39a7.39,7.39,0,0,1,5.15-2.4,6.6,6.6,0,0,1,4.93,2.07,5.76,5.76,0,0,1,1.82,4.64,7,7,0,0,1-2.19,4.7c-.21.21-.43.43-.64.6l-7.91-7.91c-2.07,2.22-2.07,5,0,7A5.2,5.2,0,0,0,167,49.33l0,1.88A7.18,7.18,0,0,1,161.31,49,6.84,6.84,0,0,1,159.12,44a7,7,0,0,1,2.28-5Zm8.82,6.85a3.85,3.85,0,0,0,1.16-2.9A4.11,4.11,0,0,0,170.23,40a4.79,4.79,0,0,0-3.15-1.45,4.11,4.11,0,0,0-3.08,1Z"/><path class="cls-2" d="M170.77,52.79c-.58,1.08-.35,2.59,1,3.93,1.61,1.61,2.88,1.41,3.64.66a1.76,1.76,0,0,0,.56-1.64,14.25,14.25,0,0,0-1-2.82c-1.08-2.48-1.22-4.08.19-5.49s3.79-1.35,5.51.37a4.13,4.13,0,0,1,1.14,4.51l-1.76-.56a2.47,2.47,0,0,0-.68-2.61c-.91-.91-2-1.06-2.79-.27s-.54,1.86.37,3.89c1.24,2.79,1.33,4.58-.16,6.07s-4.08,1.57-6.4-.75c-1.86-1.86-2.44-4.14-1.33-6Z"/><path class="cls-2" d="M192.76,62.79l-1.88.14a5.36,5.36,0,0,0-1.68-4,5.08,5.08,0,0,0-3.79-1.59A5.22,5.22,0,0,0,181.62,59a5.32,5.32,0,0,0-1.68,3.81,5.15,5.15,0,0,0,1.61,3.77,5.36,5.36,0,0,0,4,1.68l-.13,1.88A6.93,6.93,0,0,1,180.21,68,7.12,7.12,0,0,1,178,62.81a7.43,7.43,0,0,1,7.37-7.37,7.14,7.14,0,0,1,5.17,2.19A6.93,6.93,0,0,1,192.76,62.79Z"/><path class="cls-2" d="M190,67.41a7,7,0,0,1,5.18-2.17,7.47,7.47,0,0,1,7.35,7.35A7.43,7.43,0,0,1,195.16,80a7.54,7.54,0,0,1-7.35-7.35A7,7,0,0,1,190,67.41Zm1.43,1.43a5.32,5.32,0,0,0-1.68,3.81A5.48,5.48,0,0,0,195.12,78a5.33,5.33,0,0,0,3.81-1.68,5.21,5.21,0,0,0,1.66-3.79,5.42,5.42,0,0,0-5.38-5.38A5.22,5.22,0,0,0,191.42,68.84Z"/><path class="cls-2" d="M197.26,84.43,207,74.68l1.43,1.43-1.64,1.64A4.63,4.63,0,0,1,211.68,79c2.19,2.19,2.11,5-.12,7.23l-4,4c-.79.79-.91,1.14-.35,1.7a4.8,4.8,0,0,0,.41.33l-1.18,1.18a2.54,2.54,0,0,1-.71-.52c-.76-.75-1.64-2.07.31-4l3.81-3.81c1.63-1.62,1.7-3.6.16-5.15a3.68,3.68,0,0,0-5.46,0l-5.82,5.82Z"/><path class="cls-2" d="M216.63,87l-1.14-1.14,1.34-1.33L218,85.63l3.73-3.73,1.43,1.43-3.73,3.73,2.26,2.26-1.33,1.33-2.26-2.26-5.69,5.69c-1.24,1.24-1.28,2.09-.33,3a8.53,8.53,0,0,0,1,.85l-1.24,1.24a4,4,0,0,1-1.24-.93q-2.61-2.61.41-5.63Z"/><path class="cls-2" d="M217.81,95.23A7,7,0,0,1,223,93.06a7.47,7.47,0,0,1,7.35,7.35,7.43,7.43,0,0,1-7.37,7.37,7.54,7.54,0,0,1-7.35-7.35A7,7,0,0,1,217.81,95.23Zm1.43,1.43a5.32,5.32,0,0,0-1.68,3.81,5.48,5.48,0,0,0,5.38,5.38,5.33,5.33,0,0,0,3.81-1.68,5.22,5.22,0,0,0,1.66-3.79A5.42,5.42,0,0,0,223,95,5.22,5.22,0,0,0,219.24,96.66Z"/></g></svg>