<svg xmlns="http://www.w3.org/2000/svg" viewBox="0 0 280 280"><defs><style>.cls-1{fill:#ccc;}.cls-2,.cls-4{fill:#fff;}.cls-3{fill:#25d366;}.cls-3,.cls-4{fill-rule:evenodd;}.cls-5{fill:none;stroke:#25d366;stroke-miterlimit:10;}</style></defs><title>icones</title><g id="pop-ups"><rect class="cls-1" x="-0.25" y="-0.25" width="280.25" height="280.25" rx="46.97" ry="46.97"/><rect class="cls-2" x="5.49" y="5.49" width="268.77" height="268.77" rx="41.23" ry="41.23"/><path class="cls-3" d="M76.3,196l8.88-26.5s-47.12-93,66.24-97.11c0,0,73.07,17.07,42.34,94.24,0,0-20.35,47.8-90.42,23.9Z"/><g id="WA_Logo" data-name="WA Logo"><path class="cls-4" d="M189.89,84.88A71.23,71.23,0,0,0,77.82,170.81l-10.1,36.9,37.75-9.9a71.15,71.15,0,0,0,34,8.67h0A71.24,71.24,0,0,0,189.89,84.88ZM139.52,194.44h0a59.1,59.1,0,0,1-30.12-8.25l-2.16-1.28-22.4,5.88,6-21.84-1.41-2.24a59.19,59.19,0,1,1,50.14,27.74ZM172,150.12c-1.78-.89-10.53-5.19-12.16-5.79s-2.82-.89-4,.89-4.6,5.79-5.63,7-2.08,1.34-3.85.45A48.59,48.59,0,0,1,132,143.81a53.63,53.63,0,0,1-9.9-12.33c-1-1.78-.11-2.74.78-3.63s1.78-2.08,2.67-3.12a12.14,12.14,0,0,0,1.78-3,3.28,3.28,0,0,0-.15-3.12c-.44-.89-4-9.65-5.49-13.21s-2.91-3-4-3.05-2.22-.06-3.41-.06a6.54,6.54,0,0,0-4.74,2.23,20,20,0,0,0-6.23,14.84c0,8.76,6.38,17.22,7.27,18.41S123.15,157,141,164.66a102.2,102.2,0,0,0,10.14,3.75,24.38,24.38,0,0,0,11.21.71c3.42-.51,10.53-4.3,12-8.46s1.48-7.72,1-8.46S173.77,151,172,150.12Z"/><path class="cls-5" d="M189.89,84.88A71.23,71.23,0,0,0,77.82,170.81l-10.1,36.9,37.75-9.9a71.15,71.15,0,0,0,34,8.67h0A71.24,71.24,0,0,0,189.89,84.88ZM139.52,194.44h0a59.1,59.1,0,0,1-30.12-8.25l-2.16-1.28-22.4,5.88,6-21.84-1.41-2.24a59.19,59.19,0,1,1,50.14,27.74ZM172,150.12c-1.78-.89-10.53-5.19-12.16-5.79s-2.82-.89-4,.89-4.6,5.79-5.63,7-2.08,1.34-3.85.45A48.59,48.59,0,0,1,132,143.81a53.63,53.63,0,0,1-9.9-12.33c-1-1.78-.11-2.74.78-3.63s1.78-2.08,2.67-3.12a12.14,12.14,0,0,0,1.78-3,3.28,3.28,0,0,0-.15-3.12c-.44-.89-4-9.65-5.49-13.21s-2.91-3-4-3.05-2.22-.06-3.41-.06a6.54,6.54,0,0,0-4.74,2.23,20,20,0,0,0-6.23,14.84c0,8.76,6.38,17.22,7.27,18.41S123.15,157,141,164.66a102.2,102.2,0,0,0,10.14,3.75,24.38,24.38,0,0,0,11.21.71c3.42-.51,10.53-4.3,12-8.46s1.48-7.72,1-8.46S173.77,151,172,150.12Z"/></g></g></svg>