<svg xmlns="http://www.w3.org/2000/svg" viewBox="0 0 59 56"><defs><style>.cls-1{fill:#ed1c24;}</style></defs><title>icones</title><g id="pop-ups"><path class="cls-1" d="M29.49,11.95c.35-.5.66-1,1-1.45a15.07,15.07,0,0,1,6.67-5.21,13.29,13.29,0,0,1,5.95-.86A13.07,13.07,0,0,1,50.72,7.5a12.89,12.89,0,0,1,4.44,7.86,20.47,20.47,0,0,1,.11,4.89,22.66,22.66,0,0,1-.86,5,19.63,19.63,0,0,1-3.71,6.85,48.48,48.48,0,0,1-5.6,5.67c-3.08,2.72-6.2,5.4-9.27,8.12-2.08,1.85-4.1,3.75-6.15,5.62l-.19.17-.89-.83c-3.28-3.09-6.66-6.06-10.06-9-2.65-2.29-5.32-4.56-7.8-7A27.88,27.88,0,0,1,6.36,29.3,19,19,0,0,1,4,22.53a28.08,28.08,0,0,1-.33-5.37,12.89,12.89,0,0,1,8.24-11.8A13.44,13.44,0,0,1,26.17,7.95a15.92,15.92,0,0,1,3.17,3.78Z"/></g></svg>