<svg xmlns="http://www.w3.org/2000/svg" viewBox="0 0 954 185"><defs><style>.cls-1{fill:#fff;stroke:#28416e;stroke-miterlimit:10;stroke-width:3px;}.cls-2{fill:#28416e;}</style></defs><title>icones</title><g id="botões"><line class="cls-1" x1="-0.25" y1="182.5" x2="954.25" y2="182.5"/><path class="cls-1" d="M926.25,182.5h-900V22.5a20,20,0,0,1,20-20h860a20,20,0,0,1,20,20Z"/><path class="cls-2" d="M349,111.11V69.3h28.56v8.4H358.25v7.86h18.06v8.22H358.25v8.94H378v8.4Z"/><path class="cls-2" d="M381.35,111.11l13.8-21.48L382.07,69.3h10.32l8.46,13.32,8.4-13.32h10.26l-13,20.4,13.86,21.42h-10.2l-9.36-14.52-9.36,14.52Z"/><path class="cls-2" d="M432.53,111.11V77.7H421.19V69.3h31.74v8.4H441.77v33.42Z"/><path class="cls-2" d="M457.79,111.11V69.3h17.52a13.81,13.81,0,0,1,10,4A13.32,13.32,0,0,1,482.09,95l10.2,16.14H481.85l-8.7-13.92H467v13.92ZM467,89h7.32c3.6,0,6-2.28,6-5.82a5.26,5.26,0,0,0-5.22-5.52H467Z"/><path class="cls-2" d="M492.35,111.11,509.63,69.3h8.22l17.28,41.82h-9.84l-2.82-7H505l-2.82,7Zm15.3-14.4h12.18l-6.06-15.18Z"/><path class="cls-2" d="M542.87,111.11V77.7H531.53V69.3h31.74v8.4H552.11v33.42Z"/><path class="cls-2" d="M571.37,74.94a22.06,22.06,0,0,1,15.84-6.3A21.82,21.82,0,0,1,603,74.94a20.42,20.42,0,0,1,6.54,15.36A20.71,20.71,0,0,1,603,105.71a23.22,23.22,0,0,1-31.68,0,21.51,21.51,0,0,1,0-30.78Zm6.54,24.84a12.67,12.67,0,0,0,9.3,3.78,12.36,12.36,0,0,0,9.24-3.84,13.48,13.48,0,0,0,.06-18.78,13,13,0,0,0-18.6,0,13.63,13.63,0,0,0,0,18.84Z"/></g></svg>