<svg xmlns="http://www.w3.org/2000/svg" viewBox="0 0 280 280"><defs><style>.cls-1{fill:#ccc;}.cls-2{fill:#fff;}.cls-3{fill:#333;}</style></defs><title>icones</title><g id="pop-ups"><rect class="cls-1" x="-0.25" y="-0.25" width="280.25" height="280.25" rx="46.97" ry="46.97"/><rect class="cls-2" x="5.49" y="5.49" width="268.77" height="268.77" rx="41.23" ry="41.23"/><path class="cls-3" d="M214.26,87.82c0-11.16-5.69-16.81-16.86-16.81H82.56c-11.47,0-17.07,5.57-17.08,17q0,63.38,0,126.77v3.8l1,.32c8.58-8.65,17.23-17.23,25.7-26A8.73,8.73,0,0,1,99.11,190q48.88.15,97.76.06c11.69,0,17.4-5.65,17.4-17.18Q214.28,130.34,214.26,87.82Z"/><path class="cls-2" d="M92.88,137.69q11.91.65,16.13.65a2,2,0,0,0,2.17-2.17v-3.91h-10q-4.57,0-6.63-2.07t-2.07-6.63v-1.3q0-4.57,2.07-6.63t6.63-2.07h15.26v6.09H102.92a2.31,2.31,0,0,0-2.61,2.61v.87a2.31,2.31,0,0,0,2.61,2.61h7.83q4.26,0,6.26,2t2,6.26v2.17q0,4.26-2,6.26t-6.26,2q-2.22,0-4.7-.09l-4-.17q-4.44-.22-9.17-.61Z"/><path class="cls-2" d="M149,127l-6.09,10.87h-6.09L130.74,127v17h-7.83V113.56h8.26l8.7,16.09,8.7-16.09h8.26V144H149Z"/><path class="cls-2" d="M161.14,137.69q11.91.65,16.13.65a2,2,0,0,0,2.17-2.17v-3.91h-10q-4.57,0-6.63-2.07t-2.07-6.63v-1.3q0-4.57,2.07-6.63t6.63-2.07H184.7v6.09H171.18a2.31,2.31,0,0,0-2.61,2.61v.87a2.31,2.31,0,0,0,2.61,2.61H179q4.26,0,6.26,2t2,6.26v2.17q0,4.26-2,6.26t-6.26,2q-2.22,0-4.7-.09l-4-.17q-4.44-.22-9.17-.61Z"/></g></svg>