<svg xmlns="http://www.w3.org/2000/svg" viewBox="0 0 252 252"><defs><style>.cls-1{fill:#ccc;}.cls-2{fill:#fff;}.cls-3{fill:#fbae17;}.cls-4{fill:#005a99;}.cls-5{fill:#ec1c24;}</style></defs><title>icones</title><g id="utilitários_e_qrcode" data-name="utilitários e qrcode"><rect class="cls-1" width="252" height="252" rx="42.23" ry="42.23"/><rect class="cls-2" x="5.16" y="5.16" width="241.68" height="241.68" rx="37.07" ry="37.07"/><path class="cls-3" d="M79.88,90.13c-.74.28-3,1.25-2.4-2.4.71-4.14,8.18-26.72,36.83-33.6s46.52,2.81,52.46,10.58c2,2.65-.64,2.55-4.12,3.23C130.15,74.29,99.26,82.94,79.88,90.13ZM99,170.05c-3.28,1.33-5.82,1.94-4.09,4.23,4.09,5.4,25.5,15.45,53.27,5.61,25.7-9.1,33.15-28.24,33.53-32.42.33-3.68-1.46-2.94-3.81-2.36C155,150.79,127.1,158.69,99,170.05Z"/><path class="cls-2" d="M145.94,67.78s4.69-1.56,3.75-5.39-12-8.44-20.39-8.67c0,0,19.11-1.67,25.79,7.78C158.75,66.68,145.94,67.78,145.94,67.78Zm-41.49-8.6s-16.5,7.59-20.12,23.13c-.66,2.85,2.46,2.77,2.89.59C87.51,81.41,89.52,70,104.45,59.18ZM150.89,176s17.94-6.45,23.09-22.33c.95-2.91-3.5-4.15-4.13-1.18C169.52,154,166.72,165.46,150.89,176Z"/><path class="cls-4" d="M188.6,150.92c-10.31,23.29-31.16,40.81-57.62,43.4a69.56,69.56,0,0,1-55.27-19.4c-3.9,1.66-8.78,3.58-8.78,3.58V164.74A75.53,75.53,0,0,1,101.3,50.62a88.37,88.37,0,0,1,48.11-4,82.46,82.46,0,1,0,53.37,111.55Z"/><path class="cls-5" d="M203.57,144.36a2.25,2.25,0,0,0-2.25-2.25h-3.79v8h1.57v-3.52H200l2,3.52h1.57l-2-3.53A2.25,2.25,0,0,0,203.57,144.36Zm-4.48-1.12h1.85a1.12,1.12,0,1,1,0,2.24h-1.85Zm1.23-4.52a7.4,7.4,0,1,0,7.27,7.4A7.34,7.34,0,0,0,200.32,138.72Zm0,13a5.58,5.58,0,1,1,5.48-5.58A5.53,5.53,0,0,1,200.32,151.7Zm-99.87,2.9a6.51,6.51,0,1,1-9.21,9.21L80.77,153.34v12.82s.16,4.38-3,5.78c-4,1.76-9.14,3.75-9.14,3.75V135.45l12.19-5.16v14.6l10.62-18c1.57-2.66,4.95-3.29,7.81-2.15s3.91,4.3,1.81,7.83l-8.5,14.1Zm17-2.9a8.3,8.3,0,0,1-5.52,7.71l-7.29,2.6V127a8.3,8.3,0,0,1,5.52-7.71l7.29-2.6Zm-35-33.84c-.27-4.07-4.84-5.39-4.84-5.39a8.26,8.26,0,0,0,3.67-8c-.85-7.42-9.61-3.91-9.61-3.91L62.41,104V133.5s6-2.5,12.19-5.24S82.8,122.56,82.49,117.87ZM69.67,106.3s4.53-2.11,4.38,1.64-4.38,4.69-4.38,4.69Zm0,18.21v-7.35s5.08-2.42,4.92,2C74.44,123.49,69.67,124.51,69.67,124.51ZM103.2,93.57s.08,13,0,15.16.39,9.69-9.3,12.74c-10.47,3.29-10.71-6.17-10.71-6.17V96.14S86.32,95,87,94.74c3.8-1.27,3.75,2.11,3.75,2.11v15.39s-.23,3,2.19,2.66c3-.39,2.73-3.59,2.73-3.59V91.69s1.88-.63,3.52-1.09C103.34,89.41,103.2,93.57,103.2,93.57Zm21.88,16.49c2.27-2.66-.63-5.31-.63-5.31l-4.3-4.38s4.63-2.42,4.53-9.38c-.08-5.78-6.41-6.41-11.49-4.61-1.66.59-7.89,2.42-7.89,2.42v27.66l4.61-1.56s2.89-.78,2.89-4.61v-6.41l6.56,6.56S122.41,113.18,125.07,110.05Zm-7.89-16.41a6.69,6.69,0,0,1-4.45,5.94V91.92S117.42,90.13,117.18,93.64Zm58.61,1V89.39l6.1,6.75a3.88,3.88,0,0,0,5.7.15c2.41-2.23-.63-5.23-.63-5.23l-4.06-5.15s4.3-2.11,4.22-8-5.86-7.1-10.94-5.92c-1.66.38-7.89,1.46-7.89,1.46V99.92l4.61-1S175.79,98.49,175.79,94.66Zm-.39-17.11s4.64-1.64,4.38,1.88a6,6,0,0,1-4.38,5.16ZM125.7,93.8c.39-6.17,5.31-16.64,19.3-14.61a3.56,3.56,0,0,1,3.36,3.36A3.36,3.36,0,0,1,145,85.91s-10.71-2.5-11.17,8.2c-.19,4.35,1,6.55,3.13,6.88,2.5.39,4.39-.78,4.61-1.64.08-.31-.08-3.2-.08-3.2s-3.83,1-3.91-1.48a19.09,19.09,0,0,1,.08-3.36l10.71-2.5V99.66s.23,6.49-10,7.66S125.31,100,125.7,93.8Zm37.91,6.89-13.22,3V76.92l16.06-3.26s0,2.58,0,3.26a3.45,3.45,0,0,1-2.88,3.3l-5.8,1.33v3.87l7.78-1.63s0,2,0,2.63a3.16,3.16,0,0,1-2.62,3.2l-5.16,1.2V96l8.71-1.83s0,2.58,0,3.26A3.45,3.45,0,0,1,163.61,100.69ZM156.25,142a6.13,6.13,0,0,1-5.52,6.07,6.8,6.8,0,0,1-5.94-2.28C142.34,143,132.71,132,132.71,132v14.92a8,8,0,0,1-5.7,7.45l-5.63,2V115.68l6.43-2s3.59-1.41,6.8,2.19l10.55,12.27v-13s-.16-5.82,5.47-7.09l5.63-1.38Zm14.42-21.63c-1.13,8.12,2.57,11.1,6.8,11.2,5.1.13,5.29-3.15,5.29-3.15v-3c-6.36,1.7-6.23-2.58-6.23-2.58v-4.72l17.12-3.65V128c0,6.48-4,12.73-17.51,13.71-10.49.76-19.49-6.47-17.56-20.86,1.85-13.74,12.47-20.7,23.74-20.66a29.32,29.32,0,0,1,6.25.74c4.57,1.08,5.77,4,5.08,6.62-1.37,5.12-5.73,3.46-10.19,2.89A11.37,11.37,0,0,0,170.67,120.35Z"/></g></svg>