<svg xmlns="http://www.w3.org/2000/svg" viewBox="0 0 199 199"><defs><style>.cls-1{fill:#ccc;}.cls-2{fill:#fff;}.cls-3{fill:#283c93;}.cls-4,.cls-6,.cls-7{fill:none;stroke-miterlimit:10;stroke-width:0.09px;}.cls-4{stroke:#283c93;}.cls-5{fill:#ea2228;}.cls-6{stroke:#ea2228;}.cls-7{stroke:#fff;}</style></defs><title>icones</title><g id="ícones_menores" data-name="ícones menores"><rect class="cls-1" x="-0.25" width="199.5" height="199.5" rx="33.43" ry="33.43"/><rect class="cls-2" x="3.83" y="4.08" width="191.33" height="191.33" rx="29.35" ry="29.35"/><path class="cls-3" d="M161.27,66.92c1.13-2.31,2.2-4.66,3.35-7,.3,2.37.63,4.71,1,7.08,2.28-.77,4.51-1.68,6.82-2.34-1.62,2-3.19,4-4.76,6.06,1.7,1.35,3.41,2.65,5.09,4-2.28.25-4.56.36-6.85.55-.08,2.43-.25,4.88-.38,7.33-1.32-1.76-2.53-3.58-3.8-5.37-1.9,1.73-3.82,3.47-5.66,5.26.72-2.48,1.43-5,2.12-7.44-2.2-.28-4.43-.58-6.63-.88,2.14-1.21,4.32-2.45,6.46-3.69-.88-2.12-1.79-4.22-2.64-6.34,2,1,4,1.79,5.91,2.76"/><path class="cls-4" d="M161.27,66.92c1.13-2.31,2.2-4.66,3.35-7,.3,2.37.63,4.71,1,7.08,2.28-.77,4.51-1.68,6.82-2.34-1.62,2-3.19,4-4.76,6.06,1.7,1.35,3.41,2.65,5.09,4-2.28.25-4.56.36-6.85.55-.08,2.43-.25,4.88-.38,7.33-1.32-1.76-2.53-3.58-3.8-5.37-1.9,1.73-3.82,3.47-5.66,5.26.72-2.48,1.43-5,2.12-7.44-2.2-.28-4.43-.58-6.63-.88,2.14-1.21,4.32-2.45,6.46-3.69-.88-2.12-1.79-4.22-2.64-6.34C157.31,65.13,159.31,66,161.27,66.92Z"/><path class="cls-3" d="M96.62,80.67c1.92-.16,3.85-.27,5.75-.41q-2.06,11-4.15,21.93c-.66,3.31-2.2,6.67-5,8.71-2.94,2.23-6.82,2.78-10.42,2.62-3.19-.17-6.54-1.24-8.61-3.83S72,103.18,73,100a13.37,13.37,0,0,1,7.75-8.71c4.43-2,9.4-1.68,14.13-1.54.58-3,1.18-6.06,1.76-9.07"/><path class="cls-4" d="M96.62,80.67c1.92-.16,3.85-.27,5.75-.41q-2.06,11-4.15,21.93c-.66,3.31-2.2,6.67-5,8.71-2.94,2.23-6.82,2.78-10.42,2.62-3.19-.17-6.54-1.24-8.61-3.83S72,103.18,73,100a13.37,13.37,0,0,1,7.75-8.71c4.43-2,9.4-1.68,14.13-1.54C95.44,86.7,96,83.67,96.62,80.67Z"/><path class="cls-5" d="M140.07,98.83A142.52,142.52,0,0,0,156,82.43a45,45,0,0,1-12.37,20.22,41.11,41.11,0,0,1-4.18,3.33,31.24,31.24,0,0,1-17.08,5.68l.14-.11a106.59,106.59,0,0,0,13.75-9.45c1.27-1.07,2.61-2.09,3.8-3.28"/><path class="cls-6" d="M140.07,98.83A142.52,142.52,0,0,0,156,82.43a45,45,0,0,1-12.37,20.22,41.11,41.11,0,0,1-4.18,3.33,31.24,31.24,0,0,1-17.08,5.68l.14-.11a106.59,106.59,0,0,0,13.75-9.45C137.54,101,138.88,100,140.07,98.83Z"/><path class="cls-3" d="M56.31,90c3.22-.33,6.71-.08,9.57,1.6a8.12,8.12,0,0,1,4,5.87,13.77,13.77,0,0,1-2.42,9.4,16.76,16.76,0,0,1-12.37,6.83c-3.16.25-6.54,0-9.35-1.68a8.1,8.1,0,0,1-4-6.12,14,14,0,0,1,3.13-10A17,17,0,0,1,56.31,90"/><path class="cls-4" d="M56.31,90c3.22-.33,6.71-.08,9.57,1.6a8.12,8.12,0,0,1,4,5.87,13.77,13.77,0,0,1-2.42,9.4,16.76,16.76,0,0,1-12.37,6.83c-3.16.25-6.54,0-9.35-1.68a8.1,8.1,0,0,1-4-6.12,14,14,0,0,1,3.13-10A17,17,0,0,1,56.31,90Z"/><path class="cls-3" d="M105.25,94.33c3.35-3.25,8.17-4.6,12.76-4.49,2.42.06,5.06.44,7,2.07a5.82,5.82,0,0,1,1.1,6.78,8.86,8.86,0,0,1-4.78,3.91c-4.59,1.73-9.65,1.54-14.41.69a6.94,6.94,0,0,0,3.27,6.8c3.77,2,8.25,1.9,12.37,1.46l-.14.11A17,17,0,0,1,110,114.12a11.3,11.3,0,0,1-7.31-4,8.72,8.72,0,0,1-1.81-6.28,13.87,13.87,0,0,1,4.37-9.51"/><path class="cls-4" d="M105.25,94.33c3.35-3.25,8.17-4.6,12.76-4.49,2.42.06,5.06.44,7,2.07a5.82,5.82,0,0,1,1.1,6.78,8.86,8.86,0,0,1-4.78,3.91c-4.59,1.73-9.65,1.54-14.41.69a6.94,6.94,0,0,0,3.27,6.8c3.77,2,8.25,1.9,12.37,1.46l-.14.11A17,17,0,0,1,110,114.12a11.3,11.3,0,0,1-7.31-4,8.72,8.72,0,0,1-1.81-6.28A13.87,13.87,0,0,1,105.25,94.33Z"/><path class="cls-3" d="M167.12,90a17.39,17.39,0,0,1,9.9,1.07,8.36,8.36,0,0,1,4.81,6.09,13.57,13.57,0,0,1-2.17,9.51,16.76,16.76,0,0,1-11.74,7.16,17.41,17.41,0,0,1-9.76-1.16,8.34,8.34,0,0,1-4.67-5.79,13.34,13.34,0,0,1,1.7-9.09A16.59,16.59,0,0,1,167.12,90"/><path class="cls-4" d="M167.12,90a17.39,17.39,0,0,1,9.9,1.07,8.36,8.36,0,0,1,4.81,6.09,13.57,13.57,0,0,1-2.17,9.51,16.76,16.76,0,0,1-11.74,7.16,17.41,17.41,0,0,1-9.76-1.16,8.34,8.34,0,0,1-4.67-5.79,13.34,13.34,0,0,1,1.7-9.09A16.59,16.59,0,0,1,167.12,90Z"/><path class="cls-3" d="M25.82,91.05a28.59,28.59,0,0,1,7.78-.94,47.44,47.44,0,0,1,8.63.66c-.41,1.1-.82,2.18-1.18,3.28-4.1-.3-8.33-.58-12.4.36-1.24.33-2.83.83-3.16,2.29-.06,1.1,1,1.74,1.9,2,2.91.8,6,.69,8.8,2a4.31,4.31,0,0,1,2.61,3.14A7.68,7.68,0,0,1,37,110.2c-1.79,1.93-4.43,2.78-6.93,3.25a38.79,38.79,0,0,1-15.62-.91c.28-1.16.61-2.31.88-3.47,4.37.55,8.85,1.24,13.23.33,1.65-.36,3.52-1.24,3.82-3.09.33-1.21-.74-2.18-1.79-2.48-2.78-.85-5.75-.66-8.47-1.68a4.49,4.49,0,0,1-2.78-2.45,5.7,5.7,0,0,1,1.6-6.12,12.57,12.57,0,0,1,4.92-2.53"/><path class="cls-4" d="M25.82,91.05a28.59,28.59,0,0,1,7.78-.94,47.44,47.44,0,0,1,8.63.66c-.41,1.1-.82,2.18-1.18,3.28-4.1-.3-8.33-.58-12.4.36-1.24.33-2.83.83-3.16,2.29-.06,1.1,1,1.74,1.9,2,2.91.8,6,.69,8.8,2a4.31,4.31,0,0,1,2.61,3.14A7.68,7.68,0,0,1,37,110.2c-1.79,1.93-4.43,2.78-6.93,3.25a38.79,38.79,0,0,1-15.62-.91c.28-1.16.61-2.31.88-3.47,4.37.55,8.85,1.24,13.23.33,1.65-.36,3.52-1.24,3.82-3.09.33-1.21-.74-2.18-1.79-2.48-2.78-.85-5.75-.66-8.47-1.68a4.49,4.49,0,0,1-2.78-2.45,5.7,5.7,0,0,1,1.6-6.12A12.57,12.57,0,0,1,25.82,91.05Z"/><path class="cls-3" d="M127.77,90.12c1.79,0,3.6,0,5.39,0,2.2,3,4.56,5.84,7,8.57l-.14.14c-1.18,1.18-2.53,2.2-3.8,3.28a117.74,117.74,0,0,1-8.5-12"/><path class="cls-4" d="M127.77,90.12c1.79,0,3.6,0,5.39,0,2.2,3,4.56,5.84,7,8.57l-.14.14c-1.18,1.18-2.53,2.2-3.8,3.28A117.74,117.74,0,0,1,127.77,90.12Z"/><path class="cls-2" d="M83.53,94.91c3.19-1.65,6.9-1.63,10.39-1.24-.63,2.92-1.18,5.84-1.79,8.73a8.59,8.59,0,0,1-2.45,5,8.22,8.22,0,0,1-6.6,1.71,4.88,4.88,0,0,1-4-2.42c-.91-1.74-.6-3.8-.14-5.62a9.36,9.36,0,0,1,4.62-6.17"/><path class="cls-7" d="M83.53,94.91c3.19-1.65,6.9-1.63,10.39-1.24-.63,2.92-1.18,5.84-1.79,8.73a8.59,8.59,0,0,1-2.45,5,8.22,8.22,0,0,1-6.6,1.71,4.88,4.88,0,0,1-4-2.42c-.91-1.74-.6-3.8-.14-5.62A9.36,9.36,0,0,1,83.53,94.91Z"/><path class="cls-2" d="M112.71,94.39a9.71,9.71,0,0,1,6.35-.69,2.49,2.49,0,0,1,2,2.18c.25,1.73-1.26,3.09-2.75,3.61-3.41,1.13-7.09.85-10.56.28a10.35,10.35,0,0,1,5-5.37"/><path class="cls-7" d="M112.71,94.39a9.71,9.71,0,0,1,6.35-.69,2.49,2.49,0,0,1,2,2.18c.25,1.73-1.26,3.09-2.75,3.61-3.41,1.13-7.09.85-10.56.28A10.35,10.35,0,0,1,112.71,94.39Z"/><path class="cls-2" d="M55.73,94.11a7.2,7.2,0,0,1,6.21,1.1,5.79,5.79,0,0,1,1.65,5,11.4,11.4,0,0,1-2.28,5.7,9.4,9.4,0,0,1-7.64,3.61A6,6,0,0,1,49.24,108,4.75,4.75,0,0,1,48,104.92c-.19-4.74,2.94-9.7,7.73-10.8"/><path class="cls-7" d="M55.73,94.11a7.2,7.2,0,0,1,6.21,1.1,5.79,5.79,0,0,1,1.65,5,11.4,11.4,0,0,1-2.28,5.7,9.4,9.4,0,0,1-7.64,3.61A6,6,0,0,1,49.24,108,4.75,4.75,0,0,1,48,104.92C47.81,100.17,50.95,95.22,55.73,94.11Z"/><path class="cls-2" d="M167.62,94.06a7.36,7.36,0,0,1,5.94.91,5.26,5.26,0,0,1,2,4.19,10.6,10.6,0,0,1-6.21,9.89,9.33,9.33,0,0,1-6.9.14,4.42,4.42,0,0,1-2.72-3.72c-.44-5,2.86-10.31,7.89-11.41"/><path class="cls-7" d="M167.62,94.06a7.36,7.36,0,0,1,5.94.91,5.26,5.26,0,0,1,2,4.19,10.6,10.6,0,0,1-6.21,9.89,9.33,9.33,0,0,1-6.9.14,4.42,4.42,0,0,1-2.72-3.72C159.28,100.48,162.58,95.16,167.62,94.06Z"/><path class="cls-3" d="M139.46,106a41.11,41.11,0,0,0,4.18-3.33c3.38,3.72,6.82,7.38,10.26,11-2.39-.05-4.81,0-7.21,0a9.81,9.81,0,0,1-1.57-1.46c-2-2-3.9-4-5.66-6.23"/><path class="cls-4" d="M139.46,106a41.11,41.11,0,0,0,4.18-3.33c3.38,3.72,6.82,7.38,10.26,11-2.39-.05-4.81,0-7.21,0a9.81,9.81,0,0,1-1.57-1.46C143.14,110.2,141.22,108.17,139.46,106Z"/></g></svg>